<svg xmlns="http://www.w3.org/2000/svg" version="1.1" viewBox="0.000 0.000 360.000 360.000"><style>path {fill: #dce9f5; stroke: #1f4e79; stroke-width: 0.6; stroke-linejoin:bevel}</style><path d="M 0.000 360.000L 26.604 360.000L 19.042 340.958Z" /><path d="M 0.000 333.396L 19.042 340.958L 17.965 318.259Z" /><path d="M 0.000 309.167L 17.965 318.259L 17.759 295.947Z" /><path d="M 0.000 286.589L 17.759 295.947L 17.797 274.480Z" /><path d="M 0.000 265.221L 17.797 274.480L 17.928 253.814Z" /><path d="M 0.000 244.767L 17.928 253.814L 18.075 233.868Z" /><path d="M 0.000 225.034L 18.075 233.868L 18.216 214.512Z" /><path d="M 0.000 205.899L 18.216 214.512L 18.349 195.664Z" /><path d="M 0.000 187.247L 18.349 195.664L 18.457 177.262Z" /><path d="M 0.000 169.050L 18.457 177.262L 18.550 159.258Z" /><path d="M 0.000 151.241L 18.550 159.258L 18.594 141.649Z" /><path d="M 0.000 133.839L 18.594 141.649L 18.587 124.400Z" /><path d="M 0.000 116.805L 18.587 124.400L 18.490 107.526Z" /><path d="M 0.000 100.162L 18.490 107.526L 18.289 90.993Z" /><path d="M 0.000 83.894L 18.289 90.993L 17.954 74.822Z" /><path d="M 0.000 68.040L 17.954 74.822L 17.465 59.009Z" /><path d="M 0.000 52.647L 17.465 59.009L 16.784 43.605Z" /><path d="M 0.000 37.826L 16.784 43.605L 15.811 28.637Z" /><path d="M 0.000 23.783L 15.811 28.637L 14.266 14.125Z" /><path d="M 0.000 10.906L 14.266 14.125L 10.988 0.000Z" /><path d="M 26.604 360.000L 50.833 360.000L 41.741 342.035Z" /><path d="M 19.042 340.958L 41.741 342.035L 37.115 322.885Z" /><path d="M 17.965 318.259L 37.115 322.885L 35.875 302.043Z" /><path d="M 17.759 295.947L 35.875 302.043L 35.619 281.216Z" /><path d="M 17.797 274.480L 35.619 281.216L 35.740 260.768Z" /><path d="M 17.928 253.814L 35.740 260.768L 35.970 240.868Z" /><path d="M 18.075 233.868L 35.970 240.868L 36.242 221.451Z" /><path d="M 18.216 214.512L 36.242 221.451L 36.500 202.493Z" /><path d="M 18.349 195.664L 36.500 202.493L 36.737 183.941Z" /><path d="M 18.457 177.262L 36.737 183.941L 36.940 165.755Z" /><path d="M 18.550 159.258L 36.940 165.755L 37.074 147.939Z" /><path d="M 18.594 141.649L 37.074 147.939L 37.114 130.455Z" /><path d="M 18.587 124.400L 37.114 130.455L 36.987 113.311Z" /><path d="M 18.490 107.526L 36.987 113.311L 36.656 96.451Z" /><path d="M 18.289 90.993L 36.656 96.451L 36.045 79.866Z" /><path d="M 17.954 74.822L 36.045 79.866L 35.123 63.513Z" /><path d="M 17.465 59.009L 35.123 63.513L 33.788 47.379Z" /><path d="M 16.784 43.605L 33.788 47.379L 31.885 31.430Z" /><path d="M 15.811 28.637L 31.885 31.430L 28.986 15.615Z" /><path d="M 14.266 14.125L 28.986 15.615L 24.029 0.000Z" /><path d="M 50.833 360.000L 73.411 360.000L 64.053 342.241Z" /><path d="M 41.741 342.035L 64.053 342.241L 57.957 324.125Z" /><path d="M 37.115 322.885L 57.957 324.125L 54.876 305.124Z" /><path d="M 35.875 302.043L 54.876 305.124L 53.858 285.415Z" /><path d="M 35.619 281.216L 53.858 285.415L 53.736 265.553Z" /><path d="M 35.740 260.768L 53.736 265.553L 53.934 245.991Z" /><path d="M 35.970 240.868L 53.934 245.991L 54.268 226.700Z" /><path d="M 36.242 221.451L 54.268 226.700L 54.604 207.787Z" /><path d="M 36.500 202.493L 54.604 207.787L 54.939 189.168Z" /><path d="M 36.737 183.941L 54.939 189.168L 55.232 170.860Z" /><path d="M 36.940 165.755L 55.232 170.860L 55.461 152.864Z" /><path d="M 37.074 147.939L 55.461 152.864L 55.564 135.152Z" /><path d="M 37.114 130.455L 55.564 135.152L 55.453 117.757Z" /><path d="M 36.987 113.311L 55.453 117.757L 55.021 100.574Z" /><path d="M 36.656 96.451L 55.021 100.574L 54.177 83.606Z" /><path d="M 36.045 79.866L 54.177 83.606L 52.834 66.736Z" /><path d="M 35.123 63.513L 52.834 66.736L 50.900 49.974Z" /><path d="M 33.788 47.379L 50.900 49.974L 48.162 33.236Z" /><path d="M 31.885 31.430L 48.162 33.236L 44.237 16.542Z" /><path d="M 28.986 15.615L 44.237 16.542L 38.308 0.000Z" /><path d="M 73.411 360.000L 94.779 360.000L 85.520 342.203Z" /><path d="M 64.053 342.241L 85.520 342.203L 78.784 324.381Z" /><path d="M 57.957 324.125L 78.784 324.381L 74.585 306.142Z" /><path d="M 54.876 305.124L 74.585 306.142L 72.469 287.531Z" /><path d="M 53.858 285.415L 72.469 287.531L 71.804 268.408Z" /><path d="M 53.736 265.553L 71.804 268.408L 71.788 249.380Z" /><path d="M 53.934 245.991L 71.788 249.380L 72.100 230.381Z" /><path d="M 54.268 226.700L 72.100 230.381L 72.472 211.688Z" /><path d="M 54.604 207.787L 72.472 211.688L 72.878 193.119Z" /><path d="M 54.939 189.168L 72.878 193.119L 73.256 174.794Z" /><path d="M 55.232 170.860L 73.256 174.794L 73.587 156.641Z" /><path d="M 55.461 152.864L 73.587 156.641L 73.809 138.748Z" /><path d="M 55.564 135.152L 73.809 138.748L 73.778 121.103Z" /><path d="M 55.453 117.757L 73.778 121.103L 73.345 103.667Z" /><path d="M 55.021 100.574L 73.345 103.667L 72.317 86.356Z" /><path d="M 54.177 83.606L 72.317 86.356L 70.630 69.081Z" /><path d="M 52.834 66.736L 70.630 69.081L 68.154 51.805Z" /><path d="M 50.900 49.974L 68.154 51.805L 64.741 34.497Z" /><path d="M 48.162 33.236L 64.741 34.497L 60.025 17.177Z" /><path d="M 44.237 16.542L 60.025 17.177L 53.469 0.000Z" /><path d="M 94.779 360.000L 115.233 360.000L 106.186 342.072Z" /><path d="M 85.520 342.203L 106.186 342.072L 99.232 324.260Z" /><path d="M 78.784 324.381L 99.232 324.260L 94.447 306.264Z" /><path d="M 74.585 306.142L 94.447 306.264L 91.592 288.196Z" /><path d="M 72.469 287.531L 91.592 288.196L 90.308 269.692Z" /><path d="M 71.804 268.408L 90.308 269.692L 89.978 251.224Z" /><path d="M 71.788 249.380L 89.978 251.224L 90.200 232.604Z" /><path d="M 72.100 230.381L 90.200 232.604L 90.545 214.290Z" /><path d="M 72.472 211.688L 90.545 214.290L 90.957 195.950Z" /><path d="M 72.878 193.119L 90.957 195.950L 91.308 177.761Z" /><path d="M 73.256 174.794L 91.308 177.761L 91.680 159.548Z" /><path d="M 73.587 156.641L 91.680 159.548L 91.970 141.482Z" /><path d="M 73.809 138.748L 91.970 141.482L 92.088 123.634Z" /><path d="M 73.778 121.103L 92.088 123.634L 91.704 105.971Z" /><path d="M 73.345 103.667L 91.704 105.971L 90.578 88.420Z" /><path d="M 72.317 86.356L 90.578 88.420L 88.558 70.809Z" /><path d="M 70.630 69.081L 88.558 70.809L 85.627 53.159Z" /><path d="M 68.154 51.805L 85.627 53.159L 81.626 35.409Z" /><path d="M 64.741 34.497L 81.626 35.409L 76.322 17.655Z" /><path d="M 60.025 17.177L 76.322 17.655L 69.282 0.000Z" /><path d="M 115.233 360.000L 134.966 360.000L 126.132 341.925Z" /><path d="M 106.186 342.072L 126.132 341.925L 119.132 324.030Z" /><path d="M 99.232 324.260L 119.132 324.030L 114.009 306.066Z" /><path d="M 94.447 306.264L 114.009 306.066L 110.620 288.212Z" /><path d="M 91.592 288.196L 110.620 288.212L 108.776 270.022Z" /><path d="M 90.308 269.692L 108.776 270.022L 108.010 251.990Z" /><path d="M 89.978 251.224L 108.010 251.990L 108.095 233.662Z" /><path d="M 90.200 232.604L 108.095 233.662L 108.456 215.784Z" /><path d="M 90.545 214.290L 108.456 215.784L 108.920 197.825Z" /><path d="M 90.957 195.950L 108.920 197.825L 109.236 180.063Z" /><path d="M 91.308 177.761L 109.236 180.063L 109.523 161.946Z" /><path d="M 91.680 159.548L 109.523 161.946L 109.852 143.778Z" /><path d="M 91.970 141.482L 109.852 143.778L 110.184 125.660Z" /><path d="M 92.088 123.634L 110.184 125.660L 110.065 107.829Z" /><path d="M 91.704 105.971L 110.065 107.829L 108.960 90.055Z" /><path d="M 90.578 88.420L 108.960 90.055L 106.708 72.203Z" /><path d="M 88.558 70.809L 106.708 72.203L 103.353 54.211Z" /><path d="M 85.627 53.159L 103.353 54.211L 98.892 36.127Z" /><path d="M 81.626 35.409L 98.892 36.127L 93.091 18.007Z" /><path d="M 76.322 17.655L 93.091 18.007L 85.694 0.000Z" /><path d="M 134.966 360.000L 154.101 360.000L 145.488 341.784Z" /><path d="M 126.132 341.925L 145.488 341.784L 138.549 323.758Z" /><path d="M 119.132 324.030L 138.549 323.758L 133.300 305.732Z" /><path d="M 114.009 306.066L 133.300 305.732L 129.619 287.900Z" /><path d="M 110.620 288.212L 129.619 287.900L 127.396 269.800Z" /><path d="M 108.776 270.022L 127.396 269.800L 126.338 251.905Z" /><path d="M 108.010 251.990L 126.338 251.905L 126.193 233.807Z" /><path d="M 108.095 233.662L 126.193 233.807L 126.701 216.088Z" /><path d="M 108.456 215.784L 126.701 216.088L 127.364 198.619Z" /><path d="M 108.920 197.825L 127.364 198.619L 127.688 181.622Z" /><path d="M 109.236 180.063L 127.688 181.622L 127.706 164.130Z" /><path d="M 109.523 161.946L 127.706 164.130L 127.627 146.032Z" /><path d="M 109.852 143.778L 127.627 146.032L 128.187 127.604Z" /><path d="M 110.184 125.660L 128.187 127.604L 128.513 109.514Z" /><path d="M 110.065 107.829L 128.513 109.514L 127.672 91.590Z" /><path d="M 108.960 90.055L 127.672 91.590L 125.157 73.482Z" /><path d="M 106.708 72.203L 125.157 73.482L 121.406 55.191Z" /><path d="M 103.353 54.211L 121.406 55.191L 116.481 36.758Z" /><path d="M 98.892 36.127L 116.481 36.758L 110.294 18.329Z" /><path d="M 93.091 18.007L 110.294 18.329L 102.570 0.000Z" /><path d="M 154.101 360.000L 172.753 360.000L 164.336 341.651Z" /><path d="M 145.488 341.784L 164.336 341.651L 157.507 323.500Z" /><path d="M 138.549 323.758L 157.507 323.500L 152.213 305.396Z" /><path d="M 133.300 305.732L 152.213 305.396L 148.312 287.528Z" /><path d="M 129.619 287.900L 148.312 287.528L 145.710 269.455Z" /><path d="M 127.396 269.800L 145.710 269.455L 144.216 251.544Z" /><path d="M 126.338 251.905L 144.216 251.544L 143.912 233.299Z" /><path d="M 126.193 233.807L 143.912 233.299L 144.209 215.791Z" /><path d="M 126.701 216.088L 144.209 215.791L 145.680 197.978Z" /><path d="M 127.364 198.619L 145.680 197.978L 146.586 182.040Z" /><path d="M 127.688 181.622L 146.586 182.040L 146.544 165.942Z" /><path d="M 127.706 164.130L 146.544 165.942L 145.351 148.763Z" /><path d="M 127.627 146.032L 145.351 148.763L 145.572 130.175Z" /><path d="M 128.187 127.604L 145.572 130.175L 146.816 111.566Z" /><path d="M 128.513 109.514L 146.816 111.566L 146.722 93.397Z" /><path d="M 127.672 91.590L 146.722 93.397L 144.002 74.987Z" /><path d="M 125.157 73.482L 144.002 74.987L 139.770 56.275Z" /><path d="M 121.406 55.191L 139.770 56.275L 134.422 37.456Z" /><path d="M 116.481 36.758L 134.422 37.456L 127.860 18.639Z" /><path d="M 110.294 18.329L 127.860 18.639L 119.907 0.000Z" /><path d="M 172.753 360.000L 190.950 360.000L 182.738 341.543Z" /><path d="M 164.336 341.651L 182.738 341.543L 176.059 323.263Z" /><path d="M 157.507 323.500L 176.059 323.263L 170.832 305.061Z" /><path d="M 152.213 305.396L 170.832 305.061L 166.881 287.122Z" /><path d="M 148.312 287.528L 166.881 287.122L 164.050 269.043Z" /><path d="M 145.710 269.455L 164.050 269.043L 162.175 251.080Z" /><path d="M 144.216 251.544L 162.175 251.080L 161.381 232.636Z" /><path d="M 143.912 233.299L 161.381 232.636L 162.022 214.320Z" /><path d="M 144.209 215.791L 162.022 214.320L 162.849 197.151Z" /><path d="M 145.680 197.978L 162.849 197.151L 166.251 179.326Z" /><path d="M 146.586 182.040L 166.251 179.326L 167.385 166.139Z" /><path d="M 146.544 165.942L 167.385 166.139L 164.236 151.209Z" /><path d="M 145.351 148.763L 164.236 151.209L 162.614 134.140Z" /><path d="M 145.572 130.175L 162.614 134.140L 164.211 115.275Z" /><path d="M 146.816 111.566L 164.211 115.275L 166.353 96.175Z" /><path d="M 146.722 93.397L 166.353 96.175L 163.335 76.997Z" /><path d="M 144.002 74.987L 163.335 76.997L 158.480 57.683Z" /><path d="M 139.770 56.275L 158.480 57.683L 152.580 38.314Z" /><path d="M 134.422 37.456L 152.580 38.314L 145.692 19.042Z" /><path d="M 127.860 18.639L 145.692 19.042L 137.525 0.000Z" /><path d="M 190.950 360.000L 208.759 360.000L 200.742 341.450Z" /><path d="M 182.738 341.543L 200.742 341.450L 194.245 323.060Z" /><path d="M 176.059 323.263L 194.245 323.060L 189.140 304.768Z" /><path d="M 170.832 305.061L 189.140 304.768L 185.206 286.744Z" /><path d="M 166.881 287.122L 185.206 286.744L 182.239 268.692Z" /><path d="M 164.050 269.043L 182.239 268.692L 179.937 250.764Z" /><path d="M 162.175 251.080L 179.937 250.764L 178.378 232.312Z" /><path d="M 161.381 232.636L 178.378 232.312L 177.960 213.414Z" /><path d="M 162.022 214.320L 177.960 213.414L 180.674 193.749Z" /><path d="M 162.849 197.151L 180.674 193.749L 181.172 178.828Z" /><path d="M 166.251 179.326L 181.172 178.828L 190.492 157.986Z" /><path d="M 167.385 166.139L 190.492 157.986L 185.524 149.792Z" /><path d="M 164.236 151.209L 185.524 149.792L 181.298 137.768Z" /><path d="M 162.614 134.140L 181.298 137.768L 180.112 122.525Z" /><path d="M 164.211 115.275L 180.112 122.525L 184.725 103.910Z" /><path d="M 166.353 96.175L 184.725 103.910L 183.160 79.469Z" /><path d="M 163.335 76.997L 183.160 79.469L 177.409 59.312Z" /><path d="M 158.480 57.683L 177.409 59.312L 170.881 39.332Z" /><path d="M 152.580 38.314L 170.881 39.332L 163.632 19.507Z" /><path d="M 145.692 19.042L 163.632 19.507L 155.359 0.000Z" /><path d="M 208.759 360.000L 226.161 360.000L 218.351 341.406Z" /><path d="M 200.742 341.450L 218.351 341.406L 212.061 322.926Z" /><path d="M 194.245 323.060L 212.061 322.926L 207.136 304.539Z" /><path d="M 189.140 304.768L 207.136 304.539L 203.359 286.413Z" /><path d="M 185.206 286.744L 203.359 286.413L 200.452 268.320Z" /><path d="M 182.239 268.692L 200.452 268.320L 198.054 250.477Z" /><path d="M 179.937 250.764L 198.054 250.477L 195.870 232.294Z" /><path d="M 178.378 232.312L 195.870 232.294L 194.058 213.456Z" /><path d="M 177.960 213.414L 194.058 213.456L 193.861 192.615Z" /><path d="M 180.674 193.749L 193.861 192.615L 202.014 169.508Z" /><path d="M 181.172 178.828L 202.014 169.508L 195.816 164.184Z" /><path d="M 183.160 79.469L 207.167 79.138L 196.433 60.411Z" /><path d="M 177.409 59.312L 196.433 60.411L 189.093 40.055Z" /><path d="M 170.881 39.332L 189.093 40.055L 181.531 19.940Z" /><path d="M 163.632 19.507L 181.531 19.940L 173.153 0.000Z" /><path d="M 226.161 360.000L 243.195 360.000L 235.600 341.413Z" /><path d="M 218.351 341.406L 235.600 341.413L 229.545 322.886Z" /><path d="M 212.061 322.926L 229.545 322.886L 224.848 304.436Z" /><path d="M 207.136 304.539L 224.848 304.436L 221.252 286.191Z" /><path d="M 203.359 286.413L 221.252 286.191L 218.518 268.030Z" /><path d="M 200.452 268.320L 218.518 268.030L 216.222 250.148Z" /><path d="M 198.054 250.477L 216.222 250.148L 213.968 232.373Z" /><path d="M 195.870 232.294L 213.968 232.373L 211.237 214.649Z" /><path d="M 194.058 213.456L 211.237 214.649L 208.791 195.764Z" /><path d="M 193.861 192.615L 208.791 195.764L 210.208 174.476Z" /><path d="M 207.167 79.138L 224.577 72.829L 214.848 56.968Z" /><path d="M 196.433 60.411L 214.848 56.968L 207.047 39.026Z" /><path d="M 189.093 40.055L 207.047 39.026L 199.377 19.737Z" /><path d="M 181.531 19.940L 199.377 19.737L 190.925 0.000Z" /><path d="M 243.195 360.000L 259.838 360.000L 252.474 341.510Z" /><path d="M 235.600 341.413L 252.474 341.510L 246.689 323.013Z" /><path d="M 229.545 322.886L 246.689 323.013L 242.243 304.547Z" /><path d="M 224.848 304.436L 242.243 304.547L 238.897 286.222Z" /><path d="M 221.252 286.191L 238.897 286.222L 236.366 267.912Z" /><path d="M 218.518 268.030L 236.366 267.912L 234.340 249.816Z" /><path d="M 216.222 250.148L 234.340 249.816L 232.396 231.813Z" /><path d="M 213.968 232.373L 232.396 231.813L 229.825 214.428Z" /><path d="M 211.237 214.649L 229.825 214.428L 225.860 197.386Z" /><path d="M 208.791 195.764L 225.860 197.386L 222.232 178.702Z" /><path d="M 224.577 72.829L 240.337 72.373L 233.771 54.069Z" /><path d="M 214.848 56.968L 233.771 54.069L 225.852 37.002Z" /><path d="M 207.047 39.026L 225.852 37.002L 217.775 18.996Z" /><path d="M 199.377 19.737L 217.775 18.996L 208.993 0.000Z" /><path d="M 259.838 360.000L 276.106 360.000L 269.007 341.711Z" /><path d="M 252.474 341.510L 269.007 341.711L 263.549 323.344Z" /><path d="M 246.689 323.013L 263.549 323.344L 259.426 304.979Z" /><path d="M 242.243 304.547L 259.426 304.979L 256.333 286.655Z" /><path d="M 238.897 286.222L 256.333 286.655L 254.029 268.296Z" /><path d="M 236.366 267.912L 254.029 268.296L 252.171 249.935Z" /><path d="M 234.340 249.816L 252.171 249.935L 250.486 231.487Z" /><path d="M 232.396 231.813L 250.486 231.487L 248.434 213.184Z" /><path d="M 229.825 214.428L 248.434 213.184L 244.725 195.789Z" /><path d="M 225.860 197.386L 244.725 195.789L 237.475 179.888Z" /><path d="M 240.337 72.373L 253.920 75.808L 251.984 54.788Z" /><path d="M 233.771 54.069L 251.984 54.788L 245.365 36.128Z" /><path d="M 225.852 37.002L 245.365 36.128L 237.105 18.247Z" /><path d="M 217.775 18.996L 237.105 18.247L 227.911 0.000Z" /><path d="M 276.106 360.000L 291.960 360.000L 285.178 342.046Z" /><path d="M 269.007 341.711L 285.178 342.046L 280.134 323.955Z" /><path d="M 263.549 323.344L 280.134 323.955L 276.394 305.823Z" /><path d="M 259.426 304.979L 276.394 305.823L 273.644 287.683Z" /><path d="M 256.333 286.655L 273.644 287.683L 271.580 269.422Z" /><path d="M 254.029 268.296L 271.580 269.422L 269.945 251.040Z" /><path d="M 252.171 249.935L 269.945 251.040L 268.410 232.328Z" /><path d="M 250.486 231.487L 268.410 232.328L 266.603 213.278Z" /><path d="M 248.434 213.184L 266.603 213.278L 263.825 193.647Z" /><path d="M 244.725 195.789L 263.825 193.647L 256.090 175.275Z" /><path d="M 253.920 75.808L 264.599 81.506L 268.905 57.814Z" /><path d="M 251.984 54.788L 268.905 57.814L 264.527 37.059Z" /><path d="M 245.365 36.128L 264.527 37.059L 256.969 18.208Z" /><path d="M 237.105 18.247L 256.969 18.208L 247.617 0.000Z" /><path d="M 291.960 360.000L 307.353 360.000L 300.991 342.535Z" /><path d="M 285.178 342.046L 300.991 342.535L 296.487 324.877Z" /><path d="M 280.134 323.955L 296.487 324.877L 293.264 307.166Z" /><path d="M 276.394 305.823L 293.264 307.166L 290.919 289.370Z" /><path d="M 273.644 287.683L 290.919 289.370L 289.191 271.442Z" /><path d="M 271.580 269.422L 289.191 271.442L 287.797 253.292Z" /><path d="M 269.945 251.040L 287.797 253.292L 286.518 234.843Z" /><path d="M 268.410 232.328L 286.518 234.843L 285.013 215.998Z" /><path d="M 266.603 213.278L 285.013 215.998L 283.003 196.665Z" /><path d="M 263.825 193.647L 283.003 196.665L 280.531 176.840Z" /><path d="M 272.184 87.816L 278.494 95.401L 286.363 73.637Z" /><path d="M 264.599 81.506L 286.363 73.637L 284.492 57.697Z" /><path d="M 268.905 57.814L 284.492 57.697L 282.982 37.613Z" /><path d="M 264.527 37.059L 282.982 37.613L 276.826 18.437Z" /><path d="M 256.969 18.208L 276.826 18.437L 267.756 0.000Z" /><path d="M 307.353 360.000L 322.174 360.000L 316.395 343.216Z" /><path d="M 300.991 342.535L 316.395 343.216L 312.621 326.212Z" /><path d="M 296.487 324.877L 312.621 326.212L 310.026 309.100Z" /><path d="M 293.264 307.166L 310.026 309.100L 308.195 291.846Z" /><path d="M 290.919 289.370L 308.195 291.846L 306.841 274.373Z" /><path d="M 289.191 271.442L 306.841 274.373L 305.789 256.647Z" /><path d="M 287.797 253.292L 305.789 256.647L 304.809 238.594Z" /><path d="M 286.518 234.843L 304.809 238.594L 303.725 220.230Z" /><path d="M 285.013 215.998L 303.725 220.230L 302.317 201.520Z" /><path d="M 283.003 196.665L 302.317 201.520L 300.688 182.591Z" /><path d="M 280.531 176.840L 300.688 182.591L 299.589 163.567Z" /><path d="M 280.862 152.833L 299.589 163.567L 303.032 145.152Z" /><path d="M 287.171 135.423L 303.032 145.152L 305.931 126.229Z" /><path d="M 287.627 119.663L 305.931 126.229L 305.212 108.016Z" /><path d="M 284.192 106.080L 305.212 108.016L 302.186 91.095Z" /><path d="M 278.494 95.401L 302.186 91.095L 302.303 75.508Z" /><path d="M 286.363 73.637L 302.303 75.508L 304.347 55.653Z" /><path d="M 284.492 57.697L 304.347 55.653L 302.045 37.411Z" /><path d="M 282.982 37.613L 302.045 37.411L 297.110 18.513Z" /><path d="M 276.826 18.437L 297.110 18.513L 288.290 0.000Z" /><path d="M 322.174 360.000L 336.217 360.000L 331.363 344.189Z" /><path d="M 316.395 343.216L 331.363 344.189L 328.570 328.115Z" /><path d="M 312.621 326.212L 328.570 328.115L 326.764 311.838Z" /><path d="M 310.026 309.100L 326.764 311.838L 325.503 295.259Z" /><path d="M 308.195 291.846L 325.503 295.259L 324.591 278.374Z" /><path d="M 306.841 274.373L 324.591 278.374L 323.873 261.108Z" /><path d="M 305.789 256.647L 323.873 261.108L 323.242 243.519Z" /><path d="M 304.809 238.594L 323.242 243.519L 322.544 225.578Z" /><path d="M 303.725 220.230L 322.544 225.578L 321.686 207.420Z" /><path d="M 302.317 201.520L 321.686 207.420L 320.668 189.119Z" /><path d="M 300.688 182.591L 320.668 189.119L 319.945 170.907Z" /><path d="M 299.589 163.567L 319.945 170.907L 320.974 152.953Z" /><path d="M 303.032 145.152L 320.974 152.953L 322.998 134.148Z" /><path d="M 305.931 126.229L 322.998 134.148L 323.872 114.635Z" /><path d="M 305.212 108.016L 323.872 114.635L 322.941 95.473Z" /><path d="M 302.186 91.095L 322.941 95.473L 322.387 77.018Z" /><path d="M 302.303 75.508L 322.387 77.018L 322.589 57.955Z" /><path d="M 304.347 55.653L 322.589 57.955L 322.575 37.425Z" /><path d="M 302.045 37.411L 322.575 37.425L 318.497 18.439Z" /><path d="M 297.110 18.513L 318.497 18.439L 309.934 0.000Z" /><path d="M 336.217 360.000L 349.094 360.000L 345.875 345.734Z" /><path d="M 331.363 344.189L 345.875 345.734L 344.385 331.014Z" /><path d="M 328.570 328.115L 344.385 331.014L 343.458 315.763Z" /><path d="M 326.764 311.838L 343.458 315.763L 342.823 299.975Z" /><path d="M 325.503 295.259L 342.823 299.975L 342.345 283.678Z" /><path d="M 324.591 278.374L 342.345 283.678L 341.993 266.909Z" /><path d="M 323.873 261.108L 341.993 266.909L 341.671 249.706Z" /><path d="M 323.242 243.519L 341.671 249.706L 341.361 232.140Z" /><path d="M 322.544 225.578L 341.361 232.140L 340.958 214.308Z" /><path d="M 321.686 207.420L 340.958 214.308L 340.493 196.368Z" /><path d="M 320.668 189.119L 340.493 196.368L 340.060 178.469Z" /><path d="M 319.945 170.907L 340.060 178.469L 340.263 160.623Z" /><path d="M 320.974 152.953L 340.263 160.623L 341.004 142.225Z" /><path d="M 322.998 134.148L 341.004 142.225L 341.753 122.895Z" /><path d="M 323.872 114.635L 341.753 122.895L 341.792 103.031Z" /><path d="M 322.941 95.473L 341.792 103.031L 341.563 83.174Z" /><path d="M 322.387 77.018L 341.563 83.174L 341.487 62.890Z" /><path d="M 322.589 57.955L 341.487 62.890L 341.561 41.503Z" /><path d="M 322.575 37.425L 341.561 41.503L 340.940 19.060Z" /><path d="M 318.497 18.439L 340.940 19.060L 333.543 0.000Z" /><path d="M 349.094 360.000L 360.000 360.000L 360.000 349.012Z" /><path d="M 345.875 345.734L 360.000 349.012L 360.000 335.971Z" /><path d="M 344.385 331.014L 360.000 335.971L 360.000 321.692Z" /><path d="M 343.458 315.763L 360.000 321.692L 360.000 306.531Z" /><path d="M 342.823 299.975L 360.000 306.531L 360.000 290.718Z" /><path d="M 342.345 283.678L 360.000 290.718L 360.000 274.306Z" /><path d="M 341.993 266.909L 360.000 274.306L 360.000 257.430Z" /><path d="M 341.671 249.706L 360.000 257.430L 360.000 240.093Z" /><path d="M 341.361 232.140L 360.000 240.093L 360.000 222.475Z" /><path d="M 340.958 214.308L 360.000 222.475L 360.000 204.641Z" /><path d="M 340.493 196.368L 360.000 204.641L 360.000 186.847Z" /><path d="M 340.060 178.469L 360.000 186.847L 360.000 169.075Z" /><path d="M 340.263 160.623L 360.000 169.075L 360.000 151.007Z" /><path d="M 341.004 142.225L 360.000 151.007L 360.000 132.089Z" /><path d="M 341.753 122.895L 360.000 132.089L 360.000 112.383Z" /><path d="M 341.792 103.031L 360.000 112.383L 360.000 92.244Z" /><path d="M 341.563 83.174L 360.000 92.244L 360.000 71.710Z" /><path d="M 341.487 62.890L 360.000 71.710L 360.000 50.066Z" /><path d="M 341.561 41.503L 360.000 50.066L 360.000 26.457Z" /><path d="M 340.940 19.060L 360.000 26.457L 360.000 0.000Z" /><path d="M 0.000 333.396L 0.000 360.000L 19.042 340.958Z" /><path d="M 0.000 309.167L 0.000 333.396L 17.965 318.259Z" /><path d="M 0.000 286.589L 0.000 309.167L 17.759 295.947Z" /><path d="M 0.000 265.221L 0.000 286.589L 17.797 274.480Z" /><path d="M 0.000 244.767L 0.000 265.221L 17.928 253.814Z" /><path d="M 0.000 225.034L 0.000 244.767L 18.075 233.868Z" /><path d="M 0.000 205.899L 0.000 225.034L 18.216 214.512Z" /><path d="M 0.000 187.247L 0.000 205.899L 18.349 195.664Z" /><path d="M 0.000 169.050L 0.000 187.247L 18.457 177.262Z" /><path d="M 0.000 151.241L 0.000 169.050L 18.550 159.258Z" /><path d="M 0.000 133.839L 0.000 151.241L 18.594 141.649Z" /><path d="M 0.000 116.805L 0.000 133.839L 18.587 124.400Z" /><path d="M 0.000 100.162L 0.000 116.805L 18.490 107.526Z" /><path d="M 0.000 83.894L 0.000 100.162L 18.289 90.993Z" /><path d="M 0.000 68.040L 0.000 83.894L 17.954 74.822Z" /><path d="M 0.000 52.647L 0.000 68.040L 17.465 59.009Z" /><path d="M 0.000 37.826L 0.000 52.647L 16.784 43.605Z" /><path d="M 0.000 23.783L 0.000 37.826L 15.811 28.637Z" /><path d="M 0.000 10.906L 0.000 23.783L 14.266 14.125Z" /><path d="M 0.000 0.000L 0.000 10.906L 10.988 0.000Z" /><path d="M 19.042 340.958L 26.604 360.000L 41.741 342.035Z" /><path d="M 17.965 318.259L 19.042 340.958L 37.115 322.885Z" /><path d="M 17.759 295.947L 17.965 318.259L 35.875 302.043Z" /><path d="M 17.797 274.480L 17.759 295.947L 35.619 281.216Z" /><path d="M 17.928 253.814L 17.797 274.480L 35.740 260.768Z" /><path d="M 18.075 233.868L 17.928 253.814L 35.970 240.868Z" /><path d="M 18.216 214.512L 18.075 233.868L 36.242 221.451Z" /><path d="M 18.349 195.664L 18.216 214.512L 36.500 202.493Z" /><path d="M 18.457 177.262L 18.349 195.664L 36.737 183.941Z" /><path d="M 18.550 159.258L 18.457 177.262L 36.940 165.755Z" /><path d="M 18.594 141.649L 18.550 159.258L 37.074 147.939Z" /><path d="M 18.587 124.400L 18.594 141.649L 37.114 130.455Z" /><path d="M 18.490 107.526L 18.587 124.400L 36.987 113.311Z" /><path d="M 18.289 90.993L 18.490 107.526L 36.656 96.451Z" /><path d="M 17.954 74.822L 18.289 90.993L 36.045 79.866Z" /><path d="M 17.465 59.009L 17.954 74.822L 35.123 63.513Z" /><path d="M 16.784 43.605L 17.465 59.009L 33.788 47.379Z" /><path d="M 15.811 28.637L 16.784 43.605L 31.885 31.430Z" /><path d="M 14.266 14.125L 15.811 28.637L 28.986 15.615Z" /><path d="M 10.988 0.000L 14.266 14.125L 24.029 0.000Z" /><path d="M 41.741 342.035L 50.833 360.000L 64.053 342.241Z" /><path d="M 37.115 322.885L 41.741 342.035L 57.957 324.125Z" /><path d="M 35.875 302.043L 37.115 322.885L 54.876 305.124Z" /><path d="M 35.619 281.216L 35.875 302.043L 53.858 285.415Z" /><path d="M 35.740 260.768L 35.619 281.216L 53.736 265.553Z" /><path d="M 35.970 240.868L 35.740 260.768L 53.934 245.991Z" /><path d="M 36.242 221.451L 35.970 240.868L 54.268 226.700Z" /><path d="M 36.500 202.493L 36.242 221.451L 54.604 207.787Z" /><path d="M 36.737 183.941L 36.500 202.493L 54.939 189.168Z" /><path d="M 36.940 165.755L 36.737 183.941L 55.232 170.860Z" /><path d="M 37.074 147.939L 36.940 165.755L 55.461 152.864Z" /><path d="M 37.114 130.455L 37.074 147.939L 55.564 135.152Z" /><path d="M 36.987 113.311L 37.114 130.455L 55.453 117.757Z" /><path d="M 36.656 96.451L 36.987 113.311L 55.021 100.574Z" /><path d="M 36.045 79.866L 36.656 96.451L 54.177 83.606Z" /><path d="M 35.123 63.513L 36.045 79.866L 52.834 66.736Z" /><path d="M 33.788 47.379L 35.123 63.513L 50.900 49.974Z" /><path d="M 31.885 31.430L 33.788 47.379L 48.162 33.236Z" /><path d="M 28.986 15.615L 31.885 31.430L 44.237 16.542Z" /><path d="M 24.029 0.000L 28.986 15.615L 38.308 0.000Z" /><path d="M 64.053 342.241L 73.411 360.000L 85.520 342.203Z" /><path d="M 57.957 324.125L 64.053 342.241L 78.784 324.381Z" /><path d="M 54.876 305.124L 57.957 324.125L 74.585 306.142Z" /><path d="M 53.858 285.415L 54.876 305.124L 72.469 287.531Z" /><path d="M 53.736 265.553L 53.858 285.415L 71.804 268.408Z" /><path d="M 53.934 245.991L 53.736 265.553L 71.788 249.380Z" /><path d="M 54.268 226.700L 53.934 245.991L 72.100 230.381Z" /><path d="M 54.604 207.787L 54.268 226.700L 72.472 211.688Z" /><path d="M 54.939 189.168L 54.604 207.787L 72.878 193.119Z" /><path d="M 55.232 170.860L 54.939 189.168L 73.256 174.794Z" /><path d="M 55.461 152.864L 55.232 170.860L 73.587 156.641Z" /><path d="M 55.564 135.152L 55.461 152.864L 73.809 138.748Z" /><path d="M 55.453 117.757L 55.564 135.152L 73.778 121.103Z" /><path d="M 55.021 100.574L 55.453 117.757L 73.345 103.667Z" /><path d="M 54.177 83.606L 55.021 100.574L 72.317 86.356Z" /><path d="M 52.834 66.736L 54.177 83.606L 70.630 69.081Z" /><path d="M 50.900 49.974L 52.834 66.736L 68.154 51.805Z" /><path d="M 48.162 33.236L 50.900 49.974L 64.741 34.497Z" /><path d="M 44.237 16.542L 48.162 33.236L 60.025 17.177Z" /><path d="M 38.308 0.000L 44.237 16.542L 53.469 0.000Z" /><path d="M 85.520 342.203L 94.779 360.000L 106.186 342.072Z" /><path d="M 78.784 324.381L 85.520 342.203L 99.232 324.260Z" /><path d="M 74.585 306.142L 78.784 324.381L 94.447 306.264Z" /><path d="M 72.469 287.531L 74.585 306.142L 91.592 288.196Z" /><path d="M 71.804 268.408L 72.469 287.531L 90.308 269.692Z" /><path d="M 71.788 249.380L 71.804 268.408L 89.978 251.224Z" /><path d="M 72.100 230.381L 71.788 249.380L 90.200 232.604Z" /><path d="M 72.472 211.688L 72.100 230.381L 90.545 214.290Z" /><path d="M 72.878 193.119L 72.472 211.688L 90.957 195.950Z" /><path d="M 73.256 174.794L 72.878 193.119L 91.308 177.761Z" /><path d="M 73.587 156.641L 73.256 174.794L 91.680 159.548Z" /><path d="M 73.809 138.748L 73.587 156.641L 91.970 141.482Z" /><path d="M 73.778 121.103L 73.809 138.748L 92.088 123.634Z" /><path d="M 73.345 103.667L 73.778 121.103L 91.704 105.971Z" /><path d="M 72.317 86.356L 73.345 103.667L 90.578 88.420Z" /><path d="M 70.630 69.081L 72.317 86.356L 88.558 70.809Z" /><path d="M 68.154 51.805L 70.630 69.081L 85.627 53.159Z" /><path d="M 64.741 34.497L 68.154 51.805L 81.626 35.409Z" /><path d="M 60.025 17.177L 64.741 34.497L 76.322 17.655Z" /><path d="M 53.469 0.000L 60.025 17.177L 69.282 0.000Z" /><path d="M 106.186 342.072L 115.233 360.000L 126.132 341.925Z" /><path d="M 99.232 324.260L 106.186 342.072L 119.132 324.030Z" /><path d="M 94.447 306.264L 99.232 324.260L 114.009 306.066Z" /><path d="M 91.592 288.196L 94.447 306.264L 110.620 288.212Z" /><path d="M 90.308 269.692L 91.592 288.196L 108.776 270.022Z" /><path d="M 89.978 251.224L 90.308 269.692L 108.010 251.990Z" /><path d="M 90.200 232.604L 89.978 251.224L 108.095 233.662Z" /><path d="M 90.545 214.290L 90.200 232.604L 108.456 215.784Z" /><path d="M 90.957 195.950L 90.545 214.290L 108.920 197.825Z" /><path d="M 91.308 177.761L 90.957 195.950L 109.236 180.063Z" /><path d="M 91.680 159.548L 91.308 177.761L 109.523 161.946Z" /><path d="M 91.970 141.482L 91.680 159.548L 109.852 143.778Z" /><path d="M 92.088 123.634L 91.970 141.482L 110.184 125.660Z" /><path d="M 91.704 105.971L 92.088 123.634L 110.065 107.829Z" /><path d="M 90.578 88.420L 91.704 105.971L 108.960 90.055Z" /><path d="M 88.558 70.809L 90.578 88.420L 106.708 72.203Z" /><path d="M 85.627 53.159L 88.558 70.809L 103.353 54.211Z" /><path d="M 81.626 35.409L 85.627 53.159L 98.892 36.127Z" /><path d="M 76.322 17.655L 81.626 35.409L 93.091 18.007Z" /><path d="M 69.282 0.000L 76.322 17.655L 85.694 0.000Z" /><path d="M 126.132 341.925L 134.966 360.000L 145.488 341.784Z" /><path d="M 119.132 324.030L 126.132 341.925L 138.549 323.758Z" /><path d="M 114.009 306.066L 119.132 324.030L 133.300 305.732Z" /><path d="M 110.620 288.212L 114.009 306.066L 129.619 287.900Z" /><path d="M 108.776 270.022L 110.620 288.212L 127.396 269.800Z" /><path d="M 108.010 251.990L 108.776 270.022L 126.338 251.905Z" /><path d="M 108.095 233.662L 108.010 251.990L 126.193 233.807Z" /><path d="M 108.456 215.784L 108.095 233.662L 126.701 216.088Z" /><path d="M 108.920 197.825L 108.456 215.784L 127.364 198.619Z" /><path d="M 109.236 180.063L 108.920 197.825L 127.688 181.622Z" /><path d="M 109.523 161.946L 109.236 180.063L 127.706 164.130Z" /><path d="M 109.852 143.778L 109.523 161.946L 127.627 146.032Z" /><path d="M 110.184 125.660L 109.852 143.778L 128.187 127.604Z" /><path d="M 110.065 107.829L 110.184 125.660L 128.513 109.514Z" /><path d="M 108.960 90.055L 110.065 107.829L 127.672 91.590Z" /><path d="M 106.708 72.203L 108.960 90.055L 125.157 73.482Z" /><path d="M 103.353 54.211L 106.708 72.203L 121.406 55.191Z" /><path d="M 98.892 36.127L 103.353 54.211L 116.481 36.758Z" /><path d="M 93.091 18.007L 98.892 36.127L 110.294 18.329Z" /><path d="M 85.694 0.000L 93.091 18.007L 102.570 0.000Z" /><path d="M 145.488 341.784L 154.101 360.000L 164.336 341.651Z" /><path d="M 138.549 323.758L 145.488 341.784L 157.507 323.500Z" /><path d="M 133.300 305.732L 138.549 323.758L 152.213 305.396Z" /><path d="M 129.619 287.900L 133.300 305.732L 148.312 287.528Z" /><path d="M 127.396 269.800L 129.619 287.900L 145.710 269.455Z" /><path d="M 126.338 251.905L 127.396 269.800L 144.216 251.544Z" /><path d="M 126.193 233.807L 126.338 251.905L 143.912 233.299Z" /><path d="M 126.701 216.088L 126.193 233.807L 144.209 215.791Z" /><path d="M 127.364 198.619L 126.701 216.088L 145.680 197.978Z" /><path d="M 127.688 181.622L 127.364 198.619L 146.586 182.040Z" /><path d="M 127.706 164.130L 127.688 181.622L 146.544 165.942Z" /><path d="M 127.627 146.032L 127.706 164.130L 145.351 148.763Z" /><path d="M 128.187 127.604L 127.627 146.032L 145.572 130.175Z" /><path d="M 128.513 109.514L 128.187 127.604L 146.816 111.566Z" /><path d="M 127.672 91.590L 128.513 109.514L 146.722 93.397Z" /><path d="M 125.157 73.482L 127.672 91.590L 144.002 74.987Z" /><path d="M 121.406 55.191L 125.157 73.482L 139.770 56.275Z" /><path d="M 116.481 36.758L 121.406 55.191L 134.422 37.456Z" /><path d="M 110.294 18.329L 116.481 36.758L 127.860 18.639Z" /><path d="M 102.570 0.000L 110.294 18.329L 119.907 0.000Z" /><path d="M 164.336 341.651L 172.753 360.000L 182.738 341.543Z" /><path d="M 157.507 323.500L 164.336 341.651L 176.059 323.263Z" /><path d="M 152.213 305.396L 157.507 323.500L 170.832 305.061Z" /><path d="M 148.312 287.528L 152.213 305.396L 166.881 287.122Z" /><path d="M 145.710 269.455L 148.312 287.528L 164.050 269.043Z" /><path d="M 144.216 251.544L 145.710 269.455L 162.175 251.080Z" /><path d="M 143.912 233.299L 144.216 251.544L 161.381 232.636Z" /><path d="M 144.209 215.791L 143.912 233.299L 162.022 214.320Z" /><path d="M 145.680 197.978L 144.209 215.791L 162.849 197.151Z" /><path d="M 146.586 182.040L 145.680 197.978L 166.251 179.326Z" /><path d="M 146.544 165.942L 146.586 182.040L 167.385 166.139Z" /><path d="M 145.351 148.763L 146.544 165.942L 164.236 151.209Z" /><path d="M 145.572 130.175L 145.351 148.763L 162.614 134.140Z" /><path d="M 146.816 111.566L 145.572 130.175L 164.211 115.275Z" /><path d="M 146.722 93.397L 146.816 111.566L 166.353 96.175Z" /><path d="M 144.002 74.987L 146.722 93.397L 163.335 76.997Z" /><path d="M 139.770 56.275L 144.002 74.987L 158.480 57.683Z" /><path d="M 134.422 37.456L 139.770 56.275L 152.580 38.314Z" /><path d="M 127.860 18.639L 134.422 37.456L 145.692 19.042Z" /><path d="M 119.907 0.000L 127.860 18.639L 137.525 0.000Z" /><path d="M 182.738 341.543L 190.950 360.000L 200.742 341.450Z" /><path d="M 176.059 323.263L 182.738 341.543L 194.245 323.060Z" /><path d="M 170.832 305.061L 176.059 323.263L 189.140 304.768Z" /><path d="M 166.881 287.122L 170.832 305.061L 185.206 286.744Z" /><path d="M 164.050 269.043L 166.881 287.122L 182.239 268.692Z" /><path d="M 162.175 251.080L 164.050 269.043L 179.937 250.764Z" /><path d="M 161.381 232.636L 162.175 251.080L 178.378 232.312Z" /><path d="M 162.022 214.320L 161.381 232.636L 177.960 213.414Z" /><path d="M 162.849 197.151L 162.022 214.320L 180.674 193.749Z" /><path d="M 166.251 179.326L 162.849 197.151L 181.172 178.828Z" /><path d="M 167.385 166.139L 166.251 179.326L 190.492 157.986Z" /><path d="M 164.236 151.209L 167.385 166.139L 185.524 149.792Z" /><path d="M 162.614 134.140L 164.236 151.209L 181.298 137.768Z" /><path d="M 164.211 115.275L 162.614 134.140L 180.112 122.525Z" /><path d="M 166.353 96.175L 164.211 115.275L 184.725 103.910Z" /><path d="M 163.335 76.997L 166.353 96.175L 183.160 79.469Z" /><path d="M 158.480 57.683L 163.335 76.997L 177.409 59.312Z" /><path d="M 152.580 38.314L 158.480 57.683L 170.881 39.332Z" /><path d="M 145.692 19.042L 152.580 38.314L 163.632 19.507Z" /><path d="M 137.525 0.000L 145.692 19.042L 155.359 0.000Z" /><path d="M 200.742 341.450L 208.759 360.000L 218.351 341.406Z" /><path d="M 194.245 323.060L 200.742 341.450L 212.061 322.926Z" /><path d="M 189.140 304.768L 194.245 323.060L 207.136 304.539Z" /><path d="M 185.206 286.744L 189.140 304.768L 203.359 286.413Z" /><path d="M 182.239 268.692L 185.206 286.744L 200.452 268.320Z" /><path d="M 179.937 250.764L 182.239 268.692L 198.054 250.477Z" /><path d="M 178.378 232.312L 179.937 250.764L 195.870 232.294Z" /><path d="M 177.960 213.414L 178.378 232.312L 194.058 213.456Z" /><path d="M 180.674 193.749L 177.960 213.414L 193.861 192.615Z" /><path d="M 181.172 178.828L 180.674 193.749L 202.014 169.508Z" /><path d="M 190.492 157.986L 181.172 178.828L 195.816 164.184Z" /><path d="M 177.409 59.312L 183.160 79.469L 196.433 60.411Z" /><path d="M 170.881 39.332L 177.409 59.312L 189.093 40.055Z" /><path d="M 163.632 19.507L 170.881 39.332L 181.531 19.940Z" /><path d="M 155.359 0.000L 163.632 19.507L 173.153 0.000Z" /><path d="M 218.351 341.406L 226.161 360.000L 235.600 341.413Z" /><path d="M 212.061 322.926L 218.351 341.406L 229.545 322.886Z" /><path d="M 207.136 304.539L 212.061 322.926L 224.848 304.436Z" /><path d="M 203.359 286.413L 207.136 304.539L 221.252 286.191Z" /><path d="M 200.452 268.320L 203.359 286.413L 218.518 268.030Z" /><path d="M 198.054 250.477L 200.452 268.320L 216.222 250.148Z" /><path d="M 195.870 232.294L 198.054 250.477L 213.968 232.373Z" /><path d="M 194.058 213.456L 195.870 232.294L 211.237 214.649Z" /><path d="M 193.861 192.615L 194.058 213.456L 208.791 195.764Z" /><path d="M 202.014 169.508L 193.861 192.615L 210.208 174.476Z" /><path d="M 196.433 60.411L 207.167 79.138L 214.848 56.968Z" /><path d="M 189.093 40.055L 196.433 60.411L 207.047 39.026Z" /><path d="M 181.531 19.940L 189.093 40.055L 199.377 19.737Z" /><path d="M 173.153 0.000L 181.531 19.940L 190.925 0.000Z" /><path d="M 235.600 341.413L 243.195 360.000L 252.474 341.510Z" /><path d="M 229.545 322.886L 235.600 341.413L 246.689 323.013Z" /><path d="M 224.848 304.436L 229.545 322.886L 242.243 304.547Z" /><path d="M 221.252 286.191L 224.848 304.436L 238.897 286.222Z" /><path d="M 218.518 268.030L 221.252 286.191L 236.366 267.912Z" /><path d="M 216.222 250.148L 218.518 268.030L 234.340 249.816Z" /><path d="M 213.968 232.373L 216.222 250.148L 232.396 231.813Z" /><path d="M 211.237 214.649L 213.968 232.373L 229.825 214.428Z" /><path d="M 208.791 195.764L 211.237 214.649L 225.860 197.386Z" /><path d="M 210.208 174.476L 208.791 195.764L 222.232 178.702Z" /><path d="M 214.848 56.968L 224.577 72.829L 233.771 54.069Z" /><path d="M 207.047 39.026L 214.848 56.968L 225.852 37.002Z" /><path d="M 199.377 19.737L 207.047 39.026L 217.775 18.996Z" /><path d="M 190.925 0.000L 199.377 19.737L 208.993 0.000Z" /><path d="M 252.474 341.510L 259.838 360.000L 269.007 341.711Z" /><path d="M 246.689 323.013L 252.474 341.510L 263.549 323.344Z" /><path d="M 242.243 304.547L 246.689 323.013L 259.426 304.979Z" /><path d="M 238.897 286.222L 242.243 304.547L 256.333 286.655Z" /><path d="M 236.366 267.912L 238.897 286.222L 254.029 268.296Z" /><path d="M 234.340 249.816L 236.366 267.912L 252.171 249.935Z" /><path d="M 232.396 231.813L 234.340 249.816L 250.486 231.487Z" /><path d="M 229.825 214.428L 232.396 231.813L 248.434 213.184Z" /><path d="M 225.860 197.386L 229.825 214.428L 244.725 195.789Z" /><path d="M 222.232 178.702L 225.860 197.386L 237.475 179.888Z" /><path d="M 233.771 54.069L 240.337 72.373L 251.984 54.788Z" /><path d="M 225.852 37.002L 233.771 54.069L 245.365 36.128Z" /><path d="M 217.775 18.996L 225.852 37.002L 237.105 18.247Z" /><path d="M 208.993 0.000L 217.775 18.996L 227.911 0.000Z" /><path d="M 269.007 341.711L 276.106 360.000L 285.178 342.046Z" /><path d="M 263.549 323.344L 269.007 341.711L 280.134 323.955Z" /><path d="M 259.426 304.979L 263.549 323.344L 276.394 305.823Z" /><path d="M 256.333 286.655L 259.426 304.979L 273.644 287.683Z" /><path d="M 254.029 268.296L 256.333 286.655L 271.580 269.422Z" /><path d="M 252.171 249.935L 254.029 268.296L 269.945 251.040Z" /><path d="M 250.486 231.487L 252.171 249.935L 268.410 232.328Z" /><path d="M 248.434 213.184L 250.486 231.487L 266.603 213.278Z" /><path d="M 244.725 195.789L 248.434 213.184L 263.825 193.647Z" /><path d="M 237.475 179.888L 244.725 195.789L 256.090 175.275Z" /><path d="M 251.984 54.788L 253.920 75.808L 268.905 57.814Z" /><path d="M 245.365 36.128L 251.984 54.788L 264.527 37.059Z" /><path d="M 237.105 18.247L 245.365 36.128L 256.969 18.208Z" /><path d="M 227.911 0.000L 237.105 18.247L 247.617 0.000Z" /><path d="M 285.178 342.046L 291.960 360.000L 300.991 342.535Z" /><path d="M 280.134 323.955L 285.178 342.046L 296.487 324.877Z" /><path d="M 276.394 305.823L 280.134 323.955L 293.264 307.166Z" /><path d="M 273.644 287.683L 276.394 305.823L 290.919 289.370Z" /><path d="M 271.580 269.422L 273.644 287.683L 289.191 271.442Z" /><path d="M 269.945 251.040L 271.580 269.422L 287.797 253.292Z" /><path d="M 268.410 232.328L 269.945 251.040L 286.518 234.843Z" /><path d="M 266.603 213.278L 268.410 232.328L 285.013 215.998Z" /><path d="M 263.825 193.647L 266.603 213.278L 283.003 196.665Z" /><path d="M 256.090 175.275L 263.825 193.647L 280.531 176.840Z" /><path d="M 264.599 81.506L 272.184 87.816L 286.363 73.637Z" /><path d="M 268.905 57.814L 264.599 81.506L 284.492 57.697Z" /><path d="M 264.527 37.059L 268.905 57.814L 282.982 37.613Z" /><path d="M 256.969 18.208L 264.527 37.059L 276.826 18.437Z" /><path d="M 247.617 0.000L 256.969 18.208L 267.756 0.000Z" /><path d="M 300.991 342.535L 307.353 360.000L 316.395 343.216Z" /><path d="M 296.487 324.877L 300.991 342.535L 312.621 326.212Z" /><path d="M 293.264 307.166L 296.487 324.877L 310.026 309.100Z" /><path d="M 290.919 289.370L 293.264 307.166L 308.195 291.846Z" /><path d="M 289.191 271.442L 290.919 289.370L 306.841 274.373Z" /><path d="M 287.797 253.292L 289.191 271.442L 305.789 256.647Z" /><path d="M 286.518 234.843L 287.797 253.292L 304.809 238.594Z" /><path d="M 285.013 215.998L 286.518 234.843L 303.725 220.230Z" /><path d="M 283.003 196.665L 285.013 215.998L 302.317 201.520Z" /><path d="M 280.531 176.840L 283.003 196.665L 300.688 182.591Z" /><path d="M 280.862 152.833L 280.531 176.840L 299.589 163.567Z" /><path d="M 287.171 135.423L 280.862 152.833L 303.032 145.152Z" /><path d="M 287.627 119.663L 287.171 135.423L 305.931 126.229Z" /><path d="M 284.192 106.080L 287.627 119.663L 305.212 108.016Z" /><path d="M 278.494 95.401L 284.192 106.080L 302.186 91.095Z" /><path d="M 286.363 73.637L 278.494 95.401L 302.303 75.508Z" /><path d="M 284.492 57.697L 286.363 73.637L 304.347 55.653Z" /><path d="M 282.982 37.613L 284.492 57.697L 302.045 37.411Z" /><path d="M 276.826 18.437L 282.982 37.613L 297.110 18.513Z" /><path d="M 267.756 0.000L 276.826 18.437L 288.290 0.000Z" /><path d="M 316.395 343.216L 322.174 360.000L 331.363 344.189Z" /><path d="M 312.621 326.212L 316.395 343.216L 328.570 328.115Z" /><path d="M 310.026 309.100L 312.621 326.212L 326.764 311.838Z" /><path d="M 308.195 291.846L 310.026 309.100L 325.503 295.259Z" /><path d="M 306.841 274.373L 308.195 291.846L 324.591 278.374Z" /><path d="M 305.789 256.647L 306.841 274.373L 323.873 261.108Z" /><path d="M 304.809 238.594L 305.789 256.647L 323.242 243.519Z" /><path d="M 303.725 220.230L 304.809 238.594L 322.544 225.578Z" /><path d="M 302.317 201.520L 303.725 220.230L 321.686 207.420Z" /><path d="M 300.688 182.591L 302.317 201.520L 320.668 189.119Z" /><path d="M 299.589 163.567L 300.688 182.591L 319.945 170.907Z" /><path d="M 303.032 145.152L 299.589 163.567L 320.974 152.953Z" /><path d="M 305.931 126.229L 303.032 145.152L 322.998 134.148Z" /><path d="M 305.212 108.016L 305.931 126.229L 323.872 114.635Z" /><path d="M 302.186 91.095L 305.212 108.016L 322.941 95.473Z" /><path d="M 302.303 75.508L 302.186 91.095L 322.387 77.018Z" /><path d="M 304.347 55.653L 302.303 75.508L 322.589 57.955Z" /><path d="M 302.045 37.411L 304.347 55.653L 322.575 37.425Z" /><path d="M 297.110 18.513L 302.045 37.411L 318.497 18.439Z" /><path d="M 288.290 0.000L 297.110 18.513L 309.934 0.000Z" /><path d="M 331.363 344.189L 336.217 360.000L 345.875 345.734Z" /><path d="M 328.570 328.115L 331.363 344.189L 344.385 331.014Z" /><path d="M 326.764 311.838L 328.570 328.115L 343.458 315.763Z" /><path d="M 325.503 295.259L 326.764 311.838L 342.823 299.975Z" /><path d="M 324.591 278.374L 325.503 295.259L 342.345 283.678Z" /><path d="M 323.873 261.108L 324.591 278.374L 341.993 266.909Z" /><path d="M 323.242 243.519L 323.873 261.108L 341.671 249.706Z" /><path d="M 322.544 225.578L 323.242 243.519L 341.361 232.140Z" /><path d="M 321.686 207.420L 322.544 225.578L 340.958 214.308Z" /><path d="M 320.668 189.119L 321.686 207.420L 340.493 196.368Z" /><path d="M 319.945 170.907L 320.668 189.119L 340.060 178.469Z" /><path d="M 320.974 152.953L 319.945 170.907L 340.263 160.623Z" /><path d="M 322.998 134.148L 320.974 152.953L 341.004 142.225Z" /><path d="M 323.872 114.635L 322.998 134.148L 341.753 122.895Z" /><path d="M 322.941 95.473L 323.872 114.635L 341.792 103.031Z" /><path d="M 322.387 77.018L 322.941 95.473L 341.563 83.174Z" /><path d="M 322.589 57.955L 322.387 77.018L 341.487 62.890Z" /><path d="M 322.575 37.425L 322.589 57.955L 341.561 41.503Z" /><path d="M 318.497 18.439L 322.575 37.425L 340.940 19.060Z" /><path d="M 309.934 0.000L 318.497 18.439L 333.543 0.000Z" /><path d="M 345.875 345.734L 349.094 360.000L 360.000 349.012Z" /><path d="M 344.385 331.014L 345.875 345.734L 360.000 335.971Z" /><path d="M 343.458 315.763L 344.385 331.014L 360.000 321.692Z" /><path d="M 342.823 299.975L 343.458 315.763L 360.000 306.531Z" /><path d="M 342.345 283.678L 342.823 299.975L 360.000 290.718Z" /><path d="M 341.993 266.909L 342.345 283.678L 360.000 274.306Z" /><path d="M 341.671 249.706L 341.993 266.909L 360.000 257.430Z" /><path d="M 341.361 232.140L 341.671 249.706L 360.000 240.093Z" /><path d="M 340.958 214.308L 341.361 232.140L 360.000 222.475Z" /><path d="M 340.493 196.368L 340.958 214.308L 360.000 204.641Z" /><path d="M 340.060 178.469L 340.493 196.368L 360.000 186.847Z" /><path d="M 340.263 160.623L 340.060 178.469L 360.000 169.075Z" /><path d="M 341.004 142.225L 340.263 160.623L 360.000 151.007Z" /><path d="M 341.753 122.895L 341.004 142.225L 360.000 132.089Z" /><path d="M 341.792 103.031L 341.753 122.895L 360.000 112.383Z" /><path d="M 341.563 83.174L 341.792 103.031L 360.000 92.244Z" /><path d="M 341.487 62.890L 341.563 83.174L 360.000 71.710Z" /><path d="M 341.561 41.503L 341.487 62.890L 360.000 50.066Z" /><path d="M 340.940 19.060L 341.561 41.503L 360.000 26.457Z" /><path d="M 333.543 0.000L 340.940 19.060L 360.000 0.000Z" /><path d="M 183.160 79.469L 193.992 89.732L 207.167 79.138Z" /><path d="M 183.160 79.469L 184.725 103.910L 193.992 89.732Z" /><path d="M 270.268 166.008L 280.531 176.840L 280.862 152.833Z" /><path d="M 270.268 166.008L 256.090 175.275L 280.531 176.840Z" /></svg>