<?xml version="1.0" encoding="utf-8" standalone="no"?>
<!DOCTYPE svg PUBLIC "-//W3C//DTD SVG 1.1//EN"
  "http://www.w3.org/Graphics/SVG/1.1/DTD/svg11.dtd">
<!-- Created with matplotlib (https://matplotlib.org/) -->
<svg height="481.68pt" version="1.1" viewBox="0 0 983.52 481.68" width="983.52pt" xmlns="http://www.w3.org/2000/svg" xmlns:xlink="http://www.w3.org/1999/xlink">
 <metadata>
  <rdf:RDF xmlns:cc="http://creativecommons.org/ns#" xmlns:dc="http://purl.org/dc/elements/1.1/" xmlns:rdf="http://www.w3.org/1999/02/22-rdf-syntax-ns#">
   <cc:Work>
    <dc:type rdf:resource="http://purl.org/dc/dcmitype/StillImage"/>
    <dc:date>2020-09-23T17:20:57.047065</dc:date>
    <dc:format>image/svg+xml</dc:format>
    <dc:creator>
     <cc:Agent>
      <dc:title>Matplotlib v3.3.0, https://matplotlib.org/</dc:title>
     </cc:Agent>
    </dc:creator>
   </cc:Work>
  </rdf:RDF>
 </metadata>
 <defs>
  <style type="text/css">*{stroke-linecap:butt;stroke-linejoin:round;}</style>
 </defs>
 <g id="figure_1">
  <g id="patch_1">
   <path d="M 0 481.68 
L 983.52 481.68 
L 983.52 0 
L 0 0 
z
" style="fill:#ffffff;"/>
  </g>
  <g id="axes_1">
   <g id="patch_2">
    <path d="M 54.9815 444.264655 
L 297.105 444.264655 
L 297.105 32.695855 
L 54.9815 32.695855 
z
" style="fill:#eaeaf2;"/>
   </g>
   <g id="matplotlib.axis_1">
    <g id="xtick_1">
     <g id="line2d_1">
      <path clip-path="url(#p4d7ca10710)" d="M 65.987114 444.264655 
L 65.987114 32.695855 
" style="fill:none;stroke:#ffffff;stroke-linecap:round;"/>
     </g>
     <g id="line2d_2"/>
     <g id="text_1">
      <!-- 0 -->
      <g style="fill:#262626;" transform="translate(62.372504 460.569811)scale(0.13 -0.13)">
       <defs>
        <path d="M 4.15625 35.296875 
Q 4.15625 48 6.765625 55.734375 
Q 9.375 63.484375 14.515625 67.671875 
Q 19.671875 71.875 27.484375 71.875 
Q 33.25 71.875 37.59375 69.546875 
Q 41.9375 67.234375 44.765625 62.859375 
Q 47.609375 58.5 49.21875 52.21875 
Q 50.828125 45.953125 50.828125 35.296875 
Q 50.828125 22.703125 48.234375 14.96875 
Q 45.65625 7.234375 40.5 3 
Q 35.359375 -1.21875 27.484375 -1.21875 
Q 17.140625 -1.21875 11.234375 6.203125 
Q 4.15625 15.140625 4.15625 35.296875 
z
M 13.1875 35.296875 
Q 13.1875 17.671875 17.3125 11.828125 
Q 21.4375 6 27.484375 6 
Q 33.546875 6 37.671875 11.859375 
Q 41.796875 17.71875 41.796875 35.296875 
Q 41.796875 52.984375 37.671875 58.78125 
Q 33.546875 64.59375 27.390625 64.59375 
Q 21.34375 64.59375 17.71875 59.46875 
Q 13.1875 52.9375 13.1875 35.296875 
z
" id="ArialMT-48"/>
       </defs>
       <use xlink:href="#ArialMT-48"/>
      </g>
     </g>
    </g>
    <g id="xtick_2">
     <g id="line2d_3">
      <path clip-path="url(#p4d7ca10710)" d="M 112.326539 444.264655 
L 112.326539 32.695855 
" style="fill:none;stroke:#ffffff;stroke-linecap:round;"/>
     </g>
     <g id="line2d_4"/>
     <g id="text_2">
      <!-- 4 -->
      <g style="fill:#262626;" transform="translate(108.71193 460.569811)scale(0.13 -0.13)">
       <defs>
        <path d="M 32.328125 0 
L 32.328125 17.140625 
L 1.265625 17.140625 
L 1.265625 25.203125 
L 33.9375 71.578125 
L 41.109375 71.578125 
L 41.109375 25.203125 
L 50.78125 25.203125 
L 50.78125 17.140625 
L 41.109375 17.140625 
L 41.109375 0 
z
M 32.328125 25.203125 
L 32.328125 57.46875 
L 9.90625 25.203125 
z
" id="ArialMT-52"/>
       </defs>
       <use xlink:href="#ArialMT-52"/>
      </g>
     </g>
    </g>
    <g id="xtick_3">
     <g id="line2d_5">
      <path clip-path="url(#p4d7ca10710)" d="M 158.665965 444.264655 
L 158.665965 32.695855 
" style="fill:none;stroke:#ffffff;stroke-linecap:round;"/>
     </g>
     <g id="line2d_6"/>
     <g id="text_3">
      <!-- 8 -->
      <g style="fill:#262626;" transform="translate(155.051356 460.569811)scale(0.13 -0.13)">
       <defs>
        <path d="M 17.671875 38.8125 
Q 12.203125 40.828125 9.5625 44.53125 
Q 6.9375 48.25 6.9375 53.421875 
Q 6.9375 61.234375 12.546875 66.546875 
Q 18.171875 71.875 27.484375 71.875 
Q 36.859375 71.875 42.578125 66.421875 
Q 48.296875 60.984375 48.296875 53.171875 
Q 48.296875 48.1875 45.671875 44.5 
Q 43.0625 40.828125 37.75 38.8125 
Q 44.34375 36.671875 47.78125 31.875 
Q 51.21875 27.09375 51.21875 20.453125 
Q 51.21875 11.28125 44.71875 5.03125 
Q 38.234375 -1.21875 27.640625 -1.21875 
Q 17.046875 -1.21875 10.546875 5.046875 
Q 4.046875 11.328125 4.046875 20.703125 
Q 4.046875 27.6875 7.59375 32.390625 
Q 11.140625 37.109375 17.671875 38.8125 
z
M 15.921875 53.71875 
Q 15.921875 48.640625 19.1875 45.40625 
Q 22.46875 42.1875 27.6875 42.1875 
Q 32.765625 42.1875 36.015625 45.375 
Q 39.265625 48.578125 39.265625 53.21875 
Q 39.265625 58.0625 35.90625 61.359375 
Q 32.5625 64.65625 27.59375 64.65625 
Q 22.5625 64.65625 19.234375 61.421875 
Q 15.921875 58.203125 15.921875 53.71875 
z
M 13.09375 20.65625 
Q 13.09375 16.890625 14.875 13.375 
Q 16.65625 9.859375 20.171875 7.921875 
Q 23.6875 6 27.734375 6 
Q 34.03125 6 38.125 10.046875 
Q 42.234375 14.109375 42.234375 20.359375 
Q 42.234375 26.703125 38.015625 30.859375 
Q 33.796875 35.015625 27.4375 35.015625 
Q 21.234375 35.015625 17.15625 30.90625 
Q 13.09375 26.8125 13.09375 20.65625 
z
" id="ArialMT-56"/>
       </defs>
       <use xlink:href="#ArialMT-56"/>
      </g>
     </g>
    </g>
    <g id="xtick_4">
     <g id="line2d_7">
      <path clip-path="url(#p4d7ca10710)" d="M 205.005391 444.264655 
L 205.005391 32.695855 
" style="fill:none;stroke:#ffffff;stroke-linecap:round;"/>
     </g>
     <g id="line2d_8"/>
     <g id="text_4">
      <!-- 12 -->
      <g style="fill:#262626;" transform="translate(197.776172 460.569811)scale(0.13 -0.13)">
       <defs>
        <path d="M 37.25 0 
L 28.46875 0 
L 28.46875 56 
Q 25.296875 52.984375 20.140625 49.953125 
Q 14.984375 46.921875 10.890625 45.40625 
L 10.890625 53.90625 
Q 18.265625 57.375 23.78125 62.296875 
Q 29.296875 67.234375 31.59375 71.875 
L 37.25 71.875 
z
" id="ArialMT-49"/>
        <path d="M 50.34375 8.453125 
L 50.34375 0 
L 3.03125 0 
Q 2.9375 3.171875 4.046875 6.109375 
Q 5.859375 10.9375 9.828125 15.625 
Q 13.8125 20.3125 21.34375 26.46875 
Q 33.015625 36.03125 37.109375 41.625 
Q 41.21875 47.21875 41.21875 52.203125 
Q 41.21875 57.421875 37.46875 61 
Q 33.734375 64.59375 27.734375 64.59375 
Q 21.390625 64.59375 17.578125 60.78125 
Q 13.765625 56.984375 13.71875 50.25 
L 4.6875 51.171875 
Q 5.609375 61.28125 11.65625 66.578125 
Q 17.71875 71.875 27.9375 71.875 
Q 38.234375 71.875 44.234375 66.15625 
Q 50.25 60.453125 50.25 52 
Q 50.25 47.703125 48.484375 43.546875 
Q 46.734375 39.40625 42.65625 34.8125 
Q 38.578125 30.21875 29.109375 22.21875 
Q 21.1875 15.578125 18.9375 13.203125 
Q 16.703125 10.84375 15.234375 8.453125 
z
" id="ArialMT-50"/>
       </defs>
       <use xlink:href="#ArialMT-49"/>
       <use x="55.615234" xlink:href="#ArialMT-50"/>
      </g>
     </g>
    </g>
    <g id="xtick_5">
     <g id="line2d_9">
      <path clip-path="url(#p4d7ca10710)" d="M 251.344817 444.264655 
L 251.344817 32.695855 
" style="fill:none;stroke:#ffffff;stroke-linecap:round;"/>
     </g>
     <g id="line2d_10"/>
     <g id="text_5">
      <!-- 16 -->
      <g style="fill:#262626;" transform="translate(244.115598 460.569811)scale(0.13 -0.13)">
       <defs>
        <path d="M 49.75 54.046875 
L 41.015625 53.375 
Q 39.84375 58.546875 37.703125 60.890625 
Q 34.125 64.65625 28.90625 64.65625 
Q 24.703125 64.65625 21.53125 62.3125 
Q 17.390625 59.28125 14.984375 53.46875 
Q 12.59375 47.65625 12.5 36.921875 
Q 15.671875 41.75 20.265625 44.09375 
Q 24.859375 46.4375 29.890625 46.4375 
Q 38.671875 46.4375 44.84375 39.96875 
Q 51.03125 33.5 51.03125 23.25 
Q 51.03125 16.5 48.125 10.71875 
Q 45.21875 4.9375 40.140625 1.859375 
Q 35.0625 -1.21875 28.609375 -1.21875 
Q 17.625 -1.21875 10.6875 6.859375 
Q 3.765625 14.9375 3.765625 33.5 
Q 3.765625 54.25 11.421875 63.671875 
Q 18.109375 71.875 29.4375 71.875 
Q 37.890625 71.875 43.28125 67.140625 
Q 48.6875 62.40625 49.75 54.046875 
z
M 13.875 23.1875 
Q 13.875 18.65625 15.796875 14.5 
Q 17.71875 10.359375 21.1875 8.171875 
Q 24.65625 6 28.46875 6 
Q 34.03125 6 38.03125 10.484375 
Q 42.046875 14.984375 42.046875 22.703125 
Q 42.046875 30.125 38.078125 34.390625 
Q 34.125 38.671875 28.125 38.671875 
Q 22.171875 38.671875 18.015625 34.390625 
Q 13.875 30.125 13.875 23.1875 
z
" id="ArialMT-54"/>
       </defs>
       <use xlink:href="#ArialMT-49"/>
       <use x="55.615234" xlink:href="#ArialMT-54"/>
      </g>
     </g>
    </g>
   </g>
   <g id="matplotlib.axis_2">
    <g id="ytick_1">
     <g id="line2d_11">
      <path clip-path="url(#p4d7ca10710)" d="M 54.9815 419.813514 
L 297.105 419.813514 
" style="fill:none;stroke:#ffffff;stroke-linecap:round;"/>
     </g>
     <g id="line2d_12"/>
     <g id="text_6">
      <!-- 20 -->
      <g style="fill:#262626;" transform="translate(33.523063 424.466092)scale(0.13 -0.13)">
       <use xlink:href="#ArialMT-50"/>
       <use x="55.615234" xlink:href="#ArialMT-48"/>
      </g>
     </g>
    </g>
    <g id="ytick_2">
     <g id="line2d_13">
      <path clip-path="url(#p4d7ca10710)" d="M 54.9815 331.723517 
L 297.105 331.723517 
" style="fill:none;stroke:#ffffff;stroke-linecap:round;"/>
     </g>
     <g id="line2d_14"/>
     <g id="text_7">
      <!-- 21 -->
      <g style="fill:#262626;" transform="translate(33.523063 336.376095)scale(0.13 -0.13)">
       <use xlink:href="#ArialMT-50"/>
       <use x="55.615234" xlink:href="#ArialMT-49"/>
      </g>
     </g>
    </g>
    <g id="ytick_3">
     <g id="line2d_15">
      <path clip-path="url(#p4d7ca10710)" d="M 54.9815 243.633519 
L 297.105 243.633519 
" style="fill:none;stroke:#ffffff;stroke-linecap:round;"/>
     </g>
     <g id="line2d_16"/>
     <g id="text_8">
      <!-- 22 -->
      <g style="fill:#262626;" transform="translate(33.523063 248.286098)scale(0.13 -0.13)">
       <use xlink:href="#ArialMT-50"/>
       <use x="55.615234" xlink:href="#ArialMT-50"/>
      </g>
     </g>
    </g>
    <g id="ytick_4">
     <g id="line2d_17">
      <path clip-path="url(#p4d7ca10710)" d="M 54.9815 155.543522 
L 297.105 155.543522 
" style="fill:none;stroke:#ffffff;stroke-linecap:round;"/>
     </g>
     <g id="line2d_18"/>
     <g id="text_9">
      <!-- 23 -->
      <g style="fill:#262626;" transform="translate(33.523063 160.1961)scale(0.13 -0.13)">
       <defs>
        <path d="M 4.203125 18.890625 
L 12.984375 20.0625 
Q 14.5 12.59375 18.140625 9.296875 
Q 21.78125 6 27 6 
Q 33.203125 6 37.46875 10.296875 
Q 41.75 14.59375 41.75 20.953125 
Q 41.75 27 37.796875 30.921875 
Q 33.84375 34.859375 27.734375 34.859375 
Q 25.25 34.859375 21.53125 33.890625 
L 22.515625 41.609375 
Q 23.390625 41.5 23.921875 41.5 
Q 29.546875 41.5 34.03125 44.421875 
Q 38.53125 47.359375 38.53125 53.46875 
Q 38.53125 58.296875 35.25 61.46875 
Q 31.984375 64.65625 26.8125 64.65625 
Q 21.6875 64.65625 18.265625 61.421875 
Q 14.84375 58.203125 13.875 51.765625 
L 5.078125 53.328125 
Q 6.6875 62.15625 12.390625 67.015625 
Q 18.109375 71.875 26.609375 71.875 
Q 32.46875 71.875 37.390625 69.359375 
Q 42.328125 66.84375 44.9375 62.5 
Q 47.5625 58.15625 47.5625 53.265625 
Q 47.5625 48.640625 45.0625 44.828125 
Q 42.578125 41.015625 37.703125 38.765625 
Q 44.046875 37.3125 47.5625 32.6875 
Q 51.078125 28.078125 51.078125 21.140625 
Q 51.078125 11.765625 44.234375 5.25 
Q 37.40625 -1.265625 26.953125 -1.265625 
Q 17.53125 -1.265625 11.296875 4.34375 
Q 5.078125 9.96875 4.203125 18.890625 
z
" id="ArialMT-51"/>
       </defs>
       <use xlink:href="#ArialMT-50"/>
       <use x="55.615234" xlink:href="#ArialMT-51"/>
      </g>
     </g>
    </g>
    <g id="ytick_5">
     <g id="line2d_19">
      <path clip-path="url(#p4d7ca10710)" d="M 54.9815 67.453525 
L 297.105 67.453525 
" style="fill:none;stroke:#ffffff;stroke-linecap:round;"/>
     </g>
     <g id="line2d_20"/>
     <g id="text_10">
      <!-- 24 -->
      <g style="fill:#262626;" transform="translate(33.523063 72.106103)scale(0.13 -0.13)">
       <use xlink:href="#ArialMT-50"/>
       <use x="55.615234" xlink:href="#ArialMT-52"/>
      </g>
     </g>
    </g>
   </g>
   <g id="line2d_21">
    <path clip-path="url(#p4d7ca10710)" d="M 65.987114 51.403527 
L 77.57197 132.261336 
L 89.156827 201.464838 
L 100.741683 253.067958 
L 112.326539 299.861365 
L 123.911396 337.766491 
L 135.496252 359.648046 
L 147.081109 366.13147 
L 158.665965 374.121232 
L 170.250822 380.904162 
L 181.835678 389.237476 
L 193.420535 393.245571 
L 205.005391 396.86607 
L 216.590248 408.273724 
L 228.175104 411.171885 
L 239.759961 413.77054 
L 251.344817 417.496747 
L 262.929673 419.4083 
L 274.51453 423.495676 
L 286.099386 425.556982 
" style="fill:none;stroke:#4c72b0;stroke-linecap:round;stroke-width:1.75;"/>
   </g>
   <g id="patch_3">
    <path d="M 54.9815 444.264655 
L 54.9815 32.695855 
" style="fill:none;"/>
   </g>
   <g id="patch_4">
    <path d="M 297.105 444.264655 
L 297.105 32.695855 
" style="fill:none;"/>
   </g>
   <g id="patch_5">
    <path d="M 54.9815 444.264655 
L 297.105 444.264655 
" style="fill:none;"/>
   </g>
   <g id="patch_6">
    <path d="M 54.9815 32.695855 
L 297.105 32.695855 
" style="fill:none;"/>
   </g>
   <g id="text_11">
    <!-- mass -->
    <g style="fill:#262626;" transform="translate(160.514344 26.695855)scale(0.13 -0.13)">
     <defs>
      <path d="M 6.59375 0 
L 6.59375 51.859375 
L 14.453125 51.859375 
L 14.453125 44.578125 
Q 16.890625 48.390625 20.9375 50.703125 
Q 25 53.03125 30.171875 53.03125 
Q 35.9375 53.03125 39.625 50.640625 
Q 43.3125 48.25 44.828125 43.953125 
Q 50.984375 53.03125 60.84375 53.03125 
Q 68.5625 53.03125 72.703125 48.75 
Q 76.859375 44.484375 76.859375 35.59375 
L 76.859375 0 
L 68.109375 0 
L 68.109375 32.671875 
Q 68.109375 37.9375 67.25 40.25 
Q 66.40625 42.578125 64.15625 43.984375 
Q 61.921875 45.40625 58.890625 45.40625 
Q 53.421875 45.40625 49.796875 41.765625 
Q 46.1875 38.140625 46.1875 30.125 
L 46.1875 0 
L 37.40625 0 
L 37.40625 33.6875 
Q 37.40625 39.546875 35.25 42.46875 
Q 33.109375 45.40625 28.21875 45.40625 
Q 24.515625 45.40625 21.359375 43.453125 
Q 18.21875 41.5 16.796875 37.734375 
Q 15.375 33.984375 15.375 26.90625 
L 15.375 0 
z
" id="ArialMT-109"/>
      <path d="M 40.4375 6.390625 
Q 35.546875 2.25 31.03125 0.53125 
Q 26.515625 -1.171875 21.34375 -1.171875 
Q 12.796875 -1.171875 8.203125 3 
Q 3.609375 7.171875 3.609375 13.671875 
Q 3.609375 17.484375 5.34375 20.625 
Q 7.078125 23.78125 9.890625 25.6875 
Q 12.703125 27.59375 16.21875 28.5625 
Q 18.796875 29.25 24.03125 29.890625 
Q 34.671875 31.15625 39.703125 32.90625 
Q 39.75 34.71875 39.75 35.203125 
Q 39.75 40.578125 37.25 42.78125 
Q 33.890625 45.75 27.25 45.75 
Q 21.046875 45.75 18.09375 43.578125 
Q 15.140625 41.40625 13.71875 35.890625 
L 5.125 37.0625 
Q 6.296875 42.578125 8.984375 45.96875 
Q 11.671875 49.359375 16.75 51.1875 
Q 21.828125 53.03125 28.515625 53.03125 
Q 35.15625 53.03125 39.296875 51.46875 
Q 43.453125 49.90625 45.40625 47.53125 
Q 47.359375 45.171875 48.140625 41.546875 
Q 48.578125 39.3125 48.578125 33.453125 
L 48.578125 21.734375 
Q 48.578125 9.46875 49.140625 6.21875 
Q 49.703125 2.984375 51.375 0 
L 42.1875 0 
Q 40.828125 2.734375 40.4375 6.390625 
z
M 39.703125 26.03125 
Q 34.90625 24.078125 25.34375 22.703125 
Q 19.921875 21.921875 17.671875 20.9375 
Q 15.4375 19.96875 14.203125 18.09375 
Q 12.984375 16.21875 12.984375 13.921875 
Q 12.984375 10.40625 15.640625 8.0625 
Q 18.3125 5.71875 23.4375 5.71875 
Q 28.515625 5.71875 32.46875 7.9375 
Q 36.421875 10.15625 38.28125 14.015625 
Q 39.703125 17 39.703125 22.796875 
z
" id="ArialMT-97"/>
      <path d="M 3.078125 15.484375 
L 11.765625 16.84375 
Q 12.5 11.625 15.84375 8.84375 
Q 19.1875 6.0625 25.203125 6.0625 
Q 31.25 6.0625 34.171875 8.515625 
Q 37.109375 10.984375 37.109375 14.3125 
Q 37.109375 17.28125 34.515625 19 
Q 32.71875 20.171875 25.53125 21.96875 
Q 15.875 24.421875 12.140625 26.203125 
Q 8.40625 27.984375 6.46875 31.125 
Q 4.546875 34.28125 4.546875 38.09375 
Q 4.546875 41.546875 6.125 44.5 
Q 7.71875 47.46875 10.453125 49.421875 
Q 12.5 50.921875 16.03125 51.96875 
Q 19.578125 53.03125 23.640625 53.03125 
Q 29.734375 53.03125 34.34375 51.265625 
Q 38.96875 49.515625 41.15625 46.5 
Q 43.359375 43.5 44.1875 38.484375 
L 35.59375 37.3125 
Q 35.015625 41.3125 32.203125 43.546875 
Q 29.390625 45.796875 24.265625 45.796875 
Q 18.21875 45.796875 15.625 43.796875 
Q 13.03125 41.796875 13.03125 39.109375 
Q 13.03125 37.40625 14.109375 36.03125 
Q 15.1875 34.625 17.484375 33.6875 
Q 18.796875 33.203125 25.25 31.453125 
Q 34.578125 28.953125 38.25 27.359375 
Q 41.9375 25.78125 44.03125 22.75 
Q 46.140625 19.734375 46.140625 15.234375 
Q 46.140625 10.84375 43.578125 6.953125 
Q 41.015625 3.078125 36.171875 0.953125 
Q 31.34375 -1.171875 25.25 -1.171875 
Q 15.140625 -1.171875 9.84375 3.03125 
Q 4.546875 7.234375 3.078125 15.484375 
z
" id="ArialMT-115"/>
     </defs>
     <use xlink:href="#ArialMT-109"/>
     <use x="83.300781" xlink:href="#ArialMT-97"/>
     <use x="138.916016" xlink:href="#ArialMT-115"/>
     <use x="188.916016" xlink:href="#ArialMT-115"/>
    </g>
   </g>
   <g id="legend_1">
    <g id="line2d_22">
     <path d="M 253.349063 46.619448 
L 275.349063 46.619448 
" style="fill:none;stroke:#4c72b0;stroke-linecap:round;stroke-width:1.75;"/>
    </g>
    <g id="line2d_23"/>
    <g id="text_12">
     <!-- f -->
     <g style="fill:#262626;" transform="translate(284.149063 50.469448)scale(0.11 -0.11)">
      <defs>
       <path d="M 8.6875 0 
L 8.6875 45.015625 
L 0.921875 45.015625 
L 0.921875 51.859375 
L 8.6875 51.859375 
L 8.6875 57.375 
Q 8.6875 62.59375 9.625 65.140625 
Q 10.890625 68.5625 14.078125 70.671875 
Q 17.28125 72.796875 23.046875 72.796875 
Q 26.765625 72.796875 31.25 71.921875 
L 29.9375 64.265625 
Q 27.203125 64.75 24.75 64.75 
Q 20.75 64.75 19.09375 63.03125 
Q 17.4375 61.328125 17.4375 56.640625 
L 17.4375 51.859375 
L 27.546875 51.859375 
L 27.546875 45.015625 
L 17.4375 45.015625 
L 17.4375 0 
z
" id="ArialMT-102"/>
      </defs>
      <use xlink:href="#ArialMT-102"/>
     </g>
    </g>
   </g>
  </g>
  <g id="axes_2">
   <g id="patch_7">
    <path d="M 388.9685 209.993018 
L 631.092 209.993018 
L 631.092 32.695855 
L 388.9685 32.695855 
z
" style="fill:#eaeaf2;"/>
   </g>
   <g id="matplotlib.axis_3">
    <g id="xtick_6">
     <g id="line2d_24">
      <path clip-path="url(#p4c7ad6aa41)" d="M 399.974114 209.993018 
L 399.974114 32.695855 
" style="fill:none;stroke:#ffffff;stroke-linecap:round;"/>
     </g>
     <g id="line2d_25"/>
     <g id="text_13">
      <!-- 0 -->
      <g style="fill:#262626;" transform="translate(396.359504 226.298174)scale(0.13 -0.13)">
       <use xlink:href="#ArialMT-48"/>
      </g>
     </g>
    </g>
    <g id="xtick_7">
     <g id="line2d_26">
      <path clip-path="url(#p4c7ad6aa41)" d="M 446.313539 209.993018 
L 446.313539 32.695855 
" style="fill:none;stroke:#ffffff;stroke-linecap:round;"/>
     </g>
     <g id="line2d_27"/>
     <g id="text_14">
      <!-- 4 -->
      <g style="fill:#262626;" transform="translate(442.69893 226.298174)scale(0.13 -0.13)">
       <use xlink:href="#ArialMT-52"/>
      </g>
     </g>
    </g>
    <g id="xtick_8">
     <g id="line2d_28">
      <path clip-path="url(#p4c7ad6aa41)" d="M 492.652965 209.993018 
L 492.652965 32.695855 
" style="fill:none;stroke:#ffffff;stroke-linecap:round;"/>
     </g>
     <g id="line2d_29"/>
     <g id="text_15">
      <!-- 8 -->
      <g style="fill:#262626;" transform="translate(489.038356 226.298174)scale(0.13 -0.13)">
       <use xlink:href="#ArialMT-56"/>
      </g>
     </g>
    </g>
    <g id="xtick_9">
     <g id="line2d_30">
      <path clip-path="url(#p4c7ad6aa41)" d="M 538.992391 209.993018 
L 538.992391 32.695855 
" style="fill:none;stroke:#ffffff;stroke-linecap:round;"/>
     </g>
     <g id="line2d_31"/>
     <g id="text_16">
      <!-- 12 -->
      <g style="fill:#262626;" transform="translate(531.763172 226.298174)scale(0.13 -0.13)">
       <use xlink:href="#ArialMT-49"/>
       <use x="55.615234" xlink:href="#ArialMT-50"/>
      </g>
     </g>
    </g>
    <g id="xtick_10">
     <g id="line2d_32">
      <path clip-path="url(#p4c7ad6aa41)" d="M 585.331817 209.993018 
L 585.331817 32.695855 
" style="fill:none;stroke:#ffffff;stroke-linecap:round;"/>
     </g>
     <g id="line2d_33"/>
     <g id="text_17">
      <!-- 16 -->
      <g style="fill:#262626;" transform="translate(578.102598 226.298174)scale(0.13 -0.13)">
       <use xlink:href="#ArialMT-49"/>
       <use x="55.615234" xlink:href="#ArialMT-54"/>
      </g>
     </g>
    </g>
   </g>
   <g id="matplotlib.axis_4">
    <g id="ytick_6">
     <g id="line2d_34">
      <path clip-path="url(#p4c7ad6aa41)" d="M 388.9685 198.729371 
L 631.092 198.729371 
" style="fill:none;stroke:#ffffff;stroke-linecap:round;"/>
     </g>
     <g id="line2d_35"/>
     <g id="text_18">
      <!-- 7790 -->
      <g style="fill:#262626;" transform="translate(353.051625 203.381949)scale(0.13 -0.13)">
       <defs>
        <path d="M 4.734375 62.203125 
L 4.734375 70.65625 
L 51.078125 70.65625 
L 51.078125 63.8125 
Q 44.234375 56.546875 37.515625 44.484375 
Q 30.8125 32.421875 27.15625 19.671875 
Q 24.515625 10.6875 23.78125 0 
L 14.75 0 
Q 14.890625 8.453125 18.0625 20.40625 
Q 21.234375 32.375 27.171875 43.484375 
Q 33.109375 54.59375 39.796875 62.203125 
z
" id="ArialMT-55"/>
        <path d="M 5.46875 16.546875 
L 13.921875 17.328125 
Q 14.984375 11.375 18.015625 8.6875 
Q 21.046875 6 25.78125 6 
Q 29.828125 6 32.875 7.859375 
Q 35.9375 9.71875 37.890625 12.8125 
Q 39.84375 15.921875 41.15625 21.1875 
Q 42.484375 26.46875 42.484375 31.9375 
Q 42.484375 32.515625 42.4375 33.6875 
Q 39.796875 29.5 35.234375 26.875 
Q 30.671875 24.265625 25.34375 24.265625 
Q 16.453125 24.265625 10.296875 30.703125 
Q 4.15625 37.15625 4.15625 47.703125 
Q 4.15625 58.59375 10.578125 65.234375 
Q 17 71.875 26.65625 71.875 
Q 33.640625 71.875 39.421875 68.109375 
Q 45.21875 64.359375 48.21875 57.390625 
Q 51.21875 50.4375 51.21875 37.25 
Q 51.21875 23.53125 48.234375 15.40625 
Q 45.265625 7.28125 39.375 3.03125 
Q 33.5 -1.21875 25.59375 -1.21875 
Q 17.1875 -1.21875 11.859375 3.4375 
Q 6.546875 8.109375 5.46875 16.546875 
z
M 41.453125 48.140625 
Q 41.453125 55.71875 37.421875 60.15625 
Q 33.40625 64.59375 27.734375 64.59375 
Q 21.875 64.59375 17.53125 59.8125 
Q 13.1875 55.03125 13.1875 47.40625 
Q 13.1875 40.578125 17.3125 36.296875 
Q 21.4375 32.03125 27.484375 32.03125 
Q 33.59375 32.03125 37.515625 36.296875 
Q 41.453125 40.578125 41.453125 48.140625 
z
" id="ArialMT-57"/>
       </defs>
       <use xlink:href="#ArialMT-55"/>
       <use x="55.615234" xlink:href="#ArialMT-55"/>
       <use x="111.230469" xlink:href="#ArialMT-57"/>
       <use x="166.845703" xlink:href="#ArialMT-48"/>
      </g>
     </g>
    </g>
    <g id="ytick_7">
     <g id="line2d_36">
      <path clip-path="url(#p4c7ad6aa41)" d="M 388.9685 157.643661 
L 631.092 157.643661 
" style="fill:none;stroke:#ffffff;stroke-linecap:round;"/>
     </g>
     <g id="line2d_37"/>
     <g id="text_19">
      <!-- 7800 -->
      <g style="fill:#262626;" transform="translate(353.051625 162.296239)scale(0.13 -0.13)">
       <use xlink:href="#ArialMT-55"/>
       <use x="55.615234" xlink:href="#ArialMT-56"/>
       <use x="111.230469" xlink:href="#ArialMT-48"/>
       <use x="166.845703" xlink:href="#ArialMT-48"/>
      </g>
     </g>
    </g>
    <g id="ytick_8">
     <g id="line2d_38">
      <path clip-path="url(#p4c7ad6aa41)" d="M 388.9685 116.557951 
L 631.092 116.557951 
" style="fill:none;stroke:#ffffff;stroke-linecap:round;"/>
     </g>
     <g id="line2d_39"/>
     <g id="text_20">
      <!-- 7810 -->
      <g style="fill:#262626;" transform="translate(353.051625 121.210529)scale(0.13 -0.13)">
       <use xlink:href="#ArialMT-55"/>
       <use x="55.615234" xlink:href="#ArialMT-56"/>
       <use x="111.230469" xlink:href="#ArialMT-49"/>
       <use x="166.845703" xlink:href="#ArialMT-48"/>
      </g>
     </g>
    </g>
    <g id="ytick_9">
     <g id="line2d_40">
      <path clip-path="url(#p4c7ad6aa41)" d="M 388.9685 75.472241 
L 631.092 75.472241 
" style="fill:none;stroke:#ffffff;stroke-linecap:round;"/>
     </g>
     <g id="line2d_41"/>
     <g id="text_21">
      <!-- 7820 -->
      <g style="fill:#262626;" transform="translate(353.051625 80.124819)scale(0.13 -0.13)">
       <use xlink:href="#ArialMT-55"/>
       <use x="55.615234" xlink:href="#ArialMT-56"/>
       <use x="111.230469" xlink:href="#ArialMT-50"/>
       <use x="166.845703" xlink:href="#ArialMT-48"/>
      </g>
     </g>
    </g>
    <g id="ytick_10">
     <g id="line2d_42">
      <path clip-path="url(#p4c7ad6aa41)" d="M 388.9685 34.386532 
L 631.092 34.386532 
" style="fill:none;stroke:#ffffff;stroke-linecap:round;"/>
     </g>
     <g id="line2d_43"/>
     <g id="text_22">
      <!-- 7830 -->
      <g style="fill:#262626;" transform="translate(353.051625 39.03911)scale(0.13 -0.13)">
       <use xlink:href="#ArialMT-55"/>
       <use x="55.615234" xlink:href="#ArialMT-56"/>
       <use x="111.230469" xlink:href="#ArialMT-51"/>
       <use x="166.845703" xlink:href="#ArialMT-48"/>
      </g>
     </g>
    </g>
   </g>
   <g id="line2d_44">
    <path clip-path="url(#p4c7ad6aa41)" d="M 399.974114 201.934056 
L 411.55897 78.800184 
L 423.143827 40.754817 
L 434.728683 75.96527 
L 446.313539 85.332812 
L 457.898396 111.87418 
L 469.483252 130.157321 
L 481.068109 154.521147 
L 492.652965 166.641431 
L 504.237822 159.328175 
L 515.822678 142.400863 
L 527.407535 161.177032 
L 538.992391 188.170343 
L 550.577248 153.699433 
L 562.162104 162.615032 
L 573.746961 161.135946 
L 585.331817 160.026632 
L 596.916673 163.436746 
L 608.50153 156.904118 
L 620.086386 164.299546 
" style="fill:none;stroke:#4c72b0;stroke-linecap:round;stroke-width:1.75;"/>
   </g>
   <g id="line2d_45">
    <path clip-path="url(#p4c7ad6aa41)" d="M 399.974114 201.934056 
L 411.55897 201.934056 
L 423.143827 201.934056 
L 434.728683 201.934056 
L 446.313539 201.934056 
L 457.898396 201.934056 
L 469.483252 201.934056 
L 481.068109 201.934056 
L 492.652965 201.934056 
L 504.237822 201.934056 
L 515.822678 201.934056 
L 527.407535 201.934056 
L 538.992391 201.934056 
L 550.577248 201.934056 
L 562.162104 201.934056 
L 573.746961 201.934056 
L 585.331817 201.934056 
L 596.916673 201.934056 
L 608.50153 201.934056 
L 620.086386 201.934056 
" style="fill:none;stroke:#55a868;stroke-linecap:round;stroke-width:1.75;"/>
   </g>
   <g id="patch_8">
    <path d="M 388.9685 209.993018 
L 388.9685 32.695855 
" style="fill:none;"/>
   </g>
   <g id="patch_9">
    <path d="M 631.092 209.993018 
L 631.092 32.695855 
" style="fill:none;"/>
   </g>
   <g id="patch_10">
    <path d="M 388.9685 209.993018 
L 631.092 209.993018 
" style="fill:none;"/>
   </g>
   <g id="patch_11">
    <path d="M 388.9685 32.695855 
L 631.092 32.695855 
" style="fill:none;"/>
   </g>
   <g id="text_23">
    <!-- strain energy: main load -->
    <g style="fill:#262626;" transform="translate(440.665094 26.695855)scale(0.13 -0.13)">
     <defs>
      <path d="M 25.78125 7.859375 
L 27.046875 0.09375 
Q 23.34375 -0.6875 20.40625 -0.6875 
Q 15.625 -0.6875 12.984375 0.828125 
Q 10.359375 2.34375 9.28125 4.8125 
Q 8.203125 7.28125 8.203125 15.1875 
L 8.203125 45.015625 
L 1.765625 45.015625 
L 1.765625 51.859375 
L 8.203125 51.859375 
L 8.203125 64.703125 
L 16.9375 69.96875 
L 16.9375 51.859375 
L 25.78125 51.859375 
L 25.78125 45.015625 
L 16.9375 45.015625 
L 16.9375 14.703125 
Q 16.9375 10.9375 17.40625 9.859375 
Q 17.875 8.796875 18.921875 8.15625 
Q 19.96875 7.515625 21.921875 7.515625 
Q 23.390625 7.515625 25.78125 7.859375 
z
" id="ArialMT-116"/>
      <path d="M 6.5 0 
L 6.5 51.859375 
L 14.40625 51.859375 
L 14.40625 44 
Q 17.4375 49.515625 20 51.265625 
Q 22.5625 53.03125 25.640625 53.03125 
Q 30.078125 53.03125 34.671875 50.203125 
L 31.640625 42.046875 
Q 28.421875 43.953125 25.203125 43.953125 
Q 22.3125 43.953125 20.015625 42.21875 
Q 17.71875 40.484375 16.75 37.40625 
Q 15.28125 32.71875 15.28125 27.15625 
L 15.28125 0 
z
" id="ArialMT-114"/>
      <path d="M 6.640625 61.46875 
L 6.640625 71.578125 
L 15.4375 71.578125 
L 15.4375 61.46875 
z
M 6.640625 0 
L 6.640625 51.859375 
L 15.4375 51.859375 
L 15.4375 0 
z
" id="ArialMT-105"/>
      <path d="M 6.59375 0 
L 6.59375 51.859375 
L 14.5 51.859375 
L 14.5 44.484375 
Q 20.21875 53.03125 31 53.03125 
Q 35.6875 53.03125 39.625 51.34375 
Q 43.5625 49.65625 45.515625 46.921875 
Q 47.46875 44.1875 48.25 40.4375 
Q 48.734375 37.984375 48.734375 31.890625 
L 48.734375 0 
L 39.9375 0 
L 39.9375 31.546875 
Q 39.9375 36.921875 38.90625 39.578125 
Q 37.890625 42.234375 35.28125 43.8125 
Q 32.671875 45.40625 29.15625 45.40625 
Q 23.53125 45.40625 19.453125 41.84375 
Q 15.375 38.28125 15.375 28.328125 
L 15.375 0 
z
" id="ArialMT-110"/>
      <path id="ArialMT-32"/>
      <path d="M 42.09375 16.703125 
L 51.171875 15.578125 
Q 49.03125 7.625 43.21875 3.21875 
Q 37.40625 -1.171875 28.375 -1.171875 
Q 17 -1.171875 10.328125 5.828125 
Q 3.65625 12.84375 3.65625 25.484375 
Q 3.65625 38.578125 10.390625 45.796875 
Q 17.140625 53.03125 27.875 53.03125 
Q 38.28125 53.03125 44.875 45.953125 
Q 51.46875 38.875 51.46875 26.03125 
Q 51.46875 25.25 51.421875 23.6875 
L 12.75 23.6875 
Q 13.234375 15.140625 17.578125 10.59375 
Q 21.921875 6.0625 28.421875 6.0625 
Q 33.25 6.0625 36.671875 8.59375 
Q 40.09375 11.140625 42.09375 16.703125 
z
M 13.234375 30.90625 
L 42.1875 30.90625 
Q 41.609375 37.453125 38.875 40.71875 
Q 34.671875 45.796875 27.984375 45.796875 
Q 21.921875 45.796875 17.796875 41.75 
Q 13.671875 37.703125 13.234375 30.90625 
z
" id="ArialMT-101"/>
      <path d="M 4.984375 -4.296875 
L 13.53125 -5.5625 
Q 14.0625 -9.515625 16.5 -11.328125 
Q 19.78125 -13.765625 25.4375 -13.765625 
Q 31.546875 -13.765625 34.859375 -11.328125 
Q 38.1875 -8.890625 39.359375 -4.5 
Q 40.046875 -1.8125 39.984375 6.78125 
Q 34.234375 0 25.640625 0 
Q 14.9375 0 9.078125 7.71875 
Q 3.21875 15.4375 3.21875 26.21875 
Q 3.21875 33.640625 5.90625 39.90625 
Q 8.59375 46.1875 13.6875 49.609375 
Q 18.796875 53.03125 25.6875 53.03125 
Q 34.859375 53.03125 40.828125 45.609375 
L 40.828125 51.859375 
L 48.921875 51.859375 
L 48.921875 7.03125 
Q 48.921875 -5.078125 46.453125 -10.125 
Q 44 -15.1875 38.640625 -18.109375 
Q 33.296875 -21.046875 25.484375 -21.046875 
Q 16.21875 -21.046875 10.5 -16.875 
Q 4.78125 -12.703125 4.984375 -4.296875 
z
M 12.25 26.859375 
Q 12.25 16.65625 16.296875 11.96875 
Q 20.359375 7.28125 26.46875 7.28125 
Q 32.515625 7.28125 36.609375 11.9375 
Q 40.71875 16.609375 40.71875 26.5625 
Q 40.71875 36.078125 36.5 40.90625 
Q 32.28125 45.75 26.3125 45.75 
Q 20.453125 45.75 16.34375 40.984375 
Q 12.25 36.234375 12.25 26.859375 
z
" id="ArialMT-103"/>
      <path d="M 6.203125 -19.96875 
L 5.21875 -11.71875 
Q 8.109375 -12.5 10.25 -12.5 
Q 13.1875 -12.5 14.9375 -11.515625 
Q 16.703125 -10.546875 17.828125 -8.796875 
Q 18.65625 -7.46875 20.515625 -2.25 
Q 20.75 -1.515625 21.296875 -0.09375 
L 1.609375 51.859375 
L 11.078125 51.859375 
L 21.875 21.828125 
Q 23.96875 16.109375 25.640625 9.8125 
Q 27.15625 15.875 29.25 21.625 
L 40.328125 51.859375 
L 49.125 51.859375 
L 29.390625 -0.875 
Q 26.21875 -9.421875 24.46875 -12.640625 
Q 22.125 -17 19.09375 -19.015625 
Q 16.0625 -21.046875 11.859375 -21.046875 
Q 9.328125 -21.046875 6.203125 -19.96875 
z
" id="ArialMT-121"/>
      <path d="M 9.03125 41.84375 
L 9.03125 51.859375 
L 19.046875 51.859375 
L 19.046875 41.84375 
z
M 9.03125 0 
L 9.03125 10.015625 
L 19.046875 10.015625 
L 19.046875 0 
z
" id="ArialMT-58"/>
      <path d="M 6.390625 0 
L 6.390625 71.578125 
L 15.1875 71.578125 
L 15.1875 0 
z
" id="ArialMT-108"/>
      <path d="M 3.328125 25.921875 
Q 3.328125 40.328125 11.328125 47.265625 
Q 18.015625 53.03125 27.640625 53.03125 
Q 38.328125 53.03125 45.109375 46.015625 
Q 51.90625 39.015625 51.90625 26.65625 
Q 51.90625 16.65625 48.90625 10.90625 
Q 45.90625 5.171875 40.15625 2 
Q 34.421875 -1.171875 27.640625 -1.171875 
Q 16.75 -1.171875 10.03125 5.8125 
Q 3.328125 12.796875 3.328125 25.921875 
z
M 12.359375 25.921875 
Q 12.359375 15.96875 16.703125 11.015625 
Q 21.046875 6.0625 27.640625 6.0625 
Q 34.1875 6.0625 38.53125 11.03125 
Q 42.875 16.015625 42.875 26.21875 
Q 42.875 35.84375 38.5 40.796875 
Q 34.125 45.75 27.640625 45.75 
Q 21.046875 45.75 16.703125 40.8125 
Q 12.359375 35.890625 12.359375 25.921875 
z
" id="ArialMT-111"/>
      <path d="M 40.234375 0 
L 40.234375 6.546875 
Q 35.296875 -1.171875 25.734375 -1.171875 
Q 19.53125 -1.171875 14.328125 2.25 
Q 9.125 5.671875 6.265625 11.796875 
Q 3.421875 17.921875 3.421875 25.875 
Q 3.421875 33.640625 6 39.96875 
Q 8.59375 46.296875 13.765625 49.65625 
Q 18.953125 53.03125 25.34375 53.03125 
Q 30.03125 53.03125 33.6875 51.046875 
Q 37.359375 49.078125 39.65625 45.90625 
L 39.65625 71.578125 
L 48.390625 71.578125 
L 48.390625 0 
z
M 12.453125 25.875 
Q 12.453125 15.921875 16.640625 10.984375 
Q 20.84375 6.0625 26.5625 6.0625 
Q 32.328125 6.0625 36.34375 10.765625 
Q 40.375 15.484375 40.375 25.140625 
Q 40.375 35.796875 36.265625 40.765625 
Q 32.171875 45.75 26.171875 45.75 
Q 20.3125 45.75 16.375 40.96875 
Q 12.453125 36.1875 12.453125 25.875 
z
" id="ArialMT-100"/>
     </defs>
     <use xlink:href="#ArialMT-115"/>
     <use x="50" xlink:href="#ArialMT-116"/>
     <use x="77.783203" xlink:href="#ArialMT-114"/>
     <use x="111.083984" xlink:href="#ArialMT-97"/>
     <use x="166.699219" xlink:href="#ArialMT-105"/>
     <use x="188.916016" xlink:href="#ArialMT-110"/>
     <use x="244.53125" xlink:href="#ArialMT-32"/>
     <use x="272.314453" xlink:href="#ArialMT-101"/>
     <use x="327.929688" xlink:href="#ArialMT-110"/>
     <use x="383.544922" xlink:href="#ArialMT-101"/>
     <use x="439.160156" xlink:href="#ArialMT-114"/>
     <use x="472.460938" xlink:href="#ArialMT-103"/>
     <use x="528.076172" xlink:href="#ArialMT-121"/>
     <use x="578.076172" xlink:href="#ArialMT-58"/>
     <use x="605.859375" xlink:href="#ArialMT-32"/>
     <use x="633.642578" xlink:href="#ArialMT-109"/>
     <use x="716.943359" xlink:href="#ArialMT-97"/>
     <use x="772.558594" xlink:href="#ArialMT-105"/>
     <use x="794.775391" xlink:href="#ArialMT-110"/>
     <use x="850.390625" xlink:href="#ArialMT-32"/>
     <use x="878.173828" xlink:href="#ArialMT-108"/>
     <use x="900.390625" xlink:href="#ArialMT-111"/>
     <use x="956.005859" xlink:href="#ArialMT-97"/>
     <use x="1011.621094" xlink:href="#ArialMT-100"/>
    </g>
   </g>
   <g id="legend_2">
    <g id="line2d_46">
     <path d="M 559.813719 46.619448 
L 581.813719 46.619448 
" style="fill:none;stroke:#4c72b0;stroke-linecap:round;stroke-width:1.75;"/>
    </g>
    <g id="line2d_47"/>
    <g id="text_24">
     <!-- c1: &lt;= -->
     <g style="fill:#262626;" transform="translate(590.613719 50.469448)scale(0.11 -0.11)">
      <defs>
       <path d="M 40.4375 19 
L 49.078125 17.875 
Q 47.65625 8.9375 41.8125 3.875 
Q 35.984375 -1.171875 27.484375 -1.171875 
Q 16.84375 -1.171875 10.375 5.78125 
Q 3.90625 12.75 3.90625 25.734375 
Q 3.90625 34.125 6.6875 40.421875 
Q 9.46875 46.734375 15.15625 49.875 
Q 20.84375 53.03125 27.546875 53.03125 
Q 35.984375 53.03125 41.359375 48.75 
Q 46.734375 44.484375 48.25 36.625 
L 39.703125 35.296875 
Q 38.484375 40.53125 35.375 43.15625 
Q 32.28125 45.796875 27.875 45.796875 
Q 21.234375 45.796875 17.078125 41.03125 
Q 12.9375 36.28125 12.9375 25.984375 
Q 12.9375 15.53125 16.9375 10.796875 
Q 20.953125 6.0625 27.390625 6.0625 
Q 32.5625 6.0625 36.03125 9.234375 
Q 39.5 12.40625 40.4375 19 
z
" id="ArialMT-99"/>
       <path d="M 5.46875 31.296875 
L 5.46875 39.5 
L 52.875 59.515625 
L 52.875 50.78125 
L 15.28125 35.359375 
L 52.875 19.78125 
L 52.875 11.03125 
z
" id="ArialMT-60"/>
       <path d="M 52.828125 42.09375 
L 5.5625 42.09375 
L 5.5625 50.296875 
L 52.828125 50.296875 
z
M 52.828125 20.359375 
L 5.5625 20.359375 
L 5.5625 28.5625 
L 52.828125 28.5625 
z
" id="ArialMT-61"/>
      </defs>
      <use xlink:href="#ArialMT-99"/>
      <use x="50" xlink:href="#ArialMT-49"/>
      <use x="105.615234" xlink:href="#ArialMT-58"/>
      <use x="133.398438" xlink:href="#ArialMT-32"/>
      <use x="161.181641" xlink:href="#ArialMT-60"/>
      <use x="219.580078" xlink:href="#ArialMT-61"/>
     </g>
    </g>
    <g id="line2d_48">
     <path d="M 559.813719 62.313355 
L 581.813719 62.313355 
" style="fill:none;stroke:#55a868;stroke-linecap:round;stroke-width:1.75;"/>
    </g>
    <g id="line2d_49"/>
    <g id="text_25">
     <!-- c1_ref -->
     <g style="fill:#262626;" transform="translate(590.613719 66.163355)scale(0.11 -0.11)">
      <defs>
       <path d="M -1.515625 -19.875 
L -1.515625 -13.53125 
L 56.734375 -13.53125 
L 56.734375 -19.875 
z
" id="ArialMT-95"/>
      </defs>
      <use xlink:href="#ArialMT-99"/>
      <use x="50" xlink:href="#ArialMT-49"/>
      <use x="105.615234" xlink:href="#ArialMT-95"/>
      <use x="161.230469" xlink:href="#ArialMT-114"/>
      <use x="194.53125" xlink:href="#ArialMT-101"/>
      <use x="250.146484" xlink:href="#ArialMT-102"/>
     </g>
    </g>
   </g>
  </g>
  <g id="axes_3">
   <g id="patch_12">
    <path d="M 722.9555 209.993018 
L 965.079 209.993018 
L 965.079 32.695855 
L 722.9555 32.695855 
z
" style="fill:#eaeaf2;"/>
   </g>
   <g id="matplotlib.axis_5">
    <g id="xtick_11">
     <g id="line2d_50">
      <path clip-path="url(#p45f157a32c)" d="M 733.961114 209.993018 
L 733.961114 32.695855 
" style="fill:none;stroke:#ffffff;stroke-linecap:round;"/>
     </g>
     <g id="line2d_51"/>
     <g id="text_26">
      <!-- 0 -->
      <g style="fill:#262626;" transform="translate(730.346504 226.298174)scale(0.13 -0.13)">
       <use xlink:href="#ArialMT-48"/>
      </g>
     </g>
    </g>
    <g id="xtick_12">
     <g id="line2d_52">
      <path clip-path="url(#p45f157a32c)" d="M 780.300539 209.993018 
L 780.300539 32.695855 
" style="fill:none;stroke:#ffffff;stroke-linecap:round;"/>
     </g>
     <g id="line2d_53"/>
     <g id="text_27">
      <!-- 4 -->
      <g style="fill:#262626;" transform="translate(776.68593 226.298174)scale(0.13 -0.13)">
       <use xlink:href="#ArialMT-52"/>
      </g>
     </g>
    </g>
    <g id="xtick_13">
     <g id="line2d_54">
      <path clip-path="url(#p45f157a32c)" d="M 826.639965 209.993018 
L 826.639965 32.695855 
" style="fill:none;stroke:#ffffff;stroke-linecap:round;"/>
     </g>
     <g id="line2d_55"/>
     <g id="text_28">
      <!-- 8 -->
      <g style="fill:#262626;" transform="translate(823.025356 226.298174)scale(0.13 -0.13)">
       <use xlink:href="#ArialMT-56"/>
      </g>
     </g>
    </g>
    <g id="xtick_14">
     <g id="line2d_56">
      <path clip-path="url(#p45f157a32c)" d="M 872.979391 209.993018 
L 872.979391 32.695855 
" style="fill:none;stroke:#ffffff;stroke-linecap:round;"/>
     </g>
     <g id="line2d_57"/>
     <g id="text_29">
      <!-- 12 -->
      <g style="fill:#262626;" transform="translate(865.750172 226.298174)scale(0.13 -0.13)">
       <use xlink:href="#ArialMT-49"/>
       <use x="55.615234" xlink:href="#ArialMT-50"/>
      </g>
     </g>
    </g>
    <g id="xtick_15">
     <g id="line2d_58">
      <path clip-path="url(#p45f157a32c)" d="M 919.318817 209.993018 
L 919.318817 32.695855 
" style="fill:none;stroke:#ffffff;stroke-linecap:round;"/>
     </g>
     <g id="line2d_59"/>
     <g id="text_30">
      <!-- 16 -->
      <g style="fill:#262626;" transform="translate(912.089598 226.298174)scale(0.13 -0.13)">
       <use xlink:href="#ArialMT-49"/>
       <use x="55.615234" xlink:href="#ArialMT-54"/>
      </g>
     </g>
    </g>
   </g>
   <g id="matplotlib.axis_6">
    <g id="ytick_11">
     <g id="line2d_60">
      <path clip-path="url(#p45f157a32c)" d="M 722.9555 195.569141 
L 965.079 195.569141 
" style="fill:none;stroke:#ffffff;stroke-linecap:round;"/>
     </g>
     <g id="line2d_61"/>
     <g id="text_31">
      <!-- 24550 -->
      <g style="fill:#262626;" transform="translate(679.809406 200.221719)scale(0.13 -0.13)">
       <defs>
        <path d="M 4.15625 18.75 
L 13.375 19.53125 
Q 14.40625 12.796875 18.140625 9.390625 
Q 21.875 6 27.15625 6 
Q 33.5 6 37.890625 10.78125 
Q 42.28125 15.578125 42.28125 23.484375 
Q 42.28125 31 38.0625 35.34375 
Q 33.84375 39.703125 27 39.703125 
Q 22.75 39.703125 19.328125 37.765625 
Q 15.921875 35.84375 13.96875 32.765625 
L 5.71875 33.84375 
L 12.640625 70.609375 
L 48.25 70.609375 
L 48.25 62.203125 
L 19.671875 62.203125 
L 15.828125 42.96875 
Q 22.265625 47.46875 29.34375 47.46875 
Q 38.71875 47.46875 45.15625 40.96875 
Q 51.609375 34.46875 51.609375 24.265625 
Q 51.609375 14.546875 45.953125 7.46875 
Q 39.0625 -1.21875 27.15625 -1.21875 
Q 17.390625 -1.21875 11.203125 4.25 
Q 5.03125 9.71875 4.15625 18.75 
z
" id="ArialMT-53"/>
       </defs>
       <use xlink:href="#ArialMT-50"/>
       <use x="55.615234" xlink:href="#ArialMT-52"/>
       <use x="111.230469" xlink:href="#ArialMT-53"/>
       <use x="166.845703" xlink:href="#ArialMT-53"/>
       <use x="222.460938" xlink:href="#ArialMT-48"/>
      </g>
     </g>
    </g>
    <g id="ytick_12">
     <g id="line2d_62">
      <path clip-path="url(#p45f157a32c)" d="M 722.9555 146.608254 
L 965.079 146.608254 
" style="fill:none;stroke:#ffffff;stroke-linecap:round;"/>
     </g>
     <g id="line2d_63"/>
     <g id="text_32">
      <!-- 24600 -->
      <g style="fill:#262626;" transform="translate(679.809406 151.260832)scale(0.13 -0.13)">
       <use xlink:href="#ArialMT-50"/>
       <use x="55.615234" xlink:href="#ArialMT-52"/>
       <use x="111.230469" xlink:href="#ArialMT-54"/>
       <use x="166.845703" xlink:href="#ArialMT-48"/>
       <use x="222.460938" xlink:href="#ArialMT-48"/>
      </g>
     </g>
    </g>
    <g id="ytick_13">
     <g id="line2d_64">
      <path clip-path="url(#p45f157a32c)" d="M 722.9555 97.647367 
L 965.079 97.647367 
" style="fill:none;stroke:#ffffff;stroke-linecap:round;"/>
     </g>
     <g id="line2d_65"/>
     <g id="text_33">
      <!-- 24650 -->
      <g style="fill:#262626;" transform="translate(679.809406 102.299945)scale(0.13 -0.13)">
       <use xlink:href="#ArialMT-50"/>
       <use x="55.615234" xlink:href="#ArialMT-52"/>
       <use x="111.230469" xlink:href="#ArialMT-54"/>
       <use x="166.845703" xlink:href="#ArialMT-53"/>
       <use x="222.460938" xlink:href="#ArialMT-48"/>
      </g>
     </g>
    </g>
    <g id="ytick_14">
     <g id="line2d_66">
      <path clip-path="url(#p45f157a32c)" d="M 722.9555 48.68648 
L 965.079 48.68648 
" style="fill:none;stroke:#ffffff;stroke-linecap:round;"/>
     </g>
     <g id="line2d_67"/>
     <g id="text_34">
      <!-- 24700 -->
      <g style="fill:#262626;" transform="translate(679.809406 53.339058)scale(0.13 -0.13)">
       <use xlink:href="#ArialMT-50"/>
       <use x="55.615234" xlink:href="#ArialMT-52"/>
       <use x="111.230469" xlink:href="#ArialMT-55"/>
       <use x="166.845703" xlink:href="#ArialMT-48"/>
       <use x="222.460938" xlink:href="#ArialMT-48"/>
      </g>
     </g>
    </g>
   </g>
   <g id="line2d_68">
    <path clip-path="url(#p45f157a32c)" d="M 733.961114 201.934056 
L 745.54597 40.754817 
L 757.130827 93.142966 
L 768.715683 124.771698 
L 780.300539 125.750916 
L 791.885396 138.872434 
L 803.470252 151.406421 
L 815.055109 183.622684 
L 826.639965 179.020361 
L 838.224822 184.50398 
L 849.809678 172.459602 
L 861.394535 185.189433 
L 872.979391 189.204226 
L 884.564248 178.041143 
L 896.149104 183.91645 
L 907.733961 183.818528 
L 919.318817 185.189433 
L 930.903673 186.756181 
L 942.48853 184.797746 
L 954.073386 187.735399 
" style="fill:none;stroke:#4c72b0;stroke-linecap:round;stroke-width:1.75;"/>
   </g>
   <g id="line2d_69">
    <path clip-path="url(#p45f157a32c)" d="M 733.961114 201.934056 
L 745.54597 201.934056 
L 757.130827 201.934056 
L 768.715683 201.934056 
L 780.300539 201.934056 
L 791.885396 201.934056 
L 803.470252 201.934056 
L 815.055109 201.934056 
L 826.639965 201.934056 
L 838.224822 201.934056 
L 849.809678 201.934056 
L 861.394535 201.934056 
L 872.979391 201.934056 
L 884.564248 201.934056 
L 896.149104 201.934056 
L 907.733961 201.934056 
L 919.318817 201.934056 
L 930.903673 201.934056 
L 942.48853 201.934056 
L 954.073386 201.934056 
" style="fill:none;stroke:#55a868;stroke-linecap:round;stroke-width:1.75;"/>
   </g>
   <g id="patch_13">
    <path d="M 722.9555 209.993018 
L 722.9555 32.695855 
" style="fill:none;"/>
   </g>
   <g id="patch_14">
    <path d="M 965.079 209.993018 
L 965.079 32.695855 
" style="fill:none;"/>
   </g>
   <g id="patch_15">
    <path d="M 722.9555 209.993018 
L 965.079 209.993018 
" style="fill:none;"/>
   </g>
   <g id="patch_16">
    <path d="M 722.9555 32.695855 
L 965.079 32.695855 
" style="fill:none;"/>
   </g>
   <g id="text_35">
    <!-- strain energy: tip load -->
    <g style="fill:#262626;" transform="translate(781.875219 26.695855)scale(0.13 -0.13)">
     <defs>
      <path d="M 6.59375 -19.875 
L 6.59375 51.859375 
L 14.59375 51.859375 
L 14.59375 45.125 
Q 17.4375 49.078125 21 51.046875 
Q 24.5625 53.03125 29.640625 53.03125 
Q 36.28125 53.03125 41.359375 49.609375 
Q 46.4375 46.1875 49.015625 39.953125 
Q 51.609375 33.734375 51.609375 26.3125 
Q 51.609375 18.359375 48.75 11.984375 
Q 45.90625 5.609375 40.453125 2.21875 
Q 35.015625 -1.171875 29 -1.171875 
Q 24.609375 -1.171875 21.109375 0.6875 
Q 17.625 2.546875 15.375 5.375 
L 15.375 -19.875 
z
M 14.546875 25.640625 
Q 14.546875 15.625 18.59375 10.84375 
Q 22.65625 6.0625 28.421875 6.0625 
Q 34.28125 6.0625 38.453125 11.015625 
Q 42.625 15.96875 42.625 26.375 
Q 42.625 36.28125 38.546875 41.203125 
Q 34.46875 46.140625 28.8125 46.140625 
Q 23.1875 46.140625 18.859375 40.890625 
Q 14.546875 35.640625 14.546875 25.640625 
z
" id="ArialMT-112"/>
     </defs>
     <use xlink:href="#ArialMT-115"/>
     <use x="50" xlink:href="#ArialMT-116"/>
     <use x="77.783203" xlink:href="#ArialMT-114"/>
     <use x="111.083984" xlink:href="#ArialMT-97"/>
     <use x="166.699219" xlink:href="#ArialMT-105"/>
     <use x="188.916016" xlink:href="#ArialMT-110"/>
     <use x="244.53125" xlink:href="#ArialMT-32"/>
     <use x="272.314453" xlink:href="#ArialMT-101"/>
     <use x="327.929688" xlink:href="#ArialMT-110"/>
     <use x="383.544922" xlink:href="#ArialMT-101"/>
     <use x="439.160156" xlink:href="#ArialMT-114"/>
     <use x="472.460938" xlink:href="#ArialMT-103"/>
     <use x="528.076172" xlink:href="#ArialMT-121"/>
     <use x="578.076172" xlink:href="#ArialMT-58"/>
     <use x="605.859375" xlink:href="#ArialMT-32"/>
     <use x="633.642578" xlink:href="#ArialMT-116"/>
     <use x="661.425781" xlink:href="#ArialMT-105"/>
     <use x="683.642578" xlink:href="#ArialMT-112"/>
     <use x="739.257812" xlink:href="#ArialMT-32"/>
     <use x="767.041016" xlink:href="#ArialMT-108"/>
     <use x="789.257812" xlink:href="#ArialMT-111"/>
     <use x="844.873047" xlink:href="#ArialMT-97"/>
     <use x="900.488281" xlink:href="#ArialMT-100"/>
    </g>
   </g>
   <g id="legend_3">
    <g id="line2d_70">
     <path d="M 893.800719 46.619448 
L 915.800719 46.619448 
" style="fill:none;stroke:#4c72b0;stroke-linecap:round;stroke-width:1.75;"/>
    </g>
    <g id="line2d_71"/>
    <g id="text_36">
     <!-- c2: &lt;= -->
     <g style="fill:#262626;" transform="translate(924.600719 50.469448)scale(0.11 -0.11)">
      <use xlink:href="#ArialMT-99"/>
      <use x="50" xlink:href="#ArialMT-50"/>
      <use x="105.615234" xlink:href="#ArialMT-58"/>
      <use x="133.398438" xlink:href="#ArialMT-32"/>
      <use x="161.181641" xlink:href="#ArialMT-60"/>
      <use x="219.580078" xlink:href="#ArialMT-61"/>
     </g>
    </g>
    <g id="line2d_72">
     <path d="M 893.800719 62.313355 
L 915.800719 62.313355 
" style="fill:none;stroke:#55a868;stroke-linecap:round;stroke-width:1.75;"/>
    </g>
    <g id="line2d_73"/>
    <g id="text_37">
     <!-- c2_ref -->
     <g style="fill:#262626;" transform="translate(924.600719 66.163355)scale(0.11 -0.11)">
      <use xlink:href="#ArialMT-99"/>
      <use x="50" xlink:href="#ArialMT-50"/>
      <use x="105.615234" xlink:href="#ArialMT-95"/>
      <use x="161.230469" xlink:href="#ArialMT-114"/>
      <use x="194.53125" xlink:href="#ArialMT-101"/>
      <use x="250.146484" xlink:href="#ArialMT-102"/>
     </g>
    </g>
   </g>
  </g>
  <g id="axes_4">
   <g id="patch_17">
    <path d="M 388.9685 444.264655 
L 631.092 444.264655 
L 631.092 266.967491 
L 388.9685 266.967491 
z
" style="fill:#eaeaf2;"/>
   </g>
   <g id="matplotlib.axis_7">
    <g id="xtick_16">
     <g id="line2d_74">
      <path clip-path="url(#pcc41e16b93)" d="M 399.974114 444.264655 
L 399.974114 266.967491 
" style="fill:none;stroke:#ffffff;stroke-linecap:round;"/>
     </g>
     <g id="line2d_75"/>
     <g id="text_38">
      <!-- 0 -->
      <g style="fill:#262626;" transform="translate(396.359504 460.569811)scale(0.13 -0.13)">
       <use xlink:href="#ArialMT-48"/>
      </g>
     </g>
    </g>
    <g id="xtick_17">
     <g id="line2d_76">
      <path clip-path="url(#pcc41e16b93)" d="M 446.313539 444.264655 
L 446.313539 266.967491 
" style="fill:none;stroke:#ffffff;stroke-linecap:round;"/>
     </g>
     <g id="line2d_77"/>
     <g id="text_39">
      <!-- 4 -->
      <g style="fill:#262626;" transform="translate(442.69893 460.569811)scale(0.13 -0.13)">
       <use xlink:href="#ArialMT-52"/>
      </g>
     </g>
    </g>
    <g id="xtick_18">
     <g id="line2d_78">
      <path clip-path="url(#pcc41e16b93)" d="M 492.652965 444.264655 
L 492.652965 266.967491 
" style="fill:none;stroke:#ffffff;stroke-linecap:round;"/>
     </g>
     <g id="line2d_79"/>
     <g id="text_40">
      <!-- 8 -->
      <g style="fill:#262626;" transform="translate(489.038356 460.569811)scale(0.13 -0.13)">
       <use xlink:href="#ArialMT-56"/>
      </g>
     </g>
    </g>
    <g id="xtick_19">
     <g id="line2d_80">
      <path clip-path="url(#pcc41e16b93)" d="M 538.992391 444.264655 
L 538.992391 266.967491 
" style="fill:none;stroke:#ffffff;stroke-linecap:round;"/>
     </g>
     <g id="line2d_81"/>
     <g id="text_41">
      <!-- 12 -->
      <g style="fill:#262626;" transform="translate(531.763172 460.569811)scale(0.13 -0.13)">
       <use xlink:href="#ArialMT-49"/>
       <use x="55.615234" xlink:href="#ArialMT-50"/>
      </g>
     </g>
    </g>
    <g id="xtick_20">
     <g id="line2d_82">
      <path clip-path="url(#pcc41e16b93)" d="M 585.331817 444.264655 
L 585.331817 266.967491 
" style="fill:none;stroke:#ffffff;stroke-linecap:round;"/>
     </g>
     <g id="line2d_83"/>
     <g id="text_42">
      <!-- 16 -->
      <g style="fill:#262626;" transform="translate(578.102598 460.569811)scale(0.13 -0.13)">
       <use xlink:href="#ArialMT-49"/>
       <use x="55.615234" xlink:href="#ArialMT-54"/>
      </g>
     </g>
    </g>
   </g>
   <g id="matplotlib.axis_8">
    <g id="ytick_15">
     <g id="line2d_84">
      <path clip-path="url(#pcc41e16b93)" d="M 388.9685 436.205693 
L 631.092 436.205693 
" style="fill:none;stroke:#ffffff;stroke-linecap:round;"/>
     </g>
     <g id="line2d_85"/>
     <g id="text_43">
      <!-- 0 -->
      <g style="fill:#262626;" transform="translate(374.739281 440.858271)scale(0.13 -0.13)">
       <use xlink:href="#ArialMT-48"/>
      </g>
     </g>
    </g>
    <g id="ytick_16">
     <g id="line2d_86">
      <path clip-path="url(#pcc41e16b93)" d="M 388.9685 389.277733 
L 631.092 389.277733 
" style="fill:none;stroke:#ffffff;stroke-linecap:round;"/>
     </g>
     <g id="line2d_87"/>
     <g id="text_44">
      <!-- 200 -->
      <g style="fill:#262626;" transform="translate(360.280844 393.930311)scale(0.13 -0.13)">
       <use xlink:href="#ArialMT-50"/>
       <use x="55.615234" xlink:href="#ArialMT-48"/>
       <use x="111.230469" xlink:href="#ArialMT-48"/>
      </g>
     </g>
    </g>
    <g id="ytick_17">
     <g id="line2d_88">
      <path clip-path="url(#pcc41e16b93)" d="M 388.9685 342.349773 
L 631.092 342.349773 
" style="fill:none;stroke:#ffffff;stroke-linecap:round;"/>
     </g>
     <g id="line2d_89"/>
     <g id="text_45">
      <!-- 400 -->
      <g style="fill:#262626;" transform="translate(360.280844 347.002351)scale(0.13 -0.13)">
       <use xlink:href="#ArialMT-52"/>
       <use x="55.615234" xlink:href="#ArialMT-48"/>
       <use x="111.230469" xlink:href="#ArialMT-48"/>
      </g>
     </g>
    </g>
    <g id="ytick_18">
     <g id="line2d_90">
      <path clip-path="url(#pcc41e16b93)" d="M 388.9685 295.421813 
L 631.092 295.421813 
" style="fill:none;stroke:#ffffff;stroke-linecap:round;"/>
     </g>
     <g id="line2d_91"/>
     <g id="text_46">
      <!-- 600 -->
      <g style="fill:#262626;" transform="translate(360.280844 300.074392)scale(0.13 -0.13)">
       <use xlink:href="#ArialMT-54"/>
       <use x="55.615234" xlink:href="#ArialMT-48"/>
       <use x="111.230469" xlink:href="#ArialMT-48"/>
      </g>
     </g>
    </g>
   </g>
   <g id="line2d_92">
    <path clip-path="url(#pcc41e16b93)" d="M 399.974114 436.205693 
L 411.55897 436.205693 
L 423.143827 436.205693 
L 434.728683 436.205693 
L 446.313539 436.205693 
L 457.898396 434.414089 
L 469.483252 354.704966 
L 481.068109 375.657831 
L 492.652965 358.044595 
L 504.237822 363.702229 
L 515.822678 293.805615 
L 527.407535 358.210954 
L 538.992391 381.682677 
L 550.577248 275.026453 
L 562.162104 311.316548 
L 573.746961 315.19796 
L 585.331817 322.869273 
L 596.916673 334.855613 
L 608.50153 319.840777 
L 620.086386 340.189445 
" style="fill:none;stroke:#4c72b0;stroke-linecap:round;stroke-width:1.75;"/>
   </g>
   <g id="line2d_93">
    <path clip-path="url(#pcc41e16b93)" d="M 399.974114 436.205693 
L 411.55897 436.205693 
L 423.143827 436.205693 
L 434.728683 436.205693 
L 446.313539 436.205693 
L 457.898396 436.205693 
L 469.483252 436.205693 
L 481.068109 436.205693 
L 492.652965 436.205693 
L 504.237822 436.205693 
L 515.822678 436.205693 
L 527.407535 436.205693 
L 538.992391 436.205693 
L 550.577248 436.205693 
L 562.162104 436.205693 
L 573.746961 436.205693 
L 585.331817 436.205693 
L 596.916673 436.205693 
L 608.50153 436.205693 
L 620.086386 436.205693 
" style="fill:none;stroke:#55a868;stroke-linecap:round;stroke-width:1.75;"/>
   </g>
   <g id="patch_18">
    <path d="M 388.9685 444.264655 
L 388.9685 266.967491 
" style="fill:none;"/>
   </g>
   <g id="patch_19">
    <path d="M 631.092 444.264655 
L 631.092 266.967491 
" style="fill:none;"/>
   </g>
   <g id="patch_20">
    <path d="M 388.9685 444.264655 
L 631.092 444.264655 
" style="fill:none;"/>
   </g>
   <g id="patch_21">
    <path d="M 388.9685 266.967491 
L 631.092 266.967491 
" style="fill:none;"/>
   </g>
   <g id="text_47">
    <!-- packaging: bounding mesh -->
    <g style="fill:#262626;" transform="translate(432.341031 260.967491)scale(0.13 -0.13)">
     <defs>
      <path d="M 6.640625 0 
L 6.640625 71.578125 
L 15.4375 71.578125 
L 15.4375 30.765625 
L 36.234375 51.859375 
L 47.609375 51.859375 
L 27.78125 32.625 
L 49.609375 0 
L 38.765625 0 
L 21.625 26.515625 
L 15.4375 20.5625 
L 15.4375 0 
z
" id="ArialMT-107"/>
      <path d="M 14.703125 0 
L 6.546875 0 
L 6.546875 71.578125 
L 15.328125 71.578125 
L 15.328125 46.046875 
Q 20.90625 53.03125 29.546875 53.03125 
Q 34.328125 53.03125 38.59375 51.09375 
Q 42.875 49.171875 45.625 45.671875 
Q 48.390625 42.1875 49.953125 37.25 
Q 51.515625 32.328125 51.515625 26.703125 
Q 51.515625 13.375 44.921875 6.09375 
Q 38.328125 -1.171875 29.109375 -1.171875 
Q 19.921875 -1.171875 14.703125 6.5 
z
M 14.59375 26.3125 
Q 14.59375 17 17.140625 12.84375 
Q 21.296875 6.0625 28.375 6.0625 
Q 34.125 6.0625 38.328125 11.0625 
Q 42.53125 16.0625 42.53125 25.984375 
Q 42.53125 36.140625 38.5 40.96875 
Q 34.46875 45.796875 28.765625 45.796875 
Q 23 45.796875 18.796875 40.796875 
Q 14.59375 35.796875 14.59375 26.3125 
z
" id="ArialMT-98"/>
      <path d="M 40.578125 0 
L 40.578125 7.625 
Q 34.515625 -1.171875 24.125 -1.171875 
Q 19.53125 -1.171875 15.546875 0.578125 
Q 11.578125 2.34375 9.640625 5 
Q 7.71875 7.671875 6.9375 11.53125 
Q 6.390625 14.109375 6.390625 19.734375 
L 6.390625 51.859375 
L 15.1875 51.859375 
L 15.1875 23.09375 
Q 15.1875 16.21875 15.71875 13.8125 
Q 16.546875 10.359375 19.234375 8.375 
Q 21.921875 6.390625 25.875 6.390625 
Q 29.828125 6.390625 33.296875 8.421875 
Q 36.765625 10.453125 38.203125 13.9375 
Q 39.65625 17.4375 39.65625 24.078125 
L 39.65625 51.859375 
L 48.4375 51.859375 
L 48.4375 0 
z
" id="ArialMT-117"/>
      <path d="M 6.59375 0 
L 6.59375 71.578125 
L 15.375 71.578125 
L 15.375 45.90625 
Q 21.53125 53.03125 30.90625 53.03125 
Q 36.671875 53.03125 40.921875 50.75 
Q 45.171875 48.484375 47 44.484375 
Q 48.828125 40.484375 48.828125 32.859375 
L 48.828125 0 
L 40.046875 0 
L 40.046875 32.859375 
Q 40.046875 39.453125 37.1875 42.453125 
Q 34.328125 45.453125 29.109375 45.453125 
Q 25.203125 45.453125 21.75 43.421875 
Q 18.3125 41.40625 16.84375 37.9375 
Q 15.375 34.46875 15.375 28.375 
L 15.375 0 
z
" id="ArialMT-104"/>
     </defs>
     <use xlink:href="#ArialMT-112"/>
     <use x="55.615234" xlink:href="#ArialMT-97"/>
     <use x="111.230469" xlink:href="#ArialMT-99"/>
     <use x="161.230469" xlink:href="#ArialMT-107"/>
     <use x="211.230469" xlink:href="#ArialMT-97"/>
     <use x="266.845703" xlink:href="#ArialMT-103"/>
     <use x="322.460938" xlink:href="#ArialMT-105"/>
     <use x="344.677734" xlink:href="#ArialMT-110"/>
     <use x="400.292969" xlink:href="#ArialMT-103"/>
     <use x="455.908203" xlink:href="#ArialMT-58"/>
     <use x="483.691406" xlink:href="#ArialMT-32"/>
     <use x="511.474609" xlink:href="#ArialMT-98"/>
     <use x="567.089844" xlink:href="#ArialMT-111"/>
     <use x="622.705078" xlink:href="#ArialMT-117"/>
     <use x="678.320312" xlink:href="#ArialMT-110"/>
     <use x="733.935547" xlink:href="#ArialMT-100"/>
     <use x="789.550781" xlink:href="#ArialMT-105"/>
     <use x="811.767578" xlink:href="#ArialMT-110"/>
     <use x="867.382812" xlink:href="#ArialMT-103"/>
     <use x="922.998047" xlink:href="#ArialMT-32"/>
     <use x="950.78125" xlink:href="#ArialMT-109"/>
     <use x="1034.082031" xlink:href="#ArialMT-101"/>
     <use x="1089.697266" xlink:href="#ArialMT-115"/>
     <use x="1139.697266" xlink:href="#ArialMT-104"/>
    </g>
   </g>
   <g id="legend_4">
    <g id="line2d_94">
     <path d="M 398.8685 280.891085 
L 420.8685 280.891085 
" style="fill:none;stroke:#4c72b0;stroke-linecap:round;stroke-width:1.75;"/>
    </g>
    <g id="line2d_95"/>
    <g id="text_48">
     <!-- c3: &lt;= -->
     <g style="fill:#262626;" transform="translate(429.6685 284.741085)scale(0.11 -0.11)">
      <use xlink:href="#ArialMT-99"/>
      <use x="50" xlink:href="#ArialMT-51"/>
      <use x="105.615234" xlink:href="#ArialMT-58"/>
      <use x="133.398438" xlink:href="#ArialMT-32"/>
      <use x="161.181641" xlink:href="#ArialMT-60"/>
      <use x="219.580078" xlink:href="#ArialMT-61"/>
     </g>
    </g>
    <g id="line2d_96">
     <path d="M 398.8685 296.584991 
L 420.8685 296.584991 
" style="fill:none;stroke:#55a868;stroke-linecap:round;stroke-width:1.75;"/>
    </g>
    <g id="line2d_97"/>
    <g id="text_49">
     <!-- c3_ref -->
     <g style="fill:#262626;" transform="translate(429.6685 300.434991)scale(0.11 -0.11)">
      <use xlink:href="#ArialMT-99"/>
      <use x="50" xlink:href="#ArialMT-51"/>
      <use x="105.615234" xlink:href="#ArialMT-95"/>
      <use x="161.230469" xlink:href="#ArialMT-114"/>
      <use x="194.53125" xlink:href="#ArialMT-101"/>
      <use x="250.146484" xlink:href="#ArialMT-102"/>
     </g>
    </g>
   </g>
  </g>
  <g id="axes_5">
   <g id="patch_22">
    <path d="M 722.9555 444.264655 
L 965.079 444.264655 
L 965.079 266.967491 
L 722.9555 266.967491 
z
" style="fill:#eaeaf2;"/>
   </g>
   <g id="matplotlib.axis_9">
    <g id="xtick_21">
     <g id="line2d_98">
      <path clip-path="url(#p032da67e2e)" d="M 733.961114 444.264655 
L 733.961114 266.967491 
" style="fill:none;stroke:#ffffff;stroke-linecap:round;"/>
     </g>
     <g id="line2d_99"/>
     <g id="text_50">
      <!-- 0 -->
      <g style="fill:#262626;" transform="translate(730.346504 460.569811)scale(0.13 -0.13)">
       <use xlink:href="#ArialMT-48"/>
      </g>
     </g>
    </g>
    <g id="xtick_22">
     <g id="line2d_100">
      <path clip-path="url(#p032da67e2e)" d="M 780.300539 444.264655 
L 780.300539 266.967491 
" style="fill:none;stroke:#ffffff;stroke-linecap:round;"/>
     </g>
     <g id="line2d_101"/>
     <g id="text_51">
      <!-- 4 -->
      <g style="fill:#262626;" transform="translate(776.68593 460.569811)scale(0.13 -0.13)">
       <use xlink:href="#ArialMT-52"/>
      </g>
     </g>
    </g>
    <g id="xtick_23">
     <g id="line2d_102">
      <path clip-path="url(#p032da67e2e)" d="M 826.639965 444.264655 
L 826.639965 266.967491 
" style="fill:none;stroke:#ffffff;stroke-linecap:round;"/>
     </g>
     <g id="line2d_103"/>
     <g id="text_52">
      <!-- 8 -->
      <g style="fill:#262626;" transform="translate(823.025356 460.569811)scale(0.13 -0.13)">
       <use xlink:href="#ArialMT-56"/>
      </g>
     </g>
    </g>
    <g id="xtick_24">
     <g id="line2d_104">
      <path clip-path="url(#p032da67e2e)" d="M 872.979391 444.264655 
L 872.979391 266.967491 
" style="fill:none;stroke:#ffffff;stroke-linecap:round;"/>
     </g>
     <g id="line2d_105"/>
     <g id="text_53">
      <!-- 12 -->
      <g style="fill:#262626;" transform="translate(865.750172 460.569811)scale(0.13 -0.13)">
       <use xlink:href="#ArialMT-49"/>
       <use x="55.615234" xlink:href="#ArialMT-50"/>
      </g>
     </g>
    </g>
    <g id="xtick_25">
     <g id="line2d_106">
      <path clip-path="url(#p032da67e2e)" d="M 919.318817 444.264655 
L 919.318817 266.967491 
" style="fill:none;stroke:#ffffff;stroke-linecap:round;"/>
     </g>
     <g id="line2d_107"/>
     <g id="text_54">
      <!-- 16 -->
      <g style="fill:#262626;" transform="translate(912.089598 460.569811)scale(0.13 -0.13)">
       <use xlink:href="#ArialMT-49"/>
       <use x="55.615234" xlink:href="#ArialMT-54"/>
      </g>
     </g>
    </g>
   </g>
   <g id="matplotlib.axis_10">
    <g id="ytick_19">
     <g id="line2d_108">
      <path clip-path="url(#p032da67e2e)" d="M 722.9555 436.205693 
L 965.079 436.205693 
" style="fill:none;stroke:#ffffff;stroke-linecap:round;"/>
     </g>
     <g id="line2d_109"/>
     <g id="text_55">
      <!-- 0 -->
      <g style="fill:#262626;" transform="translate(708.726281 440.858271)scale(0.13 -0.13)">
       <use xlink:href="#ArialMT-48"/>
      </g>
     </g>
    </g>
    <g id="ytick_20">
     <g id="line2d_110">
      <path clip-path="url(#p032da67e2e)" d="M 722.9555 389.546309 
L 965.079 389.546309 
" style="fill:none;stroke:#ffffff;stroke-linecap:round;"/>
     </g>
     <g id="line2d_111"/>
     <g id="text_56">
      <!-- 1 -->
      <g style="fill:#262626;" transform="translate(708.726281 394.198888)scale(0.13 -0.13)">
       <use xlink:href="#ArialMT-49"/>
      </g>
     </g>
    </g>
    <g id="ytick_21">
     <g id="line2d_112">
      <path clip-path="url(#p032da67e2e)" d="M 722.9555 342.886926 
L 965.079 342.886926 
" style="fill:none;stroke:#ffffff;stroke-linecap:round;"/>
     </g>
     <g id="line2d_113"/>
     <g id="text_57">
      <!-- 2 -->
      <g style="fill:#262626;" transform="translate(708.726281 347.539505)scale(0.13 -0.13)">
       <use xlink:href="#ArialMT-50"/>
      </g>
     </g>
    </g>
    <g id="ytick_22">
     <g id="line2d_114">
      <path clip-path="url(#p032da67e2e)" d="M 722.9555 296.227543 
L 965.079 296.227543 
" style="fill:none;stroke:#ffffff;stroke-linecap:round;"/>
     </g>
     <g id="line2d_115"/>
     <g id="text_58">
      <!-- 3 -->
      <g style="fill:#262626;" transform="translate(708.726281 300.880121)scale(0.13 -0.13)">
       <use xlink:href="#ArialMT-51"/>
      </g>
     </g>
    </g>
   </g>
   <g id="line2d_116">
    <path clip-path="url(#p032da67e2e)" d="M 733.961114 296.227543 
L 745.54597 296.227543 
L 757.130827 296.227543 
L 768.715683 296.227543 
L 780.300539 296.227543 
L 791.885396 296.227543 
L 803.470252 296.227543 
L 815.055109 296.227543 
L 826.639965 296.227543 
L 838.224822 296.227543 
L 849.809678 296.227543 
L 861.394535 296.227543 
L 872.979391 296.227543 
L 884.564248 296.227543 
L 896.149104 296.227543 
L 907.733961 296.227543 
L 919.318817 296.227543 
L 930.903673 296.227543 
L 942.48853 296.227543 
L 954.073386 296.227543 
" style="fill:none;stroke:#4c72b0;stroke-linecap:round;stroke-width:1.75;"/>
   </g>
   <g id="line2d_117">
    <path clip-path="url(#p032da67e2e)" d="M 733.961114 275.026453 
L 745.54597 281.074442 
L 757.130827 285.312047 
L 768.715683 288.126541 
L 780.300539 296.305931 
L 791.885396 303.81016 
L 803.470252 339.014198 
L 815.055109 332.95501 
L 826.639965 340.159219 
L 838.224822 328.459379 
L 849.809678 356.65751 
L 861.394535 321.521128 
L 872.979391 338.072145 
L 884.564248 338.556002 
L 896.149104 350.876879 
L 907.733961 344.568531 
L 919.318817 346.923896 
L 930.903673 343.358653 
L 942.48853 348.236425 
L 954.073386 339.323083 
" style="fill:none;stroke:#55a868;stroke-linecap:round;stroke-width:1.75;"/>
   </g>
   <g id="line2d_118">
    <path clip-path="url(#p032da67e2e)" d="M 733.961114 436.205693 
L 745.54597 430.028084 
L 757.130827 428.694605 
L 768.715683 430.30944 
L 780.300539 430.744912 
L 791.885396 421.06253 
L 803.470252 380.056258 
L 815.055109 392.462428 
L 826.639965 384.327924 
L 838.224822 389.209895 
L 849.809678 365.531658 
L 861.394535 399.640227 
L 872.979391 385.043679 
L 884.564248 377.663098 
L 896.149104 371.928193 
L 907.733961 376.288046 
L 919.318817 376.505012 
L 930.903673 378.595352 
L 942.48853 374.714691 
L 954.073386 382.548802 
" style="fill:none;stroke:#c44e52;stroke-linecap:round;stroke-width:1.75;"/>
   </g>
   <g id="patch_23">
    <path d="M 722.9555 444.264655 
L 722.9555 266.967491 
" style="fill:none;"/>
   </g>
   <g id="patch_24">
    <path d="M 965.079 444.264655 
L 965.079 266.967491 
" style="fill:none;"/>
   </g>
   <g id="patch_25">
    <path d="M 722.9555 444.264655 
L 965.079 444.264655 
" style="fill:none;"/>
   </g>
   <g id="patch_26">
    <path d="M 722.9555 266.967491 
L 965.079 266.967491 
" style="fill:none;"/>
   </g>
   <g id="text_59">
    <!-- step length -->
    <g style="fill:#262626;" transform="translate(812.218031 260.967491)scale(0.13 -0.13)">
     <use xlink:href="#ArialMT-115"/>
     <use x="50" xlink:href="#ArialMT-116"/>
     <use x="77.783203" xlink:href="#ArialMT-101"/>
     <use x="133.398438" xlink:href="#ArialMT-112"/>
     <use x="189.013672" xlink:href="#ArialMT-32"/>
     <use x="216.796875" xlink:href="#ArialMT-108"/>
     <use x="239.013672" xlink:href="#ArialMT-101"/>
     <use x="294.628906" xlink:href="#ArialMT-110"/>
     <use x="350.244141" xlink:href="#ArialMT-103"/>
     <use x="405.859375" xlink:href="#ArialMT-116"/>
     <use x="433.642578" xlink:href="#ArialMT-104"/>
    </g>
   </g>
   <g id="legend_5">
    <g id="line2d_119">
     <path d="M 869.968531 396.940592 
L 891.968531 396.940592 
" style="fill:none;stroke:#4c72b0;stroke-linecap:round;stroke-width:1.75;"/>
    </g>
    <g id="line2d_120"/>
    <g id="text_60">
     <!-- step_size -->
     <g style="fill:#262626;" transform="translate(900.768531 400.790592)scale(0.11 -0.11)">
      <defs>
       <path d="M 1.953125 0 
L 1.953125 7.125 
L 34.96875 45.015625 
Q 29.34375 44.734375 25.046875 44.734375 
L 3.90625 44.734375 
L 3.90625 51.859375 
L 46.296875 51.859375 
L 46.296875 46.046875 
L 18.21875 13.140625 
L 12.796875 7.125 
Q 18.703125 7.5625 23.875 7.5625 
L 47.859375 7.5625 
L 47.859375 0 
z
" id="ArialMT-122"/>
      </defs>
      <use xlink:href="#ArialMT-115"/>
      <use x="50" xlink:href="#ArialMT-116"/>
      <use x="77.783203" xlink:href="#ArialMT-101"/>
      <use x="133.398438" xlink:href="#ArialMT-112"/>
      <use x="189.013672" xlink:href="#ArialMT-95"/>
      <use x="244.628906" xlink:href="#ArialMT-115"/>
      <use x="294.628906" xlink:href="#ArialMT-105"/>
      <use x="316.845703" xlink:href="#ArialMT-122"/>
      <use x="366.845703" xlink:href="#ArialMT-101"/>
     </g>
    </g>
    <g id="line2d_121">
     <path d="M 869.968531 412.634498 
L 891.968531 412.634498 
" style="fill:none;stroke:#55a868;stroke-linecap:round;stroke-width:1.75;"/>
    </g>
    <g id="line2d_122"/>
    <g id="text_61">
     <!-- inf_norm_s -->
     <g style="fill:#262626;" transform="translate(900.768531 416.484498)scale(0.11 -0.11)">
      <use xlink:href="#ArialMT-105"/>
      <use x="22.216797" xlink:href="#ArialMT-110"/>
      <use x="77.832031" xlink:href="#ArialMT-102"/>
      <use x="105.615234" xlink:href="#ArialMT-95"/>
      <use x="161.230469" xlink:href="#ArialMT-110"/>
      <use x="216.845703" xlink:href="#ArialMT-111"/>
      <use x="272.460938" xlink:href="#ArialMT-114"/>
      <use x="305.761719" xlink:href="#ArialMT-109"/>
      <use x="389.0625" xlink:href="#ArialMT-95"/>
      <use x="444.677734" xlink:href="#ArialMT-115"/>
     </g>
    </g>
    <g id="line2d_123">
     <path d="M 869.968531 428.328405 
L 891.968531 428.328405 
" style="fill:none;stroke:#c44e52;stroke-linecap:round;stroke-width:1.75;"/>
    </g>
    <g id="line2d_124"/>
    <g id="text_62">
     <!-- inf_norm_c -->
     <g style="fill:#262626;" transform="translate(900.768531 432.178405)scale(0.11 -0.11)">
      <use xlink:href="#ArialMT-105"/>
      <use x="22.216797" xlink:href="#ArialMT-110"/>
      <use x="77.832031" xlink:href="#ArialMT-102"/>
      <use x="105.615234" xlink:href="#ArialMT-95"/>
      <use x="161.230469" xlink:href="#ArialMT-110"/>
      <use x="216.845703" xlink:href="#ArialMT-111"/>
      <use x="272.460938" xlink:href="#ArialMT-114"/>
      <use x="305.761719" xlink:href="#ArialMT-109"/>
      <use x="389.0625" xlink:href="#ArialMT-95"/>
      <use x="444.677734" xlink:href="#ArialMT-99"/>
     </g>
    </g>
   </g>
  </g>
 </g>
 <defs>
  <clipPath id="p4d7ca10710">
   <rect height="411.5688" width="242.1235" x="54.9815" y="32.695855"/>
  </clipPath>
  <clipPath id="p4c7ad6aa41">
   <rect height="177.297164" width="242.1235" x="388.9685" y="32.695855"/>
  </clipPath>
  <clipPath id="p45f157a32c">
   <rect height="177.297164" width="242.1235" x="722.9555" y="32.695855"/>
  </clipPath>
  <clipPath id="pcc41e16b93">
   <rect height="177.297164" width="242.1235" x="388.9685" y="266.967491"/>
  </clipPath>
  <clipPath id="p032da67e2e">
   <rect height="177.297164" width="242.1235" x="722.9555" y="266.967491"/>
  </clipPath>
 </defs>
</svg>
