<?xml version="1.0" encoding="utf-8" standalone="no"?>
<!DOCTYPE svg PUBLIC "-//W3C//DTD SVG 1.1//EN"
  "http://www.w3.org/Graphics/SVG/1.1/DTD/svg11.dtd">
<!-- Created with matplotlib (https://matplotlib.org/) -->
<svg height="481.68pt" version="1.1" viewBox="0 0 983.52 481.68" width="983.52pt" xmlns="http://www.w3.org/2000/svg" xmlns:xlink="http://www.w3.org/1999/xlink">
 <metadata>
  <rdf:RDF xmlns:cc="http://creativecommons.org/ns#" xmlns:dc="http://purl.org/dc/elements/1.1/" xmlns:rdf="http://www.w3.org/1999/02/22-rdf-syntax-ns#">
   <cc:Work>
    <dc:type rdf:resource="http://purl.org/dc/dcmitype/StillImage"/>
    <dc:date>2020-09-23T17:15:01.809851</dc:date>
    <dc:format>image/svg+xml</dc:format>
    <dc:creator>
     <cc:Agent>
      <dc:title>Matplotlib v3.3.0, https://matplotlib.org/</dc:title>
     </cc:Agent>
    </dc:creator>
   </cc:Work>
  </rdf:RDF>
 </metadata>
 <defs>
  <style type="text/css">*{stroke-linecap:butt;stroke-linejoin:round;}</style>
 </defs>
 <g id="figure_1">
  <g id="patch_1">
   <path d="M 0 481.68 
L 983.52 481.68 
L 983.52 0 
L 0 0 
z
" style="fill:#ffffff;"/>
  </g>
  <g id="axes_1">
   <g id="patch_2">
    <path d="M 53.1374 446.892 
L 298.9491 446.892 
L 298.9491 31.012711 
L 53.1374 31.012711 
z
" style="fill:#eaeaf2;"/>
   </g>
   <g id="matplotlib.axis_1">
    <g id="xtick_1">
     <g id="line2d_1">
      <path clip-path="url(#p550573165e)" d="M 64.310659 446.892 
L 64.310659 31.012711 
" style="fill:none;stroke:#ffffff;stroke-linecap:round;"/>
     </g>
     <g id="line2d_2"/>
     <g id="text_1">
      <!-- 0 -->
      <g style="fill:#262626;" transform="translate(60.974097 462.481375)scale(0.12 -0.12)">
       <defs>
        <path d="M 4.15625 35.296875 
Q 4.15625 48 6.765625 55.734375 
Q 9.375 63.484375 14.515625 67.671875 
Q 19.671875 71.875 27.484375 71.875 
Q 33.25 71.875 37.59375 69.546875 
Q 41.9375 67.234375 44.765625 62.859375 
Q 47.609375 58.5 49.21875 52.21875 
Q 50.828125 45.953125 50.828125 35.296875 
Q 50.828125 22.703125 48.234375 14.96875 
Q 45.65625 7.234375 40.5 3 
Q 35.359375 -1.21875 27.484375 -1.21875 
Q 17.140625 -1.21875 11.234375 6.203125 
Q 4.15625 15.140625 4.15625 35.296875 
z
M 13.1875 35.296875 
Q 13.1875 17.671875 17.3125 11.828125 
Q 21.4375 6 27.484375 6 
Q 33.546875 6 37.671875 11.859375 
Q 41.796875 17.71875 41.796875 35.296875 
Q 41.796875 52.984375 37.671875 58.78125 
Q 33.546875 64.59375 27.390625 64.59375 
Q 21.34375 64.59375 17.71875 59.46875 
Q 13.1875 52.9375 13.1875 35.296875 
z
" id="ArialMT-48"/>
       </defs>
       <use xlink:href="#ArialMT-48"/>
      </g>
     </g>
    </g>
    <g id="xtick_2">
     <g id="line2d_3">
      <path clip-path="url(#p550573165e)" d="M 111.355961 446.892 
L 111.355961 31.012711 
" style="fill:none;stroke:#ffffff;stroke-linecap:round;"/>
     </g>
     <g id="line2d_4"/>
     <g id="text_2">
      <!-- 4 -->
      <g style="fill:#262626;" transform="translate(108.019398 462.481375)scale(0.12 -0.12)">
       <defs>
        <path d="M 32.328125 0 
L 32.328125 17.140625 
L 1.265625 17.140625 
L 1.265625 25.203125 
L 33.9375 71.578125 
L 41.109375 71.578125 
L 41.109375 25.203125 
L 50.78125 25.203125 
L 50.78125 17.140625 
L 41.109375 17.140625 
L 41.109375 0 
z
M 32.328125 25.203125 
L 32.328125 57.46875 
L 9.90625 25.203125 
z
" id="ArialMT-52"/>
       </defs>
       <use xlink:href="#ArialMT-52"/>
      </g>
     </g>
    </g>
    <g id="xtick_3">
     <g id="line2d_5">
      <path clip-path="url(#p550573165e)" d="M 158.401262 446.892 
L 158.401262 31.012711 
" style="fill:none;stroke:#ffffff;stroke-linecap:round;"/>
     </g>
     <g id="line2d_6"/>
     <g id="text_3">
      <!-- 8 -->
      <g style="fill:#262626;" transform="translate(155.064699 462.481375)scale(0.12 -0.12)">
       <defs>
        <path d="M 17.671875 38.8125 
Q 12.203125 40.828125 9.5625 44.53125 
Q 6.9375 48.25 6.9375 53.421875 
Q 6.9375 61.234375 12.546875 66.546875 
Q 18.171875 71.875 27.484375 71.875 
Q 36.859375 71.875 42.578125 66.421875 
Q 48.296875 60.984375 48.296875 53.171875 
Q 48.296875 48.1875 45.671875 44.5 
Q 43.0625 40.828125 37.75 38.8125 
Q 44.34375 36.671875 47.78125 31.875 
Q 51.21875 27.09375 51.21875 20.453125 
Q 51.21875 11.28125 44.71875 5.03125 
Q 38.234375 -1.21875 27.640625 -1.21875 
Q 17.046875 -1.21875 10.546875 5.046875 
Q 4.046875 11.328125 4.046875 20.703125 
Q 4.046875 27.6875 7.59375 32.390625 
Q 11.140625 37.109375 17.671875 38.8125 
z
M 15.921875 53.71875 
Q 15.921875 48.640625 19.1875 45.40625 
Q 22.46875 42.1875 27.6875 42.1875 
Q 32.765625 42.1875 36.015625 45.375 
Q 39.265625 48.578125 39.265625 53.21875 
Q 39.265625 58.0625 35.90625 61.359375 
Q 32.5625 64.65625 27.59375 64.65625 
Q 22.5625 64.65625 19.234375 61.421875 
Q 15.921875 58.203125 15.921875 53.71875 
z
M 13.09375 20.65625 
Q 13.09375 16.890625 14.875 13.375 
Q 16.65625 9.859375 20.171875 7.921875 
Q 23.6875 6 27.734375 6 
Q 34.03125 6 38.125 10.046875 
Q 42.234375 14.109375 42.234375 20.359375 
Q 42.234375 26.703125 38.015625 30.859375 
Q 33.796875 35.015625 27.4375 35.015625 
Q 21.234375 35.015625 17.15625 30.90625 
Q 13.09375 26.8125 13.09375 20.65625 
z
" id="ArialMT-56"/>
       </defs>
       <use xlink:href="#ArialMT-56"/>
      </g>
     </g>
    </g>
    <g id="xtick_4">
     <g id="line2d_7">
      <path clip-path="url(#p550573165e)" d="M 205.446563 446.892 
L 205.446563 31.012711 
" style="fill:none;stroke:#ffffff;stroke-linecap:round;"/>
     </g>
     <g id="line2d_8"/>
     <g id="text_4">
      <!-- 12 -->
      <g style="fill:#262626;" transform="translate(198.773438 462.481375)scale(0.12 -0.12)">
       <defs>
        <path d="M 37.25 0 
L 28.46875 0 
L 28.46875 56 
Q 25.296875 52.984375 20.140625 49.953125 
Q 14.984375 46.921875 10.890625 45.40625 
L 10.890625 53.90625 
Q 18.265625 57.375 23.78125 62.296875 
Q 29.296875 67.234375 31.59375 71.875 
L 37.25 71.875 
z
" id="ArialMT-49"/>
        <path d="M 50.34375 8.453125 
L 50.34375 0 
L 3.03125 0 
Q 2.9375 3.171875 4.046875 6.109375 
Q 5.859375 10.9375 9.828125 15.625 
Q 13.8125 20.3125 21.34375 26.46875 
Q 33.015625 36.03125 37.109375 41.625 
Q 41.21875 47.21875 41.21875 52.203125 
Q 41.21875 57.421875 37.46875 61 
Q 33.734375 64.59375 27.734375 64.59375 
Q 21.390625 64.59375 17.578125 60.78125 
Q 13.765625 56.984375 13.71875 50.25 
L 4.6875 51.171875 
Q 5.609375 61.28125 11.65625 66.578125 
Q 17.71875 71.875 27.9375 71.875 
Q 38.234375 71.875 44.234375 66.15625 
Q 50.25 60.453125 50.25 52 
Q 50.25 47.703125 48.484375 43.546875 
Q 46.734375 39.40625 42.65625 34.8125 
Q 38.578125 30.21875 29.109375 22.21875 
Q 21.1875 15.578125 18.9375 13.203125 
Q 16.703125 10.84375 15.234375 8.453125 
z
" id="ArialMT-50"/>
       </defs>
       <use xlink:href="#ArialMT-49"/>
       <use x="55.615234" xlink:href="#ArialMT-50"/>
      </g>
     </g>
    </g>
    <g id="xtick_5">
     <g id="line2d_9">
      <path clip-path="url(#p550573165e)" d="M 252.491865 446.892 
L 252.491865 31.012711 
" style="fill:none;stroke:#ffffff;stroke-linecap:round;"/>
     </g>
     <g id="line2d_10"/>
     <g id="text_5">
      <!-- 16 -->
      <g style="fill:#262626;" transform="translate(245.81874 462.481375)scale(0.12 -0.12)">
       <defs>
        <path d="M 49.75 54.046875 
L 41.015625 53.375 
Q 39.84375 58.546875 37.703125 60.890625 
Q 34.125 64.65625 28.90625 64.65625 
Q 24.703125 64.65625 21.53125 62.3125 
Q 17.390625 59.28125 14.984375 53.46875 
Q 12.59375 47.65625 12.5 36.921875 
Q 15.671875 41.75 20.265625 44.09375 
Q 24.859375 46.4375 29.890625 46.4375 
Q 38.671875 46.4375 44.84375 39.96875 
Q 51.03125 33.5 51.03125 23.25 
Q 51.03125 16.5 48.125 10.71875 
Q 45.21875 4.9375 40.140625 1.859375 
Q 35.0625 -1.21875 28.609375 -1.21875 
Q 17.625 -1.21875 10.6875 6.859375 
Q 3.765625 14.9375 3.765625 33.5 
Q 3.765625 54.25 11.421875 63.671875 
Q 18.109375 71.875 29.4375 71.875 
Q 37.890625 71.875 43.28125 67.140625 
Q 48.6875 62.40625 49.75 54.046875 
z
M 13.875 23.1875 
Q 13.875 18.65625 15.796875 14.5 
Q 17.71875 10.359375 21.1875 8.171875 
Q 24.65625 6 28.46875 6 
Q 34.03125 6 38.03125 10.484375 
Q 42.046875 14.984375 42.046875 22.703125 
Q 42.046875 30.125 38.078125 34.390625 
Q 34.125 38.671875 28.125 38.671875 
Q 22.171875 38.671875 18.015625 34.390625 
Q 13.875 30.125 13.875 23.1875 
z
" id="ArialMT-54"/>
       </defs>
       <use xlink:href="#ArialMT-49"/>
       <use x="55.615234" xlink:href="#ArialMT-54"/>
      </g>
     </g>
    </g>
   </g>
   <g id="matplotlib.axis_2">
    <g id="ytick_1">
     <g id="line2d_11">
      <path clip-path="url(#p550573165e)" d="M 53.1374 422.184775 
L 298.9491 422.184775 
" style="fill:none;stroke:#ffffff;stroke-linecap:round;"/>
     </g>
     <g id="line2d_12"/>
     <g id="text_6">
      <!-- 20 -->
      <g style="fill:#262626;" transform="translate(32.79115 426.479463)scale(0.12 -0.12)">
       <use xlink:href="#ArialMT-50"/>
       <use x="55.615234" xlink:href="#ArialMT-48"/>
      </g>
     </g>
    </g>
    <g id="ytick_2">
     <g id="line2d_13">
      <path clip-path="url(#p550573165e)" d="M 53.1374 333.172184 
L 298.9491 333.172184 
" style="fill:none;stroke:#ffffff;stroke-linecap:round;"/>
     </g>
     <g id="line2d_14"/>
     <g id="text_7">
      <!-- 21 -->
      <g style="fill:#262626;" transform="translate(32.79115 337.466871)scale(0.12 -0.12)">
       <use xlink:href="#ArialMT-50"/>
       <use x="55.615234" xlink:href="#ArialMT-49"/>
      </g>
     </g>
    </g>
    <g id="ytick_3">
     <g id="line2d_15">
      <path clip-path="url(#p550573165e)" d="M 53.1374 244.159592 
L 298.9491 244.159592 
" style="fill:none;stroke:#ffffff;stroke-linecap:round;"/>
     </g>
     <g id="line2d_16"/>
     <g id="text_8">
      <!-- 22 -->
      <g style="fill:#262626;" transform="translate(32.79115 248.45428)scale(0.12 -0.12)">
       <use xlink:href="#ArialMT-50"/>
       <use x="55.615234" xlink:href="#ArialMT-50"/>
      </g>
     </g>
    </g>
    <g id="ytick_4">
     <g id="line2d_17">
      <path clip-path="url(#p550573165e)" d="M 53.1374 155.147001 
L 298.9491 155.147001 
" style="fill:none;stroke:#ffffff;stroke-linecap:round;"/>
     </g>
     <g id="line2d_18"/>
     <g id="text_9">
      <!-- 23 -->
      <g style="fill:#262626;" transform="translate(32.79115 159.441688)scale(0.12 -0.12)">
       <defs>
        <path d="M 4.203125 18.890625 
L 12.984375 20.0625 
Q 14.5 12.59375 18.140625 9.296875 
Q 21.78125 6 27 6 
Q 33.203125 6 37.46875 10.296875 
Q 41.75 14.59375 41.75 20.953125 
Q 41.75 27 37.796875 30.921875 
Q 33.84375 34.859375 27.734375 34.859375 
Q 25.25 34.859375 21.53125 33.890625 
L 22.515625 41.609375 
Q 23.390625 41.5 23.921875 41.5 
Q 29.546875 41.5 34.03125 44.421875 
Q 38.53125 47.359375 38.53125 53.46875 
Q 38.53125 58.296875 35.25 61.46875 
Q 31.984375 64.65625 26.8125 64.65625 
Q 21.6875 64.65625 18.265625 61.421875 
Q 14.84375 58.203125 13.875 51.765625 
L 5.078125 53.328125 
Q 6.6875 62.15625 12.390625 67.015625 
Q 18.109375 71.875 26.609375 71.875 
Q 32.46875 71.875 37.390625 69.359375 
Q 42.328125 66.84375 44.9375 62.5 
Q 47.5625 58.15625 47.5625 53.265625 
Q 47.5625 48.640625 45.0625 44.828125 
Q 42.578125 41.015625 37.703125 38.765625 
Q 44.046875 37.3125 47.5625 32.6875 
Q 51.078125 28.078125 51.078125 21.140625 
Q 51.078125 11.765625 44.234375 5.25 
Q 37.40625 -1.265625 26.953125 -1.265625 
Q 17.53125 -1.265625 11.296875 4.34375 
Q 5.078125 9.96875 4.203125 18.890625 
z
" id="ArialMT-51"/>
       </defs>
       <use xlink:href="#ArialMT-50"/>
       <use x="55.615234" xlink:href="#ArialMT-51"/>
      </g>
     </g>
    </g>
    <g id="ytick_5">
     <g id="line2d_19">
      <path clip-path="url(#p550573165e)" d="M 53.1374 66.13441 
L 298.9491 66.13441 
" style="fill:none;stroke:#ffffff;stroke-linecap:round;"/>
     </g>
     <g id="line2d_20"/>
     <g id="text_10">
      <!-- 24 -->
      <g style="fill:#262626;" transform="translate(32.79115 70.429097)scale(0.12 -0.12)">
       <use xlink:href="#ArialMT-50"/>
       <use x="55.615234" xlink:href="#ArialMT-52"/>
      </g>
     </g>
    </g>
   </g>
   <g id="line2d_21">
    <path clip-path="url(#p550573165e)" d="M 64.310659 49.916315 
L 76.071984 131.620973 
L 87.83331 201.549265 
L 99.594635 253.692841 
L 111.355961 300.976329 
L 123.117286 339.278447 
L 134.878611 361.389175 
L 146.639937 367.940502 
L 158.401262 376.013944 
L 170.162587 382.867913 
L 181.923913 391.288505 
L 193.685238 395.338577 
L 205.446563 398.996995 
L 217.207889 410.524126 
L 228.969214 413.45264 
L 240.730539 416.078511 
L 252.491865 419.843744 
L 264.25319 421.775317 
L 276.014516 425.905501 
L 287.775841 427.988396 
" style="fill:none;stroke:#4c72b0;stroke-linecap:round;stroke-width:1.75;"/>
   </g>
   <g id="patch_3">
    <path d="M 53.1374 446.892 
L 53.1374 31.012711 
" style="fill:none;"/>
   </g>
   <g id="patch_4">
    <path d="M 298.9491 446.892 
L 298.9491 31.012711 
" style="fill:none;"/>
   </g>
   <g id="patch_5">
    <path d="M 53.1374 446.892 
L 298.9491 446.892 
" style="fill:none;"/>
   </g>
   <g id="patch_6">
    <path d="M 53.1374 31.012711 
L 298.9491 31.012711 
" style="fill:none;"/>
   </g>
   <g id="text_11">
    <!-- mass -->
    <g style="fill:#262626;" transform="translate(161.708875 25.012711)scale(0.12 -0.12)">
     <defs>
      <path d="M 6.59375 0 
L 6.59375 51.859375 
L 14.453125 51.859375 
L 14.453125 44.578125 
Q 16.890625 48.390625 20.9375 50.703125 
Q 25 53.03125 30.171875 53.03125 
Q 35.9375 53.03125 39.625 50.640625 
Q 43.3125 48.25 44.828125 43.953125 
Q 50.984375 53.03125 60.84375 53.03125 
Q 68.5625 53.03125 72.703125 48.75 
Q 76.859375 44.484375 76.859375 35.59375 
L 76.859375 0 
L 68.109375 0 
L 68.109375 32.671875 
Q 68.109375 37.9375 67.25 40.25 
Q 66.40625 42.578125 64.15625 43.984375 
Q 61.921875 45.40625 58.890625 45.40625 
Q 53.421875 45.40625 49.796875 41.765625 
Q 46.1875 38.140625 46.1875 30.125 
L 46.1875 0 
L 37.40625 0 
L 37.40625 33.6875 
Q 37.40625 39.546875 35.25 42.46875 
Q 33.109375 45.40625 28.21875 45.40625 
Q 24.515625 45.40625 21.359375 43.453125 
Q 18.21875 41.5 16.796875 37.734375 
Q 15.375 33.984375 15.375 26.90625 
L 15.375 0 
z
" id="ArialMT-109"/>
      <path d="M 40.4375 6.390625 
Q 35.546875 2.25 31.03125 0.53125 
Q 26.515625 -1.171875 21.34375 -1.171875 
Q 12.796875 -1.171875 8.203125 3 
Q 3.609375 7.171875 3.609375 13.671875 
Q 3.609375 17.484375 5.34375 20.625 
Q 7.078125 23.78125 9.890625 25.6875 
Q 12.703125 27.59375 16.21875 28.5625 
Q 18.796875 29.25 24.03125 29.890625 
Q 34.671875 31.15625 39.703125 32.90625 
Q 39.75 34.71875 39.75 35.203125 
Q 39.75 40.578125 37.25 42.78125 
Q 33.890625 45.75 27.25 45.75 
Q 21.046875 45.75 18.09375 43.578125 
Q 15.140625 41.40625 13.71875 35.890625 
L 5.125 37.0625 
Q 6.296875 42.578125 8.984375 45.96875 
Q 11.671875 49.359375 16.75 51.1875 
Q 21.828125 53.03125 28.515625 53.03125 
Q 35.15625 53.03125 39.296875 51.46875 
Q 43.453125 49.90625 45.40625 47.53125 
Q 47.359375 45.171875 48.140625 41.546875 
Q 48.578125 39.3125 48.578125 33.453125 
L 48.578125 21.734375 
Q 48.578125 9.46875 49.140625 6.21875 
Q 49.703125 2.984375 51.375 0 
L 42.1875 0 
Q 40.828125 2.734375 40.4375 6.390625 
z
M 39.703125 26.03125 
Q 34.90625 24.078125 25.34375 22.703125 
Q 19.921875 21.921875 17.671875 20.9375 
Q 15.4375 19.96875 14.203125 18.09375 
Q 12.984375 16.21875 12.984375 13.921875 
Q 12.984375 10.40625 15.640625 8.0625 
Q 18.3125 5.71875 23.4375 5.71875 
Q 28.515625 5.71875 32.46875 7.9375 
Q 36.421875 10.15625 38.28125 14.015625 
Q 39.703125 17 39.703125 22.796875 
z
" id="ArialMT-97"/>
      <path d="M 3.078125 15.484375 
L 11.765625 16.84375 
Q 12.5 11.625 15.84375 8.84375 
Q 19.1875 6.0625 25.203125 6.0625 
Q 31.25 6.0625 34.171875 8.515625 
Q 37.109375 10.984375 37.109375 14.3125 
Q 37.109375 17.28125 34.515625 19 
Q 32.71875 20.171875 25.53125 21.96875 
Q 15.875 24.421875 12.140625 26.203125 
Q 8.40625 27.984375 6.46875 31.125 
Q 4.546875 34.28125 4.546875 38.09375 
Q 4.546875 41.546875 6.125 44.5 
Q 7.71875 47.46875 10.453125 49.421875 
Q 12.5 50.921875 16.03125 51.96875 
Q 19.578125 53.03125 23.640625 53.03125 
Q 29.734375 53.03125 34.34375 51.265625 
Q 38.96875 49.515625 41.15625 46.5 
Q 43.359375 43.5 44.1875 38.484375 
L 35.59375 37.3125 
Q 35.015625 41.3125 32.203125 43.546875 
Q 29.390625 45.796875 24.265625 45.796875 
Q 18.21875 45.796875 15.625 43.796875 
Q 13.03125 41.796875 13.03125 39.109375 
Q 13.03125 37.40625 14.109375 36.03125 
Q 15.1875 34.625 17.484375 33.6875 
Q 18.796875 33.203125 25.25 31.453125 
Q 34.578125 28.953125 38.25 27.359375 
Q 41.9375 25.78125 44.03125 22.75 
Q 46.140625 19.734375 46.140625 15.234375 
Q 46.140625 10.84375 43.578125 6.953125 
Q 41.015625 3.078125 36.171875 0.953125 
Q 31.34375 -1.171875 25.25 -1.171875 
Q 15.140625 -1.171875 9.84375 3.03125 
Q 4.546875 7.234375 3.078125 15.484375 
z
" id="ArialMT-115"/>
     </defs>
     <use xlink:href="#ArialMT-109"/>
     <use x="83.300781" xlink:href="#ArialMT-97"/>
     <use x="138.916016" xlink:href="#ArialMT-115"/>
     <use x="188.916016" xlink:href="#ArialMT-115"/>
    </g>
   </g>
   <g id="legend_1">
    <g id="line2d_22">
     <path d="M 255.193163 44.936305 
L 277.193163 44.936305 
" style="fill:none;stroke:#4c72b0;stroke-linecap:round;stroke-width:1.75;"/>
    </g>
    <g id="line2d_23"/>
    <g id="text_12">
     <!-- f -->
     <g style="fill:#262626;" transform="translate(285.993163 48.786305)scale(0.11 -0.11)">
      <defs>
       <path d="M 8.6875 0 
L 8.6875 45.015625 
L 0.921875 45.015625 
L 0.921875 51.859375 
L 8.6875 51.859375 
L 8.6875 57.375 
Q 8.6875 62.59375 9.625 65.140625 
Q 10.890625 68.5625 14.078125 70.671875 
Q 17.28125 72.796875 23.046875 72.796875 
Q 26.765625 72.796875 31.25 71.921875 
L 29.9375 64.265625 
Q 27.203125 64.75 24.75 64.75 
Q 20.75 64.75 19.09375 63.03125 
Q 17.4375 61.328125 17.4375 56.640625 
L 17.4375 51.859375 
L 27.546875 51.859375 
L 27.546875 45.015625 
L 17.4375 45.015625 
L 17.4375 0 
z
" id="ArialMT-102"/>
      </defs>
      <use xlink:href="#ArialMT-102"/>
     </g>
    </g>
   </g>
  </g>
  <g id="axes_2">
   <g id="patch_7">
    <path d="M 386.20235 212.620364 
L 632.01405 212.620364 
L 632.01405 31.012711 
L 386.20235 31.012711 
z
" style="fill:#eaeaf2;"/>
   </g>
   <g id="matplotlib.axis_3">
    <g id="xtick_6">
     <g id="line2d_24">
      <path clip-path="url(#p3d17991f53)" d="M 397.375609 212.620364 
L 397.375609 31.012711 
" style="fill:none;stroke:#ffffff;stroke-linecap:round;"/>
     </g>
     <g id="line2d_25"/>
     <g id="text_13">
      <!-- 0 -->
      <g style="fill:#262626;" transform="translate(394.039047 228.209739)scale(0.12 -0.12)">
       <use xlink:href="#ArialMT-48"/>
      </g>
     </g>
    </g>
    <g id="xtick_7">
     <g id="line2d_26">
      <path clip-path="url(#p3d17991f53)" d="M 444.420911 212.620364 
L 444.420911 31.012711 
" style="fill:none;stroke:#ffffff;stroke-linecap:round;"/>
     </g>
     <g id="line2d_27"/>
     <g id="text_14">
      <!-- 4 -->
      <g style="fill:#262626;" transform="translate(441.084348 228.209739)scale(0.12 -0.12)">
       <use xlink:href="#ArialMT-52"/>
      </g>
     </g>
    </g>
    <g id="xtick_8">
     <g id="line2d_28">
      <path clip-path="url(#p3d17991f53)" d="M 491.466212 212.620364 
L 491.466212 31.012711 
" style="fill:none;stroke:#ffffff;stroke-linecap:round;"/>
     </g>
     <g id="line2d_29"/>
     <g id="text_15">
      <!-- 8 -->
      <g style="fill:#262626;" transform="translate(488.129649 228.209739)scale(0.12 -0.12)">
       <use xlink:href="#ArialMT-56"/>
      </g>
     </g>
    </g>
    <g id="xtick_9">
     <g id="line2d_30">
      <path clip-path="url(#p3d17991f53)" d="M 538.511513 212.620364 
L 538.511513 31.012711 
" style="fill:none;stroke:#ffffff;stroke-linecap:round;"/>
     </g>
     <g id="line2d_31"/>
     <g id="text_16">
      <!-- 12 -->
      <g style="fill:#262626;" transform="translate(531.838388 228.209739)scale(0.12 -0.12)">
       <use xlink:href="#ArialMT-49"/>
       <use x="55.615234" xlink:href="#ArialMT-50"/>
      </g>
     </g>
    </g>
    <g id="xtick_10">
     <g id="line2d_32">
      <path clip-path="url(#p3d17991f53)" d="M 585.556815 212.620364 
L 585.556815 31.012711 
" style="fill:none;stroke:#ffffff;stroke-linecap:round;"/>
     </g>
     <g id="line2d_33"/>
     <g id="text_17">
      <!-- 16 -->
      <g style="fill:#262626;" transform="translate(578.88369 228.209739)scale(0.12 -0.12)">
       <use xlink:href="#ArialMT-49"/>
       <use x="55.615234" xlink:href="#ArialMT-54"/>
      </g>
     </g>
    </g>
   </g>
   <g id="matplotlib.axis_4">
    <g id="ytick_6">
     <g id="line2d_34">
      <path clip-path="url(#p3d17991f53)" d="M 386.20235 201.082872 
L 632.01405 201.082872 
" style="fill:none;stroke:#ffffff;stroke-linecap:round;"/>
     </g>
     <g id="line2d_35"/>
     <g id="text_18">
      <!-- 7790 -->
      <g style="fill:#262626;" transform="translate(352.50985 205.377559)scale(0.12 -0.12)">
       <defs>
        <path d="M 4.734375 62.203125 
L 4.734375 70.65625 
L 51.078125 70.65625 
L 51.078125 63.8125 
Q 44.234375 56.546875 37.515625 44.484375 
Q 30.8125 32.421875 27.15625 19.671875 
Q 24.515625 10.6875 23.78125 0 
L 14.75 0 
Q 14.890625 8.453125 18.0625 20.40625 
Q 21.234375 32.375 27.171875 43.484375 
Q 33.109375 54.59375 39.796875 62.203125 
z
" id="ArialMT-55"/>
        <path d="M 5.46875 16.546875 
L 13.921875 17.328125 
Q 14.984375 11.375 18.015625 8.6875 
Q 21.046875 6 25.78125 6 
Q 29.828125 6 32.875 7.859375 
Q 35.9375 9.71875 37.890625 12.8125 
Q 39.84375 15.921875 41.15625 21.1875 
Q 42.484375 26.46875 42.484375 31.9375 
Q 42.484375 32.515625 42.4375 33.6875 
Q 39.796875 29.5 35.234375 26.875 
Q 30.671875 24.265625 25.34375 24.265625 
Q 16.453125 24.265625 10.296875 30.703125 
Q 4.15625 37.15625 4.15625 47.703125 
Q 4.15625 58.59375 10.578125 65.234375 
Q 17 71.875 26.65625 71.875 
Q 33.640625 71.875 39.421875 68.109375 
Q 45.21875 64.359375 48.21875 57.390625 
Q 51.21875 50.4375 51.21875 37.25 
Q 51.21875 23.53125 48.234375 15.40625 
Q 45.265625 7.28125 39.375 3.03125 
Q 33.5 -1.21875 25.59375 -1.21875 
Q 17.1875 -1.21875 11.859375 3.4375 
Q 6.546875 8.109375 5.46875 16.546875 
z
M 41.453125 48.140625 
Q 41.453125 55.71875 37.421875 60.15625 
Q 33.40625 64.59375 27.734375 64.59375 
Q 21.875 64.59375 17.53125 59.8125 
Q 13.1875 55.03125 13.1875 47.40625 
Q 13.1875 40.578125 17.3125 36.296875 
Q 21.4375 32.03125 27.484375 32.03125 
Q 33.59375 32.03125 37.515625 36.296875 
Q 41.453125 40.578125 41.453125 48.140625 
z
" id="ArialMT-57"/>
       </defs>
       <use xlink:href="#ArialMT-55"/>
       <use x="55.615234" xlink:href="#ArialMT-55"/>
       <use x="111.230469" xlink:href="#ArialMT-57"/>
       <use x="166.845703" xlink:href="#ArialMT-48"/>
      </g>
     </g>
    </g>
    <g id="ytick_7">
     <g id="line2d_36">
      <path clip-path="url(#p3d17991f53)" d="M 386.20235 158.998277 
L 632.01405 158.998277 
" style="fill:none;stroke:#ffffff;stroke-linecap:round;"/>
     </g>
     <g id="line2d_37"/>
     <g id="text_19">
      <!-- 7800 -->
      <g style="fill:#262626;" transform="translate(352.50985 163.292965)scale(0.12 -0.12)">
       <use xlink:href="#ArialMT-55"/>
       <use x="55.615234" xlink:href="#ArialMT-56"/>
       <use x="111.230469" xlink:href="#ArialMT-48"/>
       <use x="166.845703" xlink:href="#ArialMT-48"/>
      </g>
     </g>
    </g>
    <g id="ytick_8">
     <g id="line2d_38">
      <path clip-path="url(#p3d17991f53)" d="M 386.20235 116.913682 
L 632.01405 116.913682 
" style="fill:none;stroke:#ffffff;stroke-linecap:round;"/>
     </g>
     <g id="line2d_39"/>
     <g id="text_20">
      <!-- 7810 -->
      <g style="fill:#262626;" transform="translate(352.50985 121.20837)scale(0.12 -0.12)">
       <use xlink:href="#ArialMT-55"/>
       <use x="55.615234" xlink:href="#ArialMT-56"/>
       <use x="111.230469" xlink:href="#ArialMT-49"/>
       <use x="166.845703" xlink:href="#ArialMT-48"/>
      </g>
     </g>
    </g>
    <g id="ytick_9">
     <g id="line2d_40">
      <path clip-path="url(#p3d17991f53)" d="M 386.20235 74.829087 
L 632.01405 74.829087 
" style="fill:none;stroke:#ffffff;stroke-linecap:round;"/>
     </g>
     <g id="line2d_41"/>
     <g id="text_21">
      <!-- 7820 -->
      <g style="fill:#262626;" transform="translate(352.50985 79.123775)scale(0.12 -0.12)">
       <use xlink:href="#ArialMT-55"/>
       <use x="55.615234" xlink:href="#ArialMT-56"/>
       <use x="111.230469" xlink:href="#ArialMT-50"/>
       <use x="166.845703" xlink:href="#ArialMT-48"/>
      </g>
     </g>
    </g>
    <g id="ytick_10">
     <g id="line2d_42">
      <path clip-path="url(#p3d17991f53)" d="M 386.20235 32.744492 
L 632.01405 32.744492 
" style="fill:none;stroke:#ffffff;stroke-linecap:round;"/>
     </g>
     <g id="line2d_43"/>
     <g id="text_22">
      <!-- 7830 -->
      <g style="fill:#262626;" transform="translate(352.50985 37.03918)scale(0.12 -0.12)">
       <use xlink:href="#ArialMT-55"/>
       <use x="55.615234" xlink:href="#ArialMT-56"/>
       <use x="111.230469" xlink:href="#ArialMT-51"/>
       <use x="166.845703" xlink:href="#ArialMT-48"/>
      </g>
     </g>
    </g>
   </g>
   <g id="line2d_44">
    <path clip-path="url(#p3d17991f53)" d="M 397.375609 204.36547 
L 409.136934 78.23794 
L 420.89826 39.267605 
L 432.659585 75.334102 
L 444.420911 84.92939 
L 456.182236 112.116038 
L 467.943561 130.843683 
L 479.704887 155.799848 
L 491.466212 168.214803 
L 503.227537 160.723745 
L 514.988863 143.384892 
L 526.750188 162.617552 
L 538.511513 190.267131 
L 550.272839 154.958156 
L 562.034164 164.090513 
L 573.795489 162.575468 
L 585.556815 161.439184 
L 597.31814 164.932205 
L 609.079466 158.240754 
L 620.840791 165.815981 
" style="fill:none;stroke:#4c72b0;stroke-linecap:round;stroke-width:1.75;"/>
   </g>
   <g id="line2d_45">
    <path clip-path="url(#p3d17991f53)" d="M 397.375609 204.36547 
L 409.136934 204.36547 
L 420.89826 204.36547 
L 432.659585 204.36547 
L 444.420911 204.36547 
L 456.182236 204.36547 
L 467.943561 204.36547 
L 479.704887 204.36547 
L 491.466212 204.36547 
L 503.227537 204.36547 
L 514.988863 204.36547 
L 526.750188 204.36547 
L 538.511513 204.36547 
L 550.272839 204.36547 
L 562.034164 204.36547 
L 573.795489 204.36547 
L 585.556815 204.36547 
L 597.31814 204.36547 
L 609.079466 204.36547 
L 620.840791 204.36547 
" style="fill:none;stroke:#55a868;stroke-linecap:round;stroke-width:1.75;"/>
   </g>
   <g id="patch_8">
    <path d="M 386.20235 212.620364 
L 386.20235 31.012711 
" style="fill:none;"/>
   </g>
   <g id="patch_9">
    <path d="M 632.01405 212.620364 
L 632.01405 31.012711 
" style="fill:none;"/>
   </g>
   <g id="patch_10">
    <path d="M 386.20235 212.620364 
L 632.01405 212.620364 
" style="fill:none;"/>
   </g>
   <g id="patch_11">
    <path d="M 386.20235 31.012711 
L 632.01405 31.012711 
" style="fill:none;"/>
   </g>
   <g id="text_23">
    <!-- strain energy: main load -->
    <g style="fill:#262626;" transform="translate(445.078825 25.012711)scale(0.12 -0.12)">
     <defs>
      <path d="M 25.78125 7.859375 
L 27.046875 0.09375 
Q 23.34375 -0.6875 20.40625 -0.6875 
Q 15.625 -0.6875 12.984375 0.828125 
Q 10.359375 2.34375 9.28125 4.8125 
Q 8.203125 7.28125 8.203125 15.1875 
L 8.203125 45.015625 
L 1.765625 45.015625 
L 1.765625 51.859375 
L 8.203125 51.859375 
L 8.203125 64.703125 
L 16.9375 69.96875 
L 16.9375 51.859375 
L 25.78125 51.859375 
L 25.78125 45.015625 
L 16.9375 45.015625 
L 16.9375 14.703125 
Q 16.9375 10.9375 17.40625 9.859375 
Q 17.875 8.796875 18.921875 8.15625 
Q 19.96875 7.515625 21.921875 7.515625 
Q 23.390625 7.515625 25.78125 7.859375 
z
" id="ArialMT-116"/>
      <path d="M 6.5 0 
L 6.5 51.859375 
L 14.40625 51.859375 
L 14.40625 44 
Q 17.4375 49.515625 20 51.265625 
Q 22.5625 53.03125 25.640625 53.03125 
Q 30.078125 53.03125 34.671875 50.203125 
L 31.640625 42.046875 
Q 28.421875 43.953125 25.203125 43.953125 
Q 22.3125 43.953125 20.015625 42.21875 
Q 17.71875 40.484375 16.75 37.40625 
Q 15.28125 32.71875 15.28125 27.15625 
L 15.28125 0 
z
" id="ArialMT-114"/>
      <path d="M 6.640625 61.46875 
L 6.640625 71.578125 
L 15.4375 71.578125 
L 15.4375 61.46875 
z
M 6.640625 0 
L 6.640625 51.859375 
L 15.4375 51.859375 
L 15.4375 0 
z
" id="ArialMT-105"/>
      <path d="M 6.59375 0 
L 6.59375 51.859375 
L 14.5 51.859375 
L 14.5 44.484375 
Q 20.21875 53.03125 31 53.03125 
Q 35.6875 53.03125 39.625 51.34375 
Q 43.5625 49.65625 45.515625 46.921875 
Q 47.46875 44.1875 48.25 40.4375 
Q 48.734375 37.984375 48.734375 31.890625 
L 48.734375 0 
L 39.9375 0 
L 39.9375 31.546875 
Q 39.9375 36.921875 38.90625 39.578125 
Q 37.890625 42.234375 35.28125 43.8125 
Q 32.671875 45.40625 29.15625 45.40625 
Q 23.53125 45.40625 19.453125 41.84375 
Q 15.375 38.28125 15.375 28.328125 
L 15.375 0 
z
" id="ArialMT-110"/>
      <path id="ArialMT-32"/>
      <path d="M 42.09375 16.703125 
L 51.171875 15.578125 
Q 49.03125 7.625 43.21875 3.21875 
Q 37.40625 -1.171875 28.375 -1.171875 
Q 17 -1.171875 10.328125 5.828125 
Q 3.65625 12.84375 3.65625 25.484375 
Q 3.65625 38.578125 10.390625 45.796875 
Q 17.140625 53.03125 27.875 53.03125 
Q 38.28125 53.03125 44.875 45.953125 
Q 51.46875 38.875 51.46875 26.03125 
Q 51.46875 25.25 51.421875 23.6875 
L 12.75 23.6875 
Q 13.234375 15.140625 17.578125 10.59375 
Q 21.921875 6.0625 28.421875 6.0625 
Q 33.25 6.0625 36.671875 8.59375 
Q 40.09375 11.140625 42.09375 16.703125 
z
M 13.234375 30.90625 
L 42.1875 30.90625 
Q 41.609375 37.453125 38.875 40.71875 
Q 34.671875 45.796875 27.984375 45.796875 
Q 21.921875 45.796875 17.796875 41.75 
Q 13.671875 37.703125 13.234375 30.90625 
z
" id="ArialMT-101"/>
      <path d="M 4.984375 -4.296875 
L 13.53125 -5.5625 
Q 14.0625 -9.515625 16.5 -11.328125 
Q 19.78125 -13.765625 25.4375 -13.765625 
Q 31.546875 -13.765625 34.859375 -11.328125 
Q 38.1875 -8.890625 39.359375 -4.5 
Q 40.046875 -1.8125 39.984375 6.78125 
Q 34.234375 0 25.640625 0 
Q 14.9375 0 9.078125 7.71875 
Q 3.21875 15.4375 3.21875 26.21875 
Q 3.21875 33.640625 5.90625 39.90625 
Q 8.59375 46.1875 13.6875 49.609375 
Q 18.796875 53.03125 25.6875 53.03125 
Q 34.859375 53.03125 40.828125 45.609375 
L 40.828125 51.859375 
L 48.921875 51.859375 
L 48.921875 7.03125 
Q 48.921875 -5.078125 46.453125 -10.125 
Q 44 -15.1875 38.640625 -18.109375 
Q 33.296875 -21.046875 25.484375 -21.046875 
Q 16.21875 -21.046875 10.5 -16.875 
Q 4.78125 -12.703125 4.984375 -4.296875 
z
M 12.25 26.859375 
Q 12.25 16.65625 16.296875 11.96875 
Q 20.359375 7.28125 26.46875 7.28125 
Q 32.515625 7.28125 36.609375 11.9375 
Q 40.71875 16.609375 40.71875 26.5625 
Q 40.71875 36.078125 36.5 40.90625 
Q 32.28125 45.75 26.3125 45.75 
Q 20.453125 45.75 16.34375 40.984375 
Q 12.25 36.234375 12.25 26.859375 
z
" id="ArialMT-103"/>
      <path d="M 6.203125 -19.96875 
L 5.21875 -11.71875 
Q 8.109375 -12.5 10.25 -12.5 
Q 13.1875 -12.5 14.9375 -11.515625 
Q 16.703125 -10.546875 17.828125 -8.796875 
Q 18.65625 -7.46875 20.515625 -2.25 
Q 20.75 -1.515625 21.296875 -0.09375 
L 1.609375 51.859375 
L 11.078125 51.859375 
L 21.875 21.828125 
Q 23.96875 16.109375 25.640625 9.8125 
Q 27.15625 15.875 29.25 21.625 
L 40.328125 51.859375 
L 49.125 51.859375 
L 29.390625 -0.875 
Q 26.21875 -9.421875 24.46875 -12.640625 
Q 22.125 -17 19.09375 -19.015625 
Q 16.0625 -21.046875 11.859375 -21.046875 
Q 9.328125 -21.046875 6.203125 -19.96875 
z
" id="ArialMT-121"/>
      <path d="M 9.03125 41.84375 
L 9.03125 51.859375 
L 19.046875 51.859375 
L 19.046875 41.84375 
z
M 9.03125 0 
L 9.03125 10.015625 
L 19.046875 10.015625 
L 19.046875 0 
z
" id="ArialMT-58"/>
      <path d="M 6.390625 0 
L 6.390625 71.578125 
L 15.1875 71.578125 
L 15.1875 0 
z
" id="ArialMT-108"/>
      <path d="M 3.328125 25.921875 
Q 3.328125 40.328125 11.328125 47.265625 
Q 18.015625 53.03125 27.640625 53.03125 
Q 38.328125 53.03125 45.109375 46.015625 
Q 51.90625 39.015625 51.90625 26.65625 
Q 51.90625 16.65625 48.90625 10.90625 
Q 45.90625 5.171875 40.15625 2 
Q 34.421875 -1.171875 27.640625 -1.171875 
Q 16.75 -1.171875 10.03125 5.8125 
Q 3.328125 12.796875 3.328125 25.921875 
z
M 12.359375 25.921875 
Q 12.359375 15.96875 16.703125 11.015625 
Q 21.046875 6.0625 27.640625 6.0625 
Q 34.1875 6.0625 38.53125 11.03125 
Q 42.875 16.015625 42.875 26.21875 
Q 42.875 35.84375 38.5 40.796875 
Q 34.125 45.75 27.640625 45.75 
Q 21.046875 45.75 16.703125 40.8125 
Q 12.359375 35.890625 12.359375 25.921875 
z
" id="ArialMT-111"/>
      <path d="M 40.234375 0 
L 40.234375 6.546875 
Q 35.296875 -1.171875 25.734375 -1.171875 
Q 19.53125 -1.171875 14.328125 2.25 
Q 9.125 5.671875 6.265625 11.796875 
Q 3.421875 17.921875 3.421875 25.875 
Q 3.421875 33.640625 6 39.96875 
Q 8.59375 46.296875 13.765625 49.65625 
Q 18.953125 53.03125 25.34375 53.03125 
Q 30.03125 53.03125 33.6875 51.046875 
Q 37.359375 49.078125 39.65625 45.90625 
L 39.65625 71.578125 
L 48.390625 71.578125 
L 48.390625 0 
z
M 12.453125 25.875 
Q 12.453125 15.921875 16.640625 10.984375 
Q 20.84375 6.0625 26.5625 6.0625 
Q 32.328125 6.0625 36.34375 10.765625 
Q 40.375 15.484375 40.375 25.140625 
Q 40.375 35.796875 36.265625 40.765625 
Q 32.171875 45.75 26.171875 45.75 
Q 20.3125 45.75 16.375 40.96875 
Q 12.453125 36.1875 12.453125 25.875 
z
" id="ArialMT-100"/>
     </defs>
     <use xlink:href="#ArialMT-115"/>
     <use x="50" xlink:href="#ArialMT-116"/>
     <use x="77.783203" xlink:href="#ArialMT-114"/>
     <use x="111.083984" xlink:href="#ArialMT-97"/>
     <use x="166.699219" xlink:href="#ArialMT-105"/>
     <use x="188.916016" xlink:href="#ArialMT-110"/>
     <use x="244.53125" xlink:href="#ArialMT-32"/>
     <use x="272.314453" xlink:href="#ArialMT-101"/>
     <use x="327.929688" xlink:href="#ArialMT-110"/>
     <use x="383.544922" xlink:href="#ArialMT-101"/>
     <use x="439.160156" xlink:href="#ArialMT-114"/>
     <use x="472.460938" xlink:href="#ArialMT-103"/>
     <use x="528.076172" xlink:href="#ArialMT-121"/>
     <use x="578.076172" xlink:href="#ArialMT-58"/>
     <use x="605.859375" xlink:href="#ArialMT-32"/>
     <use x="633.642578" xlink:href="#ArialMT-109"/>
     <use x="716.943359" xlink:href="#ArialMT-97"/>
     <use x="772.558594" xlink:href="#ArialMT-105"/>
     <use x="794.775391" xlink:href="#ArialMT-110"/>
     <use x="850.390625" xlink:href="#ArialMT-32"/>
     <use x="878.173828" xlink:href="#ArialMT-108"/>
     <use x="900.390625" xlink:href="#ArialMT-111"/>
     <use x="956.005859" xlink:href="#ArialMT-97"/>
     <use x="1011.621094" xlink:href="#ArialMT-100"/>
    </g>
   </g>
   <g id="legend_2">
    <g id="line2d_46">
     <path d="M 560.735769 44.936305 
L 582.735769 44.936305 
" style="fill:none;stroke:#4c72b0;stroke-linecap:round;stroke-width:1.75;"/>
    </g>
    <g id="line2d_47"/>
    <g id="text_24">
     <!-- c1: &lt;= -->
     <g style="fill:#262626;" transform="translate(591.535769 48.786305)scale(0.11 -0.11)">
      <defs>
       <path d="M 40.4375 19 
L 49.078125 17.875 
Q 47.65625 8.9375 41.8125 3.875 
Q 35.984375 -1.171875 27.484375 -1.171875 
Q 16.84375 -1.171875 10.375 5.78125 
Q 3.90625 12.75 3.90625 25.734375 
Q 3.90625 34.125 6.6875 40.421875 
Q 9.46875 46.734375 15.15625 49.875 
Q 20.84375 53.03125 27.546875 53.03125 
Q 35.984375 53.03125 41.359375 48.75 
Q 46.734375 44.484375 48.25 36.625 
L 39.703125 35.296875 
Q 38.484375 40.53125 35.375 43.15625 
Q 32.28125 45.796875 27.875 45.796875 
Q 21.234375 45.796875 17.078125 41.03125 
Q 12.9375 36.28125 12.9375 25.984375 
Q 12.9375 15.53125 16.9375 10.796875 
Q 20.953125 6.0625 27.390625 6.0625 
Q 32.5625 6.0625 36.03125 9.234375 
Q 39.5 12.40625 40.4375 19 
z
" id="ArialMT-99"/>
       <path d="M 5.46875 31.296875 
L 5.46875 39.5 
L 52.875 59.515625 
L 52.875 50.78125 
L 15.28125 35.359375 
L 52.875 19.78125 
L 52.875 11.03125 
z
" id="ArialMT-60"/>
       <path d="M 52.828125 42.09375 
L 5.5625 42.09375 
L 5.5625 50.296875 
L 52.828125 50.296875 
z
M 52.828125 20.359375 
L 5.5625 20.359375 
L 5.5625 28.5625 
L 52.828125 28.5625 
z
" id="ArialMT-61"/>
      </defs>
      <use xlink:href="#ArialMT-99"/>
      <use x="50" xlink:href="#ArialMT-49"/>
      <use x="105.615234" xlink:href="#ArialMT-58"/>
      <use x="133.398438" xlink:href="#ArialMT-32"/>
      <use x="161.181641" xlink:href="#ArialMT-60"/>
      <use x="219.580078" xlink:href="#ArialMT-61"/>
     </g>
    </g>
    <g id="line2d_48">
     <path d="M 560.735769 60.630211 
L 582.735769 60.630211 
" style="fill:none;stroke:#55a868;stroke-linecap:round;stroke-width:1.75;"/>
    </g>
    <g id="line2d_49"/>
    <g id="text_25">
     <!-- c1_ref -->
     <g style="fill:#262626;" transform="translate(591.535769 64.480211)scale(0.11 -0.11)">
      <defs>
       <path d="M -1.515625 -19.875 
L -1.515625 -13.53125 
L 56.734375 -13.53125 
L 56.734375 -19.875 
z
" id="ArialMT-95"/>
      </defs>
      <use xlink:href="#ArialMT-99"/>
      <use x="50" xlink:href="#ArialMT-49"/>
      <use x="105.615234" xlink:href="#ArialMT-95"/>
      <use x="161.230469" xlink:href="#ArialMT-114"/>
      <use x="194.53125" xlink:href="#ArialMT-101"/>
      <use x="250.146484" xlink:href="#ArialMT-102"/>
     </g>
    </g>
   </g>
  </g>
  <g id="axes_3">
   <g id="patch_12">
    <path d="M 719.2673 212.620364 
L 965.079 212.620364 
L 965.079 31.012711 
L 719.2673 31.012711 
z
" style="fill:#eaeaf2;"/>
   </g>
   <g id="matplotlib.axis_5">
    <g id="xtick_11">
     <g id="line2d_50">
      <path clip-path="url(#p8b75c643a9)" d="M 730.440559 212.620364 
L 730.440559 31.012711 
" style="fill:none;stroke:#ffffff;stroke-linecap:round;"/>
     </g>
     <g id="line2d_51"/>
     <g id="text_26">
      <!-- 0 -->
      <g style="fill:#262626;" transform="translate(727.103997 228.209739)scale(0.12 -0.12)">
       <use xlink:href="#ArialMT-48"/>
      </g>
     </g>
    </g>
    <g id="xtick_12">
     <g id="line2d_52">
      <path clip-path="url(#p8b75c643a9)" d="M 777.485861 212.620364 
L 777.485861 31.012711 
" style="fill:none;stroke:#ffffff;stroke-linecap:round;"/>
     </g>
     <g id="line2d_53"/>
     <g id="text_27">
      <!-- 4 -->
      <g style="fill:#262626;" transform="translate(774.149298 228.209739)scale(0.12 -0.12)">
       <use xlink:href="#ArialMT-52"/>
      </g>
     </g>
    </g>
    <g id="xtick_13">
     <g id="line2d_54">
      <path clip-path="url(#p8b75c643a9)" d="M 824.531162 212.620364 
L 824.531162 31.012711 
" style="fill:none;stroke:#ffffff;stroke-linecap:round;"/>
     </g>
     <g id="line2d_55"/>
     <g id="text_28">
      <!-- 8 -->
      <g style="fill:#262626;" transform="translate(821.194599 228.209739)scale(0.12 -0.12)">
       <use xlink:href="#ArialMT-56"/>
      </g>
     </g>
    </g>
    <g id="xtick_14">
     <g id="line2d_56">
      <path clip-path="url(#p8b75c643a9)" d="M 871.576463 212.620364 
L 871.576463 31.012711 
" style="fill:none;stroke:#ffffff;stroke-linecap:round;"/>
     </g>
     <g id="line2d_57"/>
     <g id="text_29">
      <!-- 12 -->
      <g style="fill:#262626;" transform="translate(864.903338 228.209739)scale(0.12 -0.12)">
       <use xlink:href="#ArialMT-49"/>
       <use x="55.615234" xlink:href="#ArialMT-50"/>
      </g>
     </g>
    </g>
    <g id="xtick_15">
     <g id="line2d_58">
      <path clip-path="url(#p8b75c643a9)" d="M 918.621765 212.620364 
L 918.621765 31.012711 
" style="fill:none;stroke:#ffffff;stroke-linecap:round;"/>
     </g>
     <g id="line2d_59"/>
     <g id="text_30">
      <!-- 16 -->
      <g style="fill:#262626;" transform="translate(911.94864 228.209739)scale(0.12 -0.12)">
       <use xlink:href="#ArialMT-49"/>
       <use x="55.615234" xlink:href="#ArialMT-54"/>
      </g>
     </g>
    </g>
   </g>
   <g id="matplotlib.axis_6">
    <g id="ytick_11">
     <g id="line2d_60">
      <path clip-path="url(#p8b75c643a9)" d="M 719.2673 197.84581 
L 965.079 197.84581 
" style="fill:none;stroke:#ffffff;stroke-linecap:round;"/>
     </g>
     <g id="line2d_61"/>
     <g id="text_31">
      <!-- 24550 -->
      <g style="fill:#262626;" transform="translate(678.901675 202.140497)scale(0.12 -0.12)">
       <defs>
        <path d="M 4.15625 18.75 
L 13.375 19.53125 
Q 14.40625 12.796875 18.140625 9.390625 
Q 21.875 6 27.15625 6 
Q 33.5 6 37.890625 10.78125 
Q 42.28125 15.578125 42.28125 23.484375 
Q 42.28125 31 38.0625 35.34375 
Q 33.84375 39.703125 27 39.703125 
Q 22.75 39.703125 19.328125 37.765625 
Q 15.921875 35.84375 13.96875 32.765625 
L 5.71875 33.84375 
L 12.640625 70.609375 
L 48.25 70.609375 
L 48.25 62.203125 
L 19.671875 62.203125 
L 15.828125 42.96875 
Q 22.265625 47.46875 29.34375 47.46875 
Q 38.71875 47.46875 45.15625 40.96875 
Q 51.609375 34.46875 51.609375 24.265625 
Q 51.609375 14.546875 45.953125 7.46875 
Q 39.0625 -1.21875 27.15625 -1.21875 
Q 17.390625 -1.21875 11.203125 4.25 
Q 5.03125 9.71875 4.15625 18.75 
z
" id="ArialMT-53"/>
       </defs>
       <use xlink:href="#ArialMT-50"/>
       <use x="55.615234" xlink:href="#ArialMT-52"/>
       <use x="111.230469" xlink:href="#ArialMT-53"/>
       <use x="166.845703" xlink:href="#ArialMT-53"/>
       <use x="222.460938" xlink:href="#ArialMT-48"/>
      </g>
     </g>
    </g>
    <g id="ytick_12">
     <g id="line2d_62">
      <path clip-path="url(#p8b75c643a9)" d="M 719.2673 147.694575 
L 965.079 147.694575 
" style="fill:none;stroke:#ffffff;stroke-linecap:round;"/>
     </g>
     <g id="line2d_63"/>
     <g id="text_32">
      <!-- 24600 -->
      <g style="fill:#262626;" transform="translate(678.901675 151.989262)scale(0.12 -0.12)">
       <use xlink:href="#ArialMT-50"/>
       <use x="55.615234" xlink:href="#ArialMT-52"/>
       <use x="111.230469" xlink:href="#ArialMT-54"/>
       <use x="166.845703" xlink:href="#ArialMT-48"/>
       <use x="222.460938" xlink:href="#ArialMT-48"/>
      </g>
     </g>
    </g>
    <g id="ytick_13">
     <g id="line2d_64">
      <path clip-path="url(#p8b75c643a9)" d="M 719.2673 97.54334 
L 965.079 97.54334 
" style="fill:none;stroke:#ffffff;stroke-linecap:round;"/>
     </g>
     <g id="line2d_65"/>
     <g id="text_33">
      <!-- 24650 -->
      <g style="fill:#262626;" transform="translate(678.901675 101.838027)scale(0.12 -0.12)">
       <use xlink:href="#ArialMT-50"/>
       <use x="55.615234" xlink:href="#ArialMT-52"/>
       <use x="111.230469" xlink:href="#ArialMT-54"/>
       <use x="166.845703" xlink:href="#ArialMT-53"/>
       <use x="222.460938" xlink:href="#ArialMT-48"/>
      </g>
     </g>
    </g>
    <g id="ytick_14">
     <g id="line2d_66">
      <path clip-path="url(#p8b75c643a9)" d="M 719.2673 47.392105 
L 965.079 47.392105 
" style="fill:none;stroke:#ffffff;stroke-linecap:round;"/>
     </g>
     <g id="line2d_67"/>
     <g id="text_34">
      <!-- 24700 -->
      <g style="fill:#262626;" transform="translate(678.901675 51.686792)scale(0.12 -0.12)">
       <use xlink:href="#ArialMT-50"/>
       <use x="55.615234" xlink:href="#ArialMT-52"/>
       <use x="111.230469" xlink:href="#ArialMT-55"/>
       <use x="166.845703" xlink:href="#ArialMT-48"/>
       <use x="222.460938" xlink:href="#ArialMT-48"/>
      </g>
     </g>
    </g>
   </g>
   <g id="line2d_68">
    <path clip-path="url(#p8b75c643a9)" d="M 730.440559 204.36547 
L 742.201884 39.267605 
L 753.96321 92.929426 
L 765.724535 125.327124 
L 777.485861 126.330149 
L 789.247186 139.77068 
L 801.008511 152.609396 
L 812.769837 185.608908 
L 824.531162 180.894692 
L 836.292487 186.511631 
L 848.053813 174.174427 
L 859.815138 187.213748 
L 871.576463 191.326149 
L 883.337789 179.891668 
L 895.099114 185.909816 
L 906.860439 185.809513 
L 918.621765 187.213748 
L 930.38309 188.818587 
L 942.144416 186.812538 
L 953.905741 189.821612 
" style="fill:none;stroke:#4c72b0;stroke-linecap:round;stroke-width:1.75;"/>
   </g>
   <g id="line2d_69">
    <path clip-path="url(#p8b75c643a9)" d="M 730.440559 204.36547 
L 742.201884 204.36547 
L 753.96321 204.36547 
L 765.724535 204.36547 
L 777.485861 204.36547 
L 789.247186 204.36547 
L 801.008511 204.36547 
L 812.769837 204.36547 
L 824.531162 204.36547 
L 836.292487 204.36547 
L 848.053813 204.36547 
L 859.815138 204.36547 
L 871.576463 204.36547 
L 883.337789 204.36547 
L 895.099114 204.36547 
L 906.860439 204.36547 
L 918.621765 204.36547 
L 930.38309 204.36547 
L 942.144416 204.36547 
L 953.905741 204.36547 
" style="fill:none;stroke:#55a868;stroke-linecap:round;stroke-width:1.75;"/>
   </g>
   <g id="patch_13">
    <path d="M 719.2673 212.620364 
L 719.2673 31.012711 
" style="fill:none;"/>
   </g>
   <g id="patch_14">
    <path d="M 965.079 212.620364 
L 965.079 31.012711 
" style="fill:none;"/>
   </g>
   <g id="patch_15">
    <path d="M 719.2673 212.620364 
L 965.079 212.620364 
" style="fill:none;"/>
   </g>
   <g id="patch_16">
    <path d="M 719.2673 31.012711 
L 965.079 31.012711 
" style="fill:none;"/>
   </g>
   <g id="text_35">
    <!-- strain energy: tip load -->
    <g style="fill:#262626;" transform="translate(784.811275 25.012711)scale(0.12 -0.12)">
     <defs>
      <path d="M 6.59375 -19.875 
L 6.59375 51.859375 
L 14.59375 51.859375 
L 14.59375 45.125 
Q 17.4375 49.078125 21 51.046875 
Q 24.5625 53.03125 29.640625 53.03125 
Q 36.28125 53.03125 41.359375 49.609375 
Q 46.4375 46.1875 49.015625 39.953125 
Q 51.609375 33.734375 51.609375 26.3125 
Q 51.609375 18.359375 48.75 11.984375 
Q 45.90625 5.609375 40.453125 2.21875 
Q 35.015625 -1.171875 29 -1.171875 
Q 24.609375 -1.171875 21.109375 0.6875 
Q 17.625 2.546875 15.375 5.375 
L 15.375 -19.875 
z
M 14.546875 25.640625 
Q 14.546875 15.625 18.59375 10.84375 
Q 22.65625 6.0625 28.421875 6.0625 
Q 34.28125 6.0625 38.453125 11.015625 
Q 42.625 15.96875 42.625 26.375 
Q 42.625 36.28125 38.546875 41.203125 
Q 34.46875 46.140625 28.8125 46.140625 
Q 23.1875 46.140625 18.859375 40.890625 
Q 14.546875 35.640625 14.546875 25.640625 
z
" id="ArialMT-112"/>
     </defs>
     <use xlink:href="#ArialMT-115"/>
     <use x="50" xlink:href="#ArialMT-116"/>
     <use x="77.783203" xlink:href="#ArialMT-114"/>
     <use x="111.083984" xlink:href="#ArialMT-97"/>
     <use x="166.699219" xlink:href="#ArialMT-105"/>
     <use x="188.916016" xlink:href="#ArialMT-110"/>
     <use x="244.53125" xlink:href="#ArialMT-32"/>
     <use x="272.314453" xlink:href="#ArialMT-101"/>
     <use x="327.929688" xlink:href="#ArialMT-110"/>
     <use x="383.544922" xlink:href="#ArialMT-101"/>
     <use x="439.160156" xlink:href="#ArialMT-114"/>
     <use x="472.460938" xlink:href="#ArialMT-103"/>
     <use x="528.076172" xlink:href="#ArialMT-121"/>
     <use x="578.076172" xlink:href="#ArialMT-58"/>
     <use x="605.859375" xlink:href="#ArialMT-32"/>
     <use x="633.642578" xlink:href="#ArialMT-116"/>
     <use x="661.425781" xlink:href="#ArialMT-105"/>
     <use x="683.642578" xlink:href="#ArialMT-112"/>
     <use x="739.257812" xlink:href="#ArialMT-32"/>
     <use x="767.041016" xlink:href="#ArialMT-108"/>
     <use x="789.257812" xlink:href="#ArialMT-111"/>
     <use x="844.873047" xlink:href="#ArialMT-97"/>
     <use x="900.488281" xlink:href="#ArialMT-100"/>
    </g>
   </g>
   <g id="legend_3">
    <g id="line2d_70">
     <path d="M 893.800719 44.936305 
L 915.800719 44.936305 
" style="fill:none;stroke:#4c72b0;stroke-linecap:round;stroke-width:1.75;"/>
    </g>
    <g id="line2d_71"/>
    <g id="text_36">
     <!-- c2: &lt;= -->
     <g style="fill:#262626;" transform="translate(924.600719 48.786305)scale(0.11 -0.11)">
      <use xlink:href="#ArialMT-99"/>
      <use x="50" xlink:href="#ArialMT-50"/>
      <use x="105.615234" xlink:href="#ArialMT-58"/>
      <use x="133.398438" xlink:href="#ArialMT-32"/>
      <use x="161.181641" xlink:href="#ArialMT-60"/>
      <use x="219.580078" xlink:href="#ArialMT-61"/>
     </g>
    </g>
    <g id="line2d_72">
     <path d="M 893.800719 60.630211 
L 915.800719 60.630211 
" style="fill:none;stroke:#55a868;stroke-linecap:round;stroke-width:1.75;"/>
    </g>
    <g id="line2d_73"/>
    <g id="text_37">
     <!-- c2_ref -->
     <g style="fill:#262626;" transform="translate(924.600719 64.480211)scale(0.11 -0.11)">
      <use xlink:href="#ArialMT-99"/>
      <use x="50" xlink:href="#ArialMT-50"/>
      <use x="105.615234" xlink:href="#ArialMT-95"/>
      <use x="161.230469" xlink:href="#ArialMT-114"/>
      <use x="194.53125" xlink:href="#ArialMT-101"/>
      <use x="250.146484" xlink:href="#ArialMT-102"/>
     </g>
    </g>
   </g>
  </g>
  <g id="axes_4">
   <g id="patch_17">
    <path d="M 386.20235 446.892 
L 632.01405 446.892 
L 632.01405 265.284348 
L 386.20235 265.284348 
z
" style="fill:#eaeaf2;"/>
   </g>
   <g id="matplotlib.axis_7">
    <g id="xtick_16">
     <g id="line2d_74">
      <path clip-path="url(#pb67a46964c)" d="M 397.375609 446.892 
L 397.375609 265.284348 
" style="fill:none;stroke:#ffffff;stroke-linecap:round;"/>
     </g>
     <g id="line2d_75"/>
     <g id="text_38">
      <!-- 0 -->
      <g style="fill:#262626;" transform="translate(394.039047 462.481375)scale(0.12 -0.12)">
       <use xlink:href="#ArialMT-48"/>
      </g>
     </g>
    </g>
    <g id="xtick_17">
     <g id="line2d_76">
      <path clip-path="url(#pb67a46964c)" d="M 444.420911 446.892 
L 444.420911 265.284348 
" style="fill:none;stroke:#ffffff;stroke-linecap:round;"/>
     </g>
     <g id="line2d_77"/>
     <g id="text_39">
      <!-- 4 -->
      <g style="fill:#262626;" transform="translate(441.084348 462.481375)scale(0.12 -0.12)">
       <use xlink:href="#ArialMT-52"/>
      </g>
     </g>
    </g>
    <g id="xtick_18">
     <g id="line2d_78">
      <path clip-path="url(#pb67a46964c)" d="M 491.466212 446.892 
L 491.466212 265.284348 
" style="fill:none;stroke:#ffffff;stroke-linecap:round;"/>
     </g>
     <g id="line2d_79"/>
     <g id="text_40">
      <!-- 8 -->
      <g style="fill:#262626;" transform="translate(488.129649 462.481375)scale(0.12 -0.12)">
       <use xlink:href="#ArialMT-56"/>
      </g>
     </g>
    </g>
    <g id="xtick_19">
     <g id="line2d_80">
      <path clip-path="url(#pb67a46964c)" d="M 538.511513 446.892 
L 538.511513 265.284348 
" style="fill:none;stroke:#ffffff;stroke-linecap:round;"/>
     </g>
     <g id="line2d_81"/>
     <g id="text_41">
      <!-- 12 -->
      <g style="fill:#262626;" transform="translate(531.838388 462.481375)scale(0.12 -0.12)">
       <use xlink:href="#ArialMT-49"/>
       <use x="55.615234" xlink:href="#ArialMT-50"/>
      </g>
     </g>
    </g>
    <g id="xtick_20">
     <g id="line2d_82">
      <path clip-path="url(#pb67a46964c)" d="M 585.556815 446.892 
L 585.556815 265.284348 
" style="fill:none;stroke:#ffffff;stroke-linecap:round;"/>
     </g>
     <g id="line2d_83"/>
     <g id="text_42">
      <!-- 16 -->
      <g style="fill:#262626;" transform="translate(578.88369 462.481375)scale(0.12 -0.12)">
       <use xlink:href="#ArialMT-49"/>
       <use x="55.615234" xlink:href="#ArialMT-54"/>
      </g>
     </g>
    </g>
   </g>
   <g id="matplotlib.axis_8">
    <g id="ytick_15">
     <g id="line2d_84">
      <path clip-path="url(#pb67a46964c)" d="M 386.20235 438.637107 
L 632.01405 438.637107 
" style="fill:none;stroke:#ffffff;stroke-linecap:round;"/>
     </g>
     <g id="line2d_85"/>
     <g id="text_43">
      <!-- 0 -->
      <g style="fill:#262626;" transform="translate(372.529225 442.931794)scale(0.12 -0.12)">
       <use xlink:href="#ArialMT-48"/>
      </g>
     </g>
    </g>
    <g id="ytick_16">
     <g id="line2d_86">
      <path clip-path="url(#pb67a46964c)" d="M 386.20235 390.568224 
L 632.01405 390.568224 
" style="fill:none;stroke:#ffffff;stroke-linecap:round;"/>
     </g>
     <g id="line2d_87"/>
     <g id="text_44">
      <!-- 200 -->
      <g style="fill:#262626;" transform="translate(359.182975 394.862911)scale(0.12 -0.12)">
       <use xlink:href="#ArialMT-50"/>
       <use x="55.615234" xlink:href="#ArialMT-48"/>
       <use x="111.230469" xlink:href="#ArialMT-48"/>
      </g>
     </g>
    </g>
    <g id="ytick_17">
     <g id="line2d_88">
      <path clip-path="url(#pb67a46964c)" d="M 386.20235 342.499341 
L 632.01405 342.499341 
" style="fill:none;stroke:#ffffff;stroke-linecap:round;"/>
     </g>
     <g id="line2d_89"/>
     <g id="text_45">
      <!-- 400 -->
      <g style="fill:#262626;" transform="translate(359.182975 346.794029)scale(0.12 -0.12)">
       <use xlink:href="#ArialMT-52"/>
       <use x="55.615234" xlink:href="#ArialMT-48"/>
       <use x="111.230469" xlink:href="#ArialMT-48"/>
      </g>
     </g>
    </g>
    <g id="ytick_18">
     <g id="line2d_90">
      <path clip-path="url(#pb67a46964c)" d="M 386.20235 294.430458 
L 632.01405 294.430458 
" style="fill:none;stroke:#ffffff;stroke-linecap:round;"/>
     </g>
     <g id="line2d_91"/>
     <g id="text_46">
      <!-- 600 -->
      <g style="fill:#262626;" transform="translate(359.182975 298.725146)scale(0.12 -0.12)">
       <use xlink:href="#ArialMT-54"/>
       <use x="55.615234" xlink:href="#ArialMT-48"/>
       <use x="111.230469" xlink:href="#ArialMT-48"/>
      </g>
     </g>
    </g>
   </g>
   <g id="line2d_92">
    <path clip-path="url(#pb67a46964c)" d="M 397.375609 438.637107 
L 409.136934 438.637107 
L 420.89826 438.637107 
L 432.659585 438.637107 
L 444.420911 438.637107 
L 456.182236 436.801945 
L 467.943561 355.154917 
L 479.704887 376.617192 
L 491.466212 358.575739 
L 503.227537 364.370923 
L 514.988863 292.774966 
L 526.750188 358.746143 
L 538.511513 382.788516 
L 550.272839 273.539241 
L 562.034164 310.711629 
L 573.795489 314.687406 
L 585.556815 322.545227 
L 597.31814 334.822981 
L 609.079466 319.443101 
L 620.840791 340.28649 
" style="fill:none;stroke:#4c72b0;stroke-linecap:round;stroke-width:1.75;"/>
   </g>
   <g id="line2d_93">
    <path clip-path="url(#pb67a46964c)" d="M 397.375609 438.637107 
L 409.136934 438.637107 
L 420.89826 438.637107 
L 432.659585 438.637107 
L 444.420911 438.637107 
L 456.182236 438.637107 
L 467.943561 438.637107 
L 479.704887 438.637107 
L 491.466212 438.637107 
L 503.227537 438.637107 
L 514.988863 438.637107 
L 526.750188 438.637107 
L 538.511513 438.637107 
L 550.272839 438.637107 
L 562.034164 438.637107 
L 573.795489 438.637107 
L 585.556815 438.637107 
L 597.31814 438.637107 
L 609.079466 438.637107 
L 620.840791 438.637107 
" style="fill:none;stroke:#55a868;stroke-linecap:round;stroke-width:1.75;"/>
   </g>
   <g id="patch_18">
    <path d="M 386.20235 446.892 
L 386.20235 265.284348 
" style="fill:none;"/>
   </g>
   <g id="patch_19">
    <path d="M 632.01405 446.892 
L 632.01405 265.284348 
" style="fill:none;"/>
   </g>
   <g id="patch_20">
    <path d="M 386.20235 446.892 
L 632.01405 446.892 
" style="fill:none;"/>
   </g>
   <g id="patch_21">
    <path d="M 386.20235 265.284348 
L 632.01405 265.284348 
" style="fill:none;"/>
   </g>
   <g id="text_47">
    <!-- packaging: bounding mesh -->
    <g style="fill:#262626;" transform="translate(437.395075 259.284348)scale(0.12 -0.12)">
     <defs>
      <path d="M 6.640625 0 
L 6.640625 71.578125 
L 15.4375 71.578125 
L 15.4375 30.765625 
L 36.234375 51.859375 
L 47.609375 51.859375 
L 27.78125 32.625 
L 49.609375 0 
L 38.765625 0 
L 21.625 26.515625 
L 15.4375 20.5625 
L 15.4375 0 
z
" id="ArialMT-107"/>
      <path d="M 14.703125 0 
L 6.546875 0 
L 6.546875 71.578125 
L 15.328125 71.578125 
L 15.328125 46.046875 
Q 20.90625 53.03125 29.546875 53.03125 
Q 34.328125 53.03125 38.59375 51.09375 
Q 42.875 49.171875 45.625 45.671875 
Q 48.390625 42.1875 49.953125 37.25 
Q 51.515625 32.328125 51.515625 26.703125 
Q 51.515625 13.375 44.921875 6.09375 
Q 38.328125 -1.171875 29.109375 -1.171875 
Q 19.921875 -1.171875 14.703125 6.5 
z
M 14.59375 26.3125 
Q 14.59375 17 17.140625 12.84375 
Q 21.296875 6.0625 28.375 6.0625 
Q 34.125 6.0625 38.328125 11.0625 
Q 42.53125 16.0625 42.53125 25.984375 
Q 42.53125 36.140625 38.5 40.96875 
Q 34.46875 45.796875 28.765625 45.796875 
Q 23 45.796875 18.796875 40.796875 
Q 14.59375 35.796875 14.59375 26.3125 
z
" id="ArialMT-98"/>
      <path d="M 40.578125 0 
L 40.578125 7.625 
Q 34.515625 -1.171875 24.125 -1.171875 
Q 19.53125 -1.171875 15.546875 0.578125 
Q 11.578125 2.34375 9.640625 5 
Q 7.71875 7.671875 6.9375 11.53125 
Q 6.390625 14.109375 6.390625 19.734375 
L 6.390625 51.859375 
L 15.1875 51.859375 
L 15.1875 23.09375 
Q 15.1875 16.21875 15.71875 13.8125 
Q 16.546875 10.359375 19.234375 8.375 
Q 21.921875 6.390625 25.875 6.390625 
Q 29.828125 6.390625 33.296875 8.421875 
Q 36.765625 10.453125 38.203125 13.9375 
Q 39.65625 17.4375 39.65625 24.078125 
L 39.65625 51.859375 
L 48.4375 51.859375 
L 48.4375 0 
z
" id="ArialMT-117"/>
      <path d="M 6.59375 0 
L 6.59375 71.578125 
L 15.375 71.578125 
L 15.375 45.90625 
Q 21.53125 53.03125 30.90625 53.03125 
Q 36.671875 53.03125 40.921875 50.75 
Q 45.171875 48.484375 47 44.484375 
Q 48.828125 40.484375 48.828125 32.859375 
L 48.828125 0 
L 40.046875 0 
L 40.046875 32.859375 
Q 40.046875 39.453125 37.1875 42.453125 
Q 34.328125 45.453125 29.109375 45.453125 
Q 25.203125 45.453125 21.75 43.421875 
Q 18.3125 41.40625 16.84375 37.9375 
Q 15.375 34.46875 15.375 28.375 
L 15.375 0 
z
" id="ArialMT-104"/>
     </defs>
     <use xlink:href="#ArialMT-112"/>
     <use x="55.615234" xlink:href="#ArialMT-97"/>
     <use x="111.230469" xlink:href="#ArialMT-99"/>
     <use x="161.230469" xlink:href="#ArialMT-107"/>
     <use x="211.230469" xlink:href="#ArialMT-97"/>
     <use x="266.845703" xlink:href="#ArialMT-103"/>
     <use x="322.460938" xlink:href="#ArialMT-105"/>
     <use x="344.677734" xlink:href="#ArialMT-110"/>
     <use x="400.292969" xlink:href="#ArialMT-103"/>
     <use x="455.908203" xlink:href="#ArialMT-58"/>
     <use x="483.691406" xlink:href="#ArialMT-32"/>
     <use x="511.474609" xlink:href="#ArialMT-98"/>
     <use x="567.089844" xlink:href="#ArialMT-111"/>
     <use x="622.705078" xlink:href="#ArialMT-117"/>
     <use x="678.320312" xlink:href="#ArialMT-110"/>
     <use x="733.935547" xlink:href="#ArialMT-100"/>
     <use x="789.550781" xlink:href="#ArialMT-105"/>
     <use x="811.767578" xlink:href="#ArialMT-110"/>
     <use x="867.382812" xlink:href="#ArialMT-103"/>
     <use x="922.998047" xlink:href="#ArialMT-32"/>
     <use x="950.78125" xlink:href="#ArialMT-109"/>
     <use x="1034.082031" xlink:href="#ArialMT-101"/>
     <use x="1089.697266" xlink:href="#ArialMT-115"/>
     <use x="1139.697266" xlink:href="#ArialMT-104"/>
    </g>
   </g>
   <g id="legend_4">
    <g id="line2d_94">
     <path d="M 396.10235 279.207941 
L 418.10235 279.207941 
" style="fill:none;stroke:#4c72b0;stroke-linecap:round;stroke-width:1.75;"/>
    </g>
    <g id="line2d_95"/>
    <g id="text_48">
     <!-- c3: &lt;= -->
     <g style="fill:#262626;" transform="translate(426.90235 283.057941)scale(0.11 -0.11)">
      <use xlink:href="#ArialMT-99"/>
      <use x="50" xlink:href="#ArialMT-51"/>
      <use x="105.615234" xlink:href="#ArialMT-58"/>
      <use x="133.398438" xlink:href="#ArialMT-32"/>
      <use x="161.181641" xlink:href="#ArialMT-60"/>
      <use x="219.580078" xlink:href="#ArialMT-61"/>
     </g>
    </g>
    <g id="line2d_96">
     <path d="M 396.10235 294.901848 
L 418.10235 294.901848 
" style="fill:none;stroke:#55a868;stroke-linecap:round;stroke-width:1.75;"/>
    </g>
    <g id="line2d_97"/>
    <g id="text_49">
     <!-- c3_ref -->
     <g style="fill:#262626;" transform="translate(426.90235 298.751848)scale(0.11 -0.11)">
      <use xlink:href="#ArialMT-99"/>
      <use x="50" xlink:href="#ArialMT-51"/>
      <use x="105.615234" xlink:href="#ArialMT-95"/>
      <use x="161.230469" xlink:href="#ArialMT-114"/>
      <use x="194.53125" xlink:href="#ArialMT-101"/>
      <use x="250.146484" xlink:href="#ArialMT-102"/>
     </g>
    </g>
   </g>
  </g>
  <g id="axes_5">
   <g id="patch_22">
    <path d="M 719.2673 446.892 
L 965.079 446.892 
L 965.079 265.284348 
L 719.2673 265.284348 
z
" style="fill:#eaeaf2;"/>
   </g>
   <g id="matplotlib.axis_9">
    <g id="xtick_21">
     <g id="line2d_98">
      <path clip-path="url(#p041d509d1f)" d="M 730.440559 446.892 
L 730.440559 265.284348 
" style="fill:none;stroke:#ffffff;stroke-linecap:round;"/>
     </g>
     <g id="line2d_99"/>
     <g id="text_50">
      <!-- 0 -->
      <g style="fill:#262626;" transform="translate(727.103997 462.481375)scale(0.12 -0.12)">
       <use xlink:href="#ArialMT-48"/>
      </g>
     </g>
    </g>
    <g id="xtick_22">
     <g id="line2d_100">
      <path clip-path="url(#p041d509d1f)" d="M 777.485861 446.892 
L 777.485861 265.284348 
" style="fill:none;stroke:#ffffff;stroke-linecap:round;"/>
     </g>
     <g id="line2d_101"/>
     <g id="text_51">
      <!-- 4 -->
      <g style="fill:#262626;" transform="translate(774.149298 462.481375)scale(0.12 -0.12)">
       <use xlink:href="#ArialMT-52"/>
      </g>
     </g>
    </g>
    <g id="xtick_23">
     <g id="line2d_102">
      <path clip-path="url(#p041d509d1f)" d="M 824.531162 446.892 
L 824.531162 265.284348 
" style="fill:none;stroke:#ffffff;stroke-linecap:round;"/>
     </g>
     <g id="line2d_103"/>
     <g id="text_52">
      <!-- 8 -->
      <g style="fill:#262626;" transform="translate(821.194599 462.481375)scale(0.12 -0.12)">
       <use xlink:href="#ArialMT-56"/>
      </g>
     </g>
    </g>
    <g id="xtick_24">
     <g id="line2d_104">
      <path clip-path="url(#p041d509d1f)" d="M 871.576463 446.892 
L 871.576463 265.284348 
" style="fill:none;stroke:#ffffff;stroke-linecap:round;"/>
     </g>
     <g id="line2d_105"/>
     <g id="text_53">
      <!-- 12 -->
      <g style="fill:#262626;" transform="translate(864.903338 462.481375)scale(0.12 -0.12)">
       <use xlink:href="#ArialMT-49"/>
       <use x="55.615234" xlink:href="#ArialMT-50"/>
      </g>
     </g>
    </g>
    <g id="xtick_25">
     <g id="line2d_106">
      <path clip-path="url(#p041d509d1f)" d="M 918.621765 446.892 
L 918.621765 265.284348 
" style="fill:none;stroke:#ffffff;stroke-linecap:round;"/>
     </g>
     <g id="line2d_107"/>
     <g id="text_54">
      <!-- 16 -->
      <g style="fill:#262626;" transform="translate(911.94864 462.481375)scale(0.12 -0.12)">
       <use xlink:href="#ArialMT-49"/>
       <use x="55.615234" xlink:href="#ArialMT-54"/>
      </g>
     </g>
    </g>
   </g>
   <g id="matplotlib.axis_10">
    <g id="ytick_19">
     <g id="line2d_108">
      <path clip-path="url(#p041d509d1f)" d="M 719.2673 438.637107 
L 965.079 438.637107 
" style="fill:none;stroke:#ffffff;stroke-linecap:round;"/>
     </g>
     <g id="line2d_109"/>
     <g id="text_55">
      <!-- 0 -->
      <g style="fill:#262626;" transform="translate(705.594175 442.931794)scale(0.12 -0.12)">
       <use xlink:href="#ArialMT-48"/>
      </g>
     </g>
    </g>
    <g id="ytick_20">
     <g id="line2d_110">
      <path clip-path="url(#p041d509d1f)" d="M 719.2673 390.84333 
L 965.079 390.84333 
" style="fill:none;stroke:#ffffff;stroke-linecap:round;"/>
     </g>
     <g id="line2d_111"/>
     <g id="text_56">
      <!-- 1 -->
      <g style="fill:#262626;" transform="translate(705.594175 395.138018)scale(0.12 -0.12)">
       <use xlink:href="#ArialMT-49"/>
      </g>
     </g>
    </g>
    <g id="ytick_21">
     <g id="line2d_112">
      <path clip-path="url(#p041d509d1f)" d="M 719.2673 343.049554 
L 965.079 343.049554 
" style="fill:none;stroke:#ffffff;stroke-linecap:round;"/>
     </g>
     <g id="line2d_113"/>
     <g id="text_57">
      <!-- 2 -->
      <g style="fill:#262626;" transform="translate(705.594175 347.344241)scale(0.12 -0.12)">
       <use xlink:href="#ArialMT-50"/>
      </g>
     </g>
    </g>
    <g id="ytick_22">
     <g id="line2d_114">
      <path clip-path="url(#p041d509d1f)" d="M 719.2673 295.255777 
L 965.079 295.255777 
" style="fill:none;stroke:#ffffff;stroke-linecap:round;"/>
     </g>
     <g id="line2d_115"/>
     <g id="text_58">
      <!-- 3 -->
      <g style="fill:#262626;" transform="translate(705.594175 299.550465)scale(0.12 -0.12)">
       <use xlink:href="#ArialMT-51"/>
      </g>
     </g>
    </g>
   </g>
   <g id="line2d_116">
    <path clip-path="url(#p041d509d1f)" d="M 730.440559 295.255777 
L 742.201884 295.255777 
L 753.96321 295.255777 
L 765.724535 295.255777 
L 777.485861 295.255777 
L 789.247186 295.255777 
L 801.008511 295.255777 
L 812.769837 295.255777 
L 824.531162 295.255777 
L 836.292487 295.255777 
L 848.053813 295.255777 
L 859.815138 295.255777 
L 871.576463 295.255777 
L 883.337789 295.255777 
L 895.099114 295.255777 
L 906.860439 295.255777 
L 918.621765 295.255777 
L 930.38309 295.255777 
L 942.144416 295.255777 
L 953.905741 295.255777 
" style="fill:none;stroke:#4c72b0;stroke-linecap:round;stroke-width:1.75;"/>
   </g>
   <g id="line2d_117">
    <path clip-path="url(#p041d509d1f)" d="M 730.440559 273.539241 
L 742.201884 279.73427 
L 753.96321 284.074901 
L 765.724535 286.957822 
L 777.485861 295.336071 
L 789.247186 303.022744 
L 801.008511 339.08267 
L 812.769837 332.87617 
L 824.531162 340.25553 
L 836.292487 328.27124 
L 848.053813 357.154931 
L 859.815138 321.164305 
L 871.576463 338.117714 
L 883.337789 338.613335 
L 895.099114 351.23376 
L 906.860439 344.772041 
L 918.621765 347.184671 
L 930.38309 343.532749 
L 942.144416 348.52911 
L 953.905741 339.399065 
" style="fill:none;stroke:#55a868;stroke-linecap:round;stroke-width:1.75;"/>
   </g>
   <g id="line2d_118">
    <path clip-path="url(#p041d509d1f)" d="M 730.440559 438.637107 
L 742.201884 432.309306 
L 753.96321 430.943408 
L 765.724535 432.597503 
L 777.485861 433.043562 
L 789.247186 423.12578 
L 801.008511 381.122554 
L 812.769837 393.830346 
L 824.531162 385.498074 
L 836.292487 390.498737 
L 848.053813 366.244829 
L 859.815138 401.182653 
L 871.576463 386.231231 
L 883.337789 378.671211 
L 895.099114 372.796878 
L 906.860439 377.262729 
L 918.621765 377.48497 
L 930.38309 379.626131 
L 942.144416 375.651122 
L 953.905741 383.675698 
" style="fill:none;stroke:#c44e52;stroke-linecap:round;stroke-width:1.75;"/>
   </g>
   <g id="patch_23">
    <path d="M 719.2673 446.892 
L 719.2673 265.284348 
" style="fill:none;"/>
   </g>
   <g id="patch_24">
    <path d="M 965.079 446.892 
L 965.079 265.284348 
" style="fill:none;"/>
   </g>
   <g id="patch_25">
    <path d="M 719.2673 446.892 
L 965.079 446.892 
" style="fill:none;"/>
   </g>
   <g id="patch_26">
    <path d="M 719.2673 265.284348 
L 965.079 265.284348 
" style="fill:none;"/>
   </g>
   <g id="text_59">
    <!-- step length -->
    <g style="fill:#262626;" transform="translate(812.820025 259.284348)scale(0.12 -0.12)">
     <use xlink:href="#ArialMT-115"/>
     <use x="50" xlink:href="#ArialMT-116"/>
     <use x="77.783203" xlink:href="#ArialMT-101"/>
     <use x="133.398438" xlink:href="#ArialMT-112"/>
     <use x="189.013672" xlink:href="#ArialMT-32"/>
     <use x="216.796875" xlink:href="#ArialMT-108"/>
     <use x="239.013672" xlink:href="#ArialMT-101"/>
     <use x="294.628906" xlink:href="#ArialMT-110"/>
     <use x="350.244141" xlink:href="#ArialMT-103"/>
     <use x="405.859375" xlink:href="#ArialMT-116"/>
     <use x="433.642578" xlink:href="#ArialMT-104"/>
    </g>
   </g>
   <g id="legend_5">
    <g id="line2d_119">
     <path d="M 869.968531 399.567937 
L 891.968531 399.567937 
" style="fill:none;stroke:#4c72b0;stroke-linecap:round;stroke-width:1.75;"/>
    </g>
    <g id="line2d_120"/>
    <g id="text_60">
     <!-- step_size -->
     <g style="fill:#262626;" transform="translate(900.768531 403.417937)scale(0.11 -0.11)">
      <defs>
       <path d="M 1.953125 0 
L 1.953125 7.125 
L 34.96875 45.015625 
Q 29.34375 44.734375 25.046875 44.734375 
L 3.90625 44.734375 
L 3.90625 51.859375 
L 46.296875 51.859375 
L 46.296875 46.046875 
L 18.21875 13.140625 
L 12.796875 7.125 
Q 18.703125 7.5625 23.875 7.5625 
L 47.859375 7.5625 
L 47.859375 0 
z
" id="ArialMT-122"/>
      </defs>
      <use xlink:href="#ArialMT-115"/>
      <use x="50" xlink:href="#ArialMT-116"/>
      <use x="77.783203" xlink:href="#ArialMT-101"/>
      <use x="133.398438" xlink:href="#ArialMT-112"/>
      <use x="189.013672" xlink:href="#ArialMT-95"/>
      <use x="244.628906" xlink:href="#ArialMT-115"/>
      <use x="294.628906" xlink:href="#ArialMT-105"/>
      <use x="316.845703" xlink:href="#ArialMT-122"/>
      <use x="366.845703" xlink:href="#ArialMT-101"/>
     </g>
    </g>
    <g id="line2d_121">
     <path d="M 869.968531 415.261844 
L 891.968531 415.261844 
" style="fill:none;stroke:#55a868;stroke-linecap:round;stroke-width:1.75;"/>
    </g>
    <g id="line2d_122"/>
    <g id="text_61">
     <!-- inf_norm_s -->
     <g style="fill:#262626;" transform="translate(900.768531 419.111844)scale(0.11 -0.11)">
      <use xlink:href="#ArialMT-105"/>
      <use x="22.216797" xlink:href="#ArialMT-110"/>
      <use x="77.832031" xlink:href="#ArialMT-102"/>
      <use x="105.615234" xlink:href="#ArialMT-95"/>
      <use x="161.230469" xlink:href="#ArialMT-110"/>
      <use x="216.845703" xlink:href="#ArialMT-111"/>
      <use x="272.460938" xlink:href="#ArialMT-114"/>
      <use x="305.761719" xlink:href="#ArialMT-109"/>
      <use x="389.0625" xlink:href="#ArialMT-95"/>
      <use x="444.677734" xlink:href="#ArialMT-115"/>
     </g>
    </g>
    <g id="line2d_123">
     <path d="M 869.968531 430.95575 
L 891.968531 430.95575 
" style="fill:none;stroke:#c44e52;stroke-linecap:round;stroke-width:1.75;"/>
    </g>
    <g id="line2d_124"/>
    <g id="text_62">
     <!-- inf_norm_c -->
     <g style="fill:#262626;" transform="translate(900.768531 434.80575)scale(0.11 -0.11)">
      <use xlink:href="#ArialMT-105"/>
      <use x="22.216797" xlink:href="#ArialMT-110"/>
      <use x="77.832031" xlink:href="#ArialMT-102"/>
      <use x="105.615234" xlink:href="#ArialMT-95"/>
      <use x="161.230469" xlink:href="#ArialMT-110"/>
      <use x="216.845703" xlink:href="#ArialMT-111"/>
      <use x="272.460938" xlink:href="#ArialMT-114"/>
      <use x="305.761719" xlink:href="#ArialMT-109"/>
      <use x="389.0625" xlink:href="#ArialMT-95"/>
      <use x="444.677734" xlink:href="#ArialMT-99"/>
     </g>
    </g>
   </g>
  </g>
 </g>
 <defs>
  <clipPath id="p550573165e">
   <rect height="415.879289" width="245.8117" x="53.1374" y="31.012711"/>
  </clipPath>
  <clipPath id="p3d17991f53">
   <rect height="181.607652" width="245.8117" x="386.20235" y="31.012711"/>
  </clipPath>
  <clipPath id="p8b75c643a9">
   <rect height="181.607652" width="245.8117" x="719.2673" y="31.012711"/>
  </clipPath>
  <clipPath id="pb67a46964c">
   <rect height="181.607652" width="245.8117" x="386.20235" y="265.284348"/>
  </clipPath>
  <clipPath id="p041d509d1f">
   <rect height="181.607652" width="245.8117" x="719.2673" y="265.284348"/>
  </clipPath>
 </defs>
</svg>
